%TF.GenerationSoftware,KiCad,Pcbnew,(6.0.6)*%
%TF.CreationDate,2022-07-16T21:02:27+02:00*%
%TF.ProjectId,epd,6570642e-6b69-4636-9164-5f7063625858,rev?*%
%TF.SameCoordinates,Original*%
%TF.FileFunction,Soldermask,Bot*%
%TF.FilePolarity,Negative*%
%FSLAX46Y46*%
G04 Gerber Fmt 4.6, Leading zero omitted, Abs format (unit mm)*
G04 Created by KiCad (PCBNEW (6.0.6)) date 2022-07-16 21:02:27*
%MOMM*%
%LPD*%
G01*
G04 APERTURE LIST*
G04 Aperture macros list*
%AMRoundRect*
0 Rectangle with rounded corners*
0 $1 Rounding radius*
0 $2 $3 $4 $5 $6 $7 $8 $9 X,Y pos of 4 corners*
0 Add a 4 corners polygon primitive as box body*
4,1,4,$2,$3,$4,$5,$6,$7,$8,$9,$2,$3,0*
0 Add four circle primitives for the rounded corners*
1,1,$1+$1,$2,$3*
1,1,$1+$1,$4,$5*
1,1,$1+$1,$6,$7*
1,1,$1+$1,$8,$9*
0 Add four rect primitives between the rounded corners*
20,1,$1+$1,$2,$3,$4,$5,0*
20,1,$1+$1,$4,$5,$6,$7,0*
20,1,$1+$1,$6,$7,$8,$9,0*
20,1,$1+$1,$8,$9,$2,$3,0*%
G04 Aperture macros list end*
%ADD10RoundRect,0.225000X-0.250000X0.225000X-0.250000X-0.225000X0.250000X-0.225000X0.250000X0.225000X0*%
%ADD11R,0.900000X1.200000*%
%ADD12RoundRect,0.225000X0.250000X-0.225000X0.250000X0.225000X-0.250000X0.225000X-0.250000X-0.225000X0*%
%ADD13R,0.300000X1.300000*%
%ADD14R,1.800000X2.200000*%
%ADD15O,1.400000X1.700000*%
%ADD16C,0.600000*%
G04 APERTURE END LIST*
D10*
%TO.C,C14*%
X162712320Y-90224772D03*
X162712320Y-91774772D03*
%TD*%
%TO.C,C10*%
X157492320Y-85049772D03*
X157492320Y-86599772D03*
%TD*%
D11*
%TO.C,D1*%
X159334200Y-80340200D03*
X156034200Y-80340200D03*
%TD*%
D10*
%TO.C,C8*%
X154992320Y-84999772D03*
X154992320Y-86549772D03*
%TD*%
D12*
%TO.C,C13*%
X161862320Y-86599772D03*
X161862320Y-85049772D03*
%TD*%
%TO.C,C1*%
X151792320Y-91849772D03*
X151792320Y-90299772D03*
%TD*%
D10*
%TO.C,C9*%
X155892320Y-90299772D03*
X155892320Y-91849772D03*
%TD*%
D12*
%TO.C,C5*%
X150192320Y-91849772D03*
X150192320Y-90299772D03*
%TD*%
D10*
%TO.C,C12*%
X160212320Y-90249772D03*
X160212320Y-91799772D03*
%TD*%
%TO.C,C7*%
X153392320Y-84999772D03*
X153392320Y-86549772D03*
%TD*%
D12*
%TO.C,C11*%
X160212320Y-86599772D03*
X160212320Y-85049772D03*
%TD*%
D10*
%TO.C,C2*%
X150192320Y-85000088D03*
X150192320Y-86550088D03*
%TD*%
%TO.C,C3*%
X151792320Y-85000088D03*
X151792320Y-86550088D03*
%TD*%
%TO.C,C6*%
X153392320Y-90299772D03*
X153392320Y-91849772D03*
%TD*%
%TO.C,C4*%
X157492320Y-90299772D03*
X157492320Y-91849772D03*
%TD*%
D13*
%TO.C,J1*%
X165000000Y-95200000D03*
X164500000Y-95200000D03*
X164000000Y-95200000D03*
X163500000Y-95200000D03*
X163000000Y-95200000D03*
X162500000Y-95200000D03*
X162000000Y-95200000D03*
X161500000Y-95200000D03*
X161000000Y-95200000D03*
X160500000Y-95200000D03*
X160000000Y-95200000D03*
X159500000Y-95200000D03*
X159000000Y-95200000D03*
X158500000Y-95200000D03*
X158000000Y-95200000D03*
X157500000Y-95200000D03*
X157000000Y-95200000D03*
X156500000Y-95200000D03*
X156000000Y-95200000D03*
X155500000Y-95200000D03*
X155000000Y-95200000D03*
X154500000Y-95200000D03*
X154000000Y-95200000D03*
X153500000Y-95200000D03*
X153000000Y-95200000D03*
X152500000Y-95200000D03*
X152000000Y-95200000D03*
X151500000Y-95200000D03*
X151000000Y-95200000D03*
X150500000Y-95200000D03*
D14*
X149200000Y-98400000D03*
X166300000Y-98400000D03*
%TD*%
D10*
%TO.C,C16*%
X165212320Y-85049772D03*
X165212320Y-86599772D03*
%TD*%
%TO.C,C17*%
X165212320Y-90199772D03*
X165212320Y-91749772D03*
%TD*%
%TO.C,C15*%
X163512320Y-85049772D03*
X163512320Y-86599772D03*
%TD*%
D15*
%TO.C,J2*%
X148860000Y-70300000D03*
X151400000Y-70300000D03*
X153940000Y-70300000D03*
X156480000Y-70300000D03*
X159020000Y-70300000D03*
X161560000Y-70300000D03*
X164100000Y-70300000D03*
X166640000Y-70300000D03*
%TD*%
D16*
X162830000Y-77780000D03*
X162830000Y-75240000D03*
X165370000Y-77780000D03*
X150130000Y-72700000D03*
X165370000Y-72700000D03*
X162737800Y-89200000D03*
X160290000Y-80320000D03*
X162830000Y-101900000D03*
X157750000Y-75240000D03*
X152670000Y-101900000D03*
X150190200Y-89204800D03*
X160223200Y-89204800D03*
X162830000Y-80320000D03*
X152670000Y-80320000D03*
X155210000Y-75240000D03*
X165370000Y-96820000D03*
X165227000Y-83950000D03*
X165370000Y-75240000D03*
X152670000Y-77780000D03*
X160290000Y-83950000D03*
X160290000Y-101900000D03*
X157750000Y-77780000D03*
X152670000Y-72700000D03*
X155879800Y-89204800D03*
X155210000Y-77780000D03*
X157750000Y-83950000D03*
X162830000Y-72700000D03*
X163525200Y-83947000D03*
X155210000Y-72700000D03*
X150190200Y-83950000D03*
X157750000Y-101900000D03*
X155210000Y-83950000D03*
X165370000Y-80320000D03*
X150130000Y-75240000D03*
X157505400Y-89204800D03*
X150130000Y-80320000D03*
X155210000Y-101900000D03*
X150130000Y-96820000D03*
X162830000Y-96820000D03*
X165303200Y-89200000D03*
X160290000Y-75240000D03*
X151790400Y-89204800D03*
X157750000Y-96820000D03*
X152670000Y-75240000D03*
X150130000Y-101900000D03*
X160290000Y-96820000D03*
X151790400Y-83947000D03*
X165370000Y-101900000D03*
X157750000Y-72700000D03*
X150130000Y-77780000D03*
X160290000Y-72700000D03*
X160290000Y-77780000D03*
X157750000Y-80320000D03*
X152000000Y-98825000D03*
X152800000Y-98825000D03*
X153600000Y-98825000D03*
X154400000Y-98825000D03*
X155200000Y-98825000D03*
X156000000Y-98825000D03*
M02*
