M48
; DRILL file {KiCad (6.0.6)} date Sat Jul 16 21:02:27 2022
; FORMAT={-:-/ absolute / inch / decimal}
; #@! TF.CreationDate,2022-07-16T21:02:27+02:00
; #@! TF.GenerationSoftware,Kicad,Pcbnew,(6.0.6)
; #@! TF.FileFunction,Plated,1,2,PTH
FMAT,2
INCH
; #@! TA.AperFunction,Plated,PTH,ViaDrill
T1C0.0118
; #@! TA.AperFunction,Plated,PTH,ComponentDrill
T2C0.0394
%
G90
G05
T1
X5.9106Y-2.8622
X5.9106Y-2.9622
X5.9106Y-3.0622
X5.9106Y-3.1622
X5.9106Y-3.8118
X5.9106Y-4.0118
X5.913Y-3.3051
X5.913Y-3.512
X5.976Y-3.305
X5.976Y-3.512
X5.9843Y-3.8907
X6.0106Y-2.8622
X6.0106Y-2.9622
X6.0106Y-3.0622
X6.0106Y-3.1622
X6.0106Y-4.0118
X6.0157Y-3.8907
X6.0472Y-3.8907
X6.0787Y-3.8907
X6.1102Y-3.8907
X6.1106Y-2.8622
X6.1106Y-2.9622
X6.1106Y-3.0622
X6.1106Y-3.3051
X6.1106Y-4.0118
X6.137Y-3.512
X6.1417Y-3.8907
X6.201Y-3.512
X6.2106Y-2.8622
X6.2106Y-2.9622
X6.2106Y-3.0622
X6.2106Y-3.1622
X6.2106Y-3.3051
X6.2106Y-3.8118
X6.2106Y-4.0118
X6.308Y-3.512
X6.3106Y-2.8622
X6.3106Y-2.9622
X6.3106Y-3.0622
X6.3106Y-3.1622
X6.3106Y-3.3051
X6.3106Y-3.8118
X6.3106Y-4.0118
X6.407Y-3.5118
X6.4106Y-2.8622
X6.4106Y-2.9622
X6.4106Y-3.0622
X6.4106Y-3.1622
X6.4106Y-3.8118
X6.4106Y-4.0118
X6.438Y-3.305
X6.505Y-3.3051
X6.508Y-3.5118
X6.5106Y-2.8622
X6.5106Y-2.9622
X6.5106Y-3.0622
X6.5106Y-3.1622
X6.5106Y-3.8118
X6.5106Y-4.0118
T2
X5.8606Y-2.7677
X5.9606Y-2.7677
X6.0606Y-2.7677
X6.1606Y-2.7677
X6.2606Y-2.7677
X6.3606Y-2.7677
X6.4606Y-2.7677
X6.5606Y-2.7677
T0
M30
