%TF.GenerationSoftware,KiCad,Pcbnew,(6.0.6)*%
%TF.CreationDate,2022-07-16T21:02:27+02:00*%
%TF.ProjectId,epd,6570642e-6b69-4636-9164-5f7063625858,rev?*%
%TF.SameCoordinates,Original*%
%TF.FileFunction,Legend,Bot*%
%TF.FilePolarity,Positive*%
%FSLAX46Y46*%
G04 Gerber Fmt 4.6, Leading zero omitted, Abs format (unit mm)*
G04 Created by KiCad (PCBNEW (6.0.6)) date 2022-07-16 21:02:27*
%MOMM*%
%LPD*%
G01*
G04 APERTURE LIST*
G04 Aperture macros list*
%AMRoundRect*
0 Rectangle with rounded corners*
0 $1 Rounding radius*
0 $2 $3 $4 $5 $6 $7 $8 $9 X,Y pos of 4 corners*
0 Add a 4 corners polygon primitive as box body*
4,1,4,$2,$3,$4,$5,$6,$7,$8,$9,$2,$3,0*
0 Add four circle primitives for the rounded corners*
1,1,$1+$1,$2,$3*
1,1,$1+$1,$4,$5*
1,1,$1+$1,$6,$7*
1,1,$1+$1,$8,$9*
0 Add four rect primitives between the rounded corners*
20,1,$1+$1,$2,$3,$4,$5,0*
20,1,$1+$1,$4,$5,$6,$7,0*
20,1,$1+$1,$6,$7,$8,$9,0*
20,1,$1+$1,$8,$9,$2,$3,0*%
G04 Aperture macros list end*
%ADD10C,0.150000*%
%ADD11C,0.120000*%
%ADD12C,0.127000*%
%ADD13RoundRect,0.225000X-0.250000X0.225000X-0.250000X-0.225000X0.250000X-0.225000X0.250000X0.225000X0*%
%ADD14R,0.900000X1.200000*%
%ADD15RoundRect,0.225000X0.250000X-0.225000X0.250000X0.225000X-0.250000X0.225000X-0.250000X-0.225000X0*%
%ADD16R,0.300000X1.300000*%
%ADD17R,1.800000X2.200000*%
%ADD18O,1.400000X1.700000*%
%ADD19C,0.600000*%
G04 APERTURE END LIST*
D10*
X158662857Y-73040357D02*
X158615238Y-73087976D01*
X158567619Y-73230833D01*
X158567619Y-73326071D01*
X158615238Y-73468928D01*
X158710476Y-73564166D01*
X158805714Y-73611785D01*
X158996190Y-73659404D01*
X159139047Y-73659404D01*
X159329523Y-73611785D01*
X159424761Y-73564166D01*
X159520000Y-73468928D01*
X159567619Y-73326071D01*
X159567619Y-73230833D01*
X159520000Y-73087976D01*
X159472380Y-73040357D01*
X158615238Y-72659404D02*
X158567619Y-72516547D01*
X158567619Y-72278452D01*
X158615238Y-72183214D01*
X158662857Y-72135595D01*
X158758095Y-72087976D01*
X158853333Y-72087976D01*
X158948571Y-72135595D01*
X158996190Y-72183214D01*
X159043809Y-72278452D01*
X159091428Y-72468928D01*
X159139047Y-72564166D01*
X159186666Y-72611785D01*
X159281904Y-72659404D01*
X159377142Y-72659404D01*
X159472380Y-72611785D01*
X159520000Y-72564166D01*
X159567619Y-72468928D01*
X159567619Y-72230833D01*
X159520000Y-72087976D01*
X149360000Y-74183214D02*
X149407619Y-74278452D01*
X149407619Y-74421309D01*
X149360000Y-74564166D01*
X149264761Y-74659404D01*
X149169523Y-74707023D01*
X148979047Y-74754642D01*
X148836190Y-74754642D01*
X148645714Y-74707023D01*
X148550476Y-74659404D01*
X148455238Y-74564166D01*
X148407619Y-74421309D01*
X148407619Y-74326071D01*
X148455238Y-74183214D01*
X148502857Y-74135595D01*
X148836190Y-74135595D01*
X148836190Y-74326071D01*
X148407619Y-73707023D02*
X149407619Y-73707023D01*
X148407619Y-73135595D01*
X149407619Y-73135595D01*
X148407619Y-72659404D02*
X149407619Y-72659404D01*
X149407619Y-72421309D01*
X149360000Y-72278452D01*
X149264761Y-72183214D01*
X149169523Y-72135595D01*
X148979047Y-72087976D01*
X148836190Y-72087976D01*
X148645714Y-72135595D01*
X148550476Y-72183214D01*
X148455238Y-72278452D01*
X148407619Y-72421309D01*
X148407619Y-72659404D01*
X156075238Y-74659404D02*
X156027619Y-74516547D01*
X156027619Y-74278452D01*
X156075238Y-74183214D01*
X156122857Y-74135595D01*
X156218095Y-74087976D01*
X156313333Y-74087976D01*
X156408571Y-74135595D01*
X156456190Y-74183214D01*
X156503809Y-74278452D01*
X156551428Y-74468928D01*
X156599047Y-74564166D01*
X156646666Y-74611785D01*
X156741904Y-74659404D01*
X156837142Y-74659404D01*
X156932380Y-74611785D01*
X156980000Y-74564166D01*
X157027619Y-74468928D01*
X157027619Y-74230833D01*
X156980000Y-74087976D01*
X156122857Y-73087976D02*
X156075238Y-73135595D01*
X156027619Y-73278452D01*
X156027619Y-73373690D01*
X156075238Y-73516547D01*
X156170476Y-73611785D01*
X156265714Y-73659404D01*
X156456190Y-73707023D01*
X156599047Y-73707023D01*
X156789523Y-73659404D01*
X156884761Y-73611785D01*
X156980000Y-73516547D01*
X157027619Y-73373690D01*
X157027619Y-73278452D01*
X156980000Y-73135595D01*
X156932380Y-73087976D01*
X156027619Y-72659404D02*
X157027619Y-72659404D01*
X156027619Y-72087976D02*
X156599047Y-72516547D01*
X157027619Y-72087976D02*
X156456190Y-72659404D01*
X151947619Y-74992738D02*
X151947619Y-74373690D01*
X151566666Y-74707023D01*
X151566666Y-74564166D01*
X151519047Y-74468928D01*
X151471428Y-74421309D01*
X151376190Y-74373690D01*
X151138095Y-74373690D01*
X151042857Y-74421309D01*
X150995238Y-74468928D01*
X150947619Y-74564166D01*
X150947619Y-74849880D01*
X150995238Y-74945119D01*
X151042857Y-74992738D01*
X151042857Y-73945119D02*
X150995238Y-73897500D01*
X150947619Y-73945119D01*
X150995238Y-73992738D01*
X151042857Y-73945119D01*
X150947619Y-73945119D01*
X151947619Y-73564166D02*
X151947619Y-72945119D01*
X151566666Y-73278452D01*
X151566666Y-73135595D01*
X151519047Y-73040357D01*
X151471428Y-72992738D01*
X151376190Y-72945119D01*
X151138095Y-72945119D01*
X151042857Y-72992738D01*
X150995238Y-73040357D01*
X150947619Y-73135595D01*
X150947619Y-73421309D01*
X150995238Y-73516547D01*
X151042857Y-73564166D01*
X151947619Y-72659404D02*
X150947619Y-72326071D01*
X151947619Y-71992738D01*
X161107619Y-73659404D02*
X162107619Y-73659404D01*
X162107619Y-73421309D01*
X162060000Y-73278452D01*
X161964761Y-73183214D01*
X161869523Y-73135595D01*
X161679047Y-73087976D01*
X161536190Y-73087976D01*
X161345714Y-73135595D01*
X161250476Y-73183214D01*
X161155238Y-73278452D01*
X161107619Y-73421309D01*
X161107619Y-73659404D01*
X161202857Y-72087976D02*
X161155238Y-72135595D01*
X161107619Y-72278452D01*
X161107619Y-72373690D01*
X161155238Y-72516547D01*
X161250476Y-72611785D01*
X161345714Y-72659404D01*
X161536190Y-72707023D01*
X161679047Y-72707023D01*
X161869523Y-72659404D01*
X161964761Y-72611785D01*
X162060000Y-72516547D01*
X162107619Y-72373690D01*
X162107619Y-72278452D01*
X162060000Y-72135595D01*
X162012380Y-72087976D01*
X153487619Y-74183214D02*
X154487619Y-74183214D01*
X154487619Y-73945119D01*
X154440000Y-73802261D01*
X154344761Y-73707023D01*
X154249523Y-73659404D01*
X154059047Y-73611785D01*
X153916190Y-73611785D01*
X153725714Y-73659404D01*
X153630476Y-73707023D01*
X153535238Y-73802261D01*
X153487619Y-73945119D01*
X153487619Y-74183214D01*
X153487619Y-73183214D02*
X154487619Y-73183214D01*
X153487619Y-72707023D02*
X154487619Y-72707023D01*
X153487619Y-72135595D01*
X154487619Y-72135595D01*
X166711428Y-75183214D02*
X166663809Y-75040357D01*
X166616190Y-74992738D01*
X166520952Y-74945119D01*
X166378095Y-74945119D01*
X166282857Y-74992738D01*
X166235238Y-75040357D01*
X166187619Y-75135595D01*
X166187619Y-75516547D01*
X167187619Y-75516547D01*
X167187619Y-75183214D01*
X167140000Y-75087976D01*
X167092380Y-75040357D01*
X166997142Y-74992738D01*
X166901904Y-74992738D01*
X166806666Y-75040357D01*
X166759047Y-75087976D01*
X166711428Y-75183214D01*
X166711428Y-75516547D01*
X167187619Y-74516547D02*
X166378095Y-74516547D01*
X166282857Y-74468928D01*
X166235238Y-74421309D01*
X166187619Y-74326071D01*
X166187619Y-74135595D01*
X166235238Y-74040357D01*
X166282857Y-73992738D01*
X166378095Y-73945119D01*
X167187619Y-73945119D01*
X166235238Y-73516547D02*
X166187619Y-73373690D01*
X166187619Y-73135595D01*
X166235238Y-73040357D01*
X166282857Y-72992738D01*
X166378095Y-72945119D01*
X166473333Y-72945119D01*
X166568571Y-72992738D01*
X166616190Y-73040357D01*
X166663809Y-73135595D01*
X166711428Y-73326071D01*
X166759047Y-73421309D01*
X166806666Y-73468928D01*
X166901904Y-73516547D01*
X166997142Y-73516547D01*
X167092380Y-73468928D01*
X167140000Y-73421309D01*
X167187619Y-73326071D01*
X167187619Y-73087976D01*
X167140000Y-72945119D01*
X166663809Y-72326071D02*
X166187619Y-72326071D01*
X167187619Y-72659404D02*
X166663809Y-72326071D01*
X167187619Y-71992738D01*
X163647619Y-73802261D02*
X164123809Y-74135595D01*
X163647619Y-74373690D02*
X164647619Y-74373690D01*
X164647619Y-73992738D01*
X164600000Y-73897500D01*
X164552380Y-73849880D01*
X164457142Y-73802261D01*
X164314285Y-73802261D01*
X164219047Y-73849880D01*
X164171428Y-73897500D01*
X164123809Y-73992738D01*
X164123809Y-74373690D01*
X163695238Y-73421309D02*
X163647619Y-73278452D01*
X163647619Y-73040357D01*
X163695238Y-72945119D01*
X163742857Y-72897500D01*
X163838095Y-72849880D01*
X163933333Y-72849880D01*
X164028571Y-72897500D01*
X164076190Y-72945119D01*
X164123809Y-73040357D01*
X164171428Y-73230833D01*
X164219047Y-73326071D01*
X164266666Y-73373690D01*
X164361904Y-73421309D01*
X164457142Y-73421309D01*
X164552380Y-73373690D01*
X164600000Y-73326071D01*
X164647619Y-73230833D01*
X164647619Y-72992738D01*
X164600000Y-72849880D01*
X164647619Y-72564166D02*
X164647619Y-71992738D01*
X163647619Y-72278452D02*
X164647619Y-72278452D01*
%TO.C,C14*%
X162456605Y-88779652D02*
X162418510Y-88817748D01*
X162380415Y-88932033D01*
X162380415Y-89008224D01*
X162418510Y-89122510D01*
X162494700Y-89198700D01*
X162570891Y-89236795D01*
X162723272Y-89274891D01*
X162837558Y-89274891D01*
X162989939Y-89236795D01*
X163066129Y-89198700D01*
X163142320Y-89122510D01*
X163180415Y-89008224D01*
X163180415Y-88932033D01*
X163142320Y-88817748D01*
X163104224Y-88779652D01*
X162380415Y-88017748D02*
X162380415Y-88474891D01*
X162380415Y-88246319D02*
X163180415Y-88246319D01*
X163066129Y-88322510D01*
X162989939Y-88398700D01*
X162951843Y-88474891D01*
X162913748Y-87332033D02*
X162380415Y-87332033D01*
X163218510Y-87522510D02*
X162647081Y-87712986D01*
X162647081Y-87217748D01*
%TO.C,C10*%
X157206605Y-83579652D02*
X157168510Y-83617748D01*
X157130415Y-83732033D01*
X157130415Y-83808224D01*
X157168510Y-83922510D01*
X157244700Y-83998700D01*
X157320891Y-84036795D01*
X157473272Y-84074891D01*
X157587558Y-84074891D01*
X157739939Y-84036795D01*
X157816129Y-83998700D01*
X157892320Y-83922510D01*
X157930415Y-83808224D01*
X157930415Y-83732033D01*
X157892320Y-83617748D01*
X157854224Y-83579652D01*
X157130415Y-82817748D02*
X157130415Y-83274891D01*
X157130415Y-83046319D02*
X157930415Y-83046319D01*
X157816129Y-83122510D01*
X157739939Y-83198700D01*
X157701843Y-83274891D01*
X157930415Y-82322510D02*
X157930415Y-82246319D01*
X157892320Y-82170129D01*
X157854224Y-82132033D01*
X157778034Y-82093938D01*
X157625653Y-82055843D01*
X157435177Y-82055843D01*
X157282796Y-82093938D01*
X157206605Y-82132033D01*
X157168510Y-82170129D01*
X157130415Y-82246319D01*
X157130415Y-82322510D01*
X157168510Y-82398700D01*
X157206605Y-82436795D01*
X157282796Y-82474891D01*
X157435177Y-82512986D01*
X157625653Y-82512986D01*
X157778034Y-82474891D01*
X157854224Y-82436795D01*
X157892320Y-82398700D01*
X157930415Y-82322510D01*
%TO.C,D1*%
X160640575Y-80899304D02*
X161440575Y-80899304D01*
X161440575Y-80708828D01*
X161402480Y-80594542D01*
X161326289Y-80518351D01*
X161250099Y-80480256D01*
X161097718Y-80442161D01*
X160983432Y-80442161D01*
X160831051Y-80480256D01*
X160754860Y-80518351D01*
X160678670Y-80594542D01*
X160640575Y-80708828D01*
X160640575Y-80899304D01*
X160640575Y-79680256D02*
X160640575Y-80137399D01*
X160640575Y-79908828D02*
X161440575Y-79908828D01*
X161326289Y-79985018D01*
X161250099Y-80061208D01*
X161212003Y-80137399D01*
%TO.C,C8*%
X154706605Y-83529652D02*
X154668510Y-83567748D01*
X154630415Y-83682033D01*
X154630415Y-83758224D01*
X154668510Y-83872510D01*
X154744700Y-83948700D01*
X154820891Y-83986795D01*
X154973272Y-84024891D01*
X155087558Y-84024891D01*
X155239939Y-83986795D01*
X155316129Y-83948700D01*
X155392320Y-83872510D01*
X155430415Y-83758224D01*
X155430415Y-83682033D01*
X155392320Y-83567748D01*
X155354224Y-83529652D01*
X155087558Y-83072510D02*
X155125653Y-83148700D01*
X155163748Y-83186795D01*
X155239939Y-83224891D01*
X155278034Y-83224891D01*
X155354224Y-83186795D01*
X155392320Y-83148700D01*
X155430415Y-83072510D01*
X155430415Y-82920129D01*
X155392320Y-82843938D01*
X155354224Y-82805843D01*
X155278034Y-82767748D01*
X155239939Y-82767748D01*
X155163748Y-82805843D01*
X155125653Y-82843938D01*
X155087558Y-82920129D01*
X155087558Y-83072510D01*
X155049462Y-83148700D01*
X155011367Y-83186795D01*
X154935177Y-83224891D01*
X154782796Y-83224891D01*
X154706605Y-83186795D01*
X154668510Y-83148700D01*
X154630415Y-83072510D01*
X154630415Y-82920129D01*
X154668510Y-82843938D01*
X154706605Y-82805843D01*
X154782796Y-82767748D01*
X154935177Y-82767748D01*
X155011367Y-82805843D01*
X155049462Y-82843938D01*
X155087558Y-82920129D01*
%TO.C,C13*%
X161556605Y-83579652D02*
X161518510Y-83617748D01*
X161480415Y-83732033D01*
X161480415Y-83808224D01*
X161518510Y-83922510D01*
X161594700Y-83998700D01*
X161670891Y-84036795D01*
X161823272Y-84074891D01*
X161937558Y-84074891D01*
X162089939Y-84036795D01*
X162166129Y-83998700D01*
X162242320Y-83922510D01*
X162280415Y-83808224D01*
X162280415Y-83732033D01*
X162242320Y-83617748D01*
X162204224Y-83579652D01*
X161480415Y-82817748D02*
X161480415Y-83274891D01*
X161480415Y-83046319D02*
X162280415Y-83046319D01*
X162166129Y-83122510D01*
X162089939Y-83198700D01*
X162051843Y-83274891D01*
X162280415Y-82551081D02*
X162280415Y-82055843D01*
X161975653Y-82322510D01*
X161975653Y-82208224D01*
X161937558Y-82132033D01*
X161899462Y-82093938D01*
X161823272Y-82055843D01*
X161632796Y-82055843D01*
X161556605Y-82093938D01*
X161518510Y-82132033D01*
X161480415Y-82208224D01*
X161480415Y-82436795D01*
X161518510Y-82512986D01*
X161556605Y-82551081D01*
%TO.C,C1*%
X151506605Y-88829652D02*
X151468510Y-88867748D01*
X151430415Y-88982033D01*
X151430415Y-89058224D01*
X151468510Y-89172510D01*
X151544700Y-89248700D01*
X151620891Y-89286795D01*
X151773272Y-89324891D01*
X151887558Y-89324891D01*
X152039939Y-89286795D01*
X152116129Y-89248700D01*
X152192320Y-89172510D01*
X152230415Y-89058224D01*
X152230415Y-88982033D01*
X152192320Y-88867748D01*
X152154224Y-88829652D01*
X151430415Y-88067748D02*
X151430415Y-88524891D01*
X151430415Y-88296319D02*
X152230415Y-88296319D01*
X152116129Y-88372510D01*
X152039939Y-88448700D01*
X152001843Y-88524891D01*
%TO.C,C9*%
X155606605Y-88829652D02*
X155568510Y-88867748D01*
X155530415Y-88982033D01*
X155530415Y-89058224D01*
X155568510Y-89172510D01*
X155644700Y-89248700D01*
X155720891Y-89286795D01*
X155873272Y-89324891D01*
X155987558Y-89324891D01*
X156139939Y-89286795D01*
X156216129Y-89248700D01*
X156292320Y-89172510D01*
X156330415Y-89058224D01*
X156330415Y-88982033D01*
X156292320Y-88867748D01*
X156254224Y-88829652D01*
X155530415Y-88448700D02*
X155530415Y-88296319D01*
X155568510Y-88220129D01*
X155606605Y-88182033D01*
X155720891Y-88105843D01*
X155873272Y-88067748D01*
X156178034Y-88067748D01*
X156254224Y-88105843D01*
X156292320Y-88143938D01*
X156330415Y-88220129D01*
X156330415Y-88372510D01*
X156292320Y-88448700D01*
X156254224Y-88486795D01*
X156178034Y-88524891D01*
X155987558Y-88524891D01*
X155911367Y-88486795D01*
X155873272Y-88448700D01*
X155835177Y-88372510D01*
X155835177Y-88220129D01*
X155873272Y-88143938D01*
X155911367Y-88105843D01*
X155987558Y-88067748D01*
%TO.C,C5*%
X149906605Y-88829652D02*
X149868510Y-88867748D01*
X149830415Y-88982033D01*
X149830415Y-89058224D01*
X149868510Y-89172510D01*
X149944700Y-89248700D01*
X150020891Y-89286795D01*
X150173272Y-89324891D01*
X150287558Y-89324891D01*
X150439939Y-89286795D01*
X150516129Y-89248700D01*
X150592320Y-89172510D01*
X150630415Y-89058224D01*
X150630415Y-88982033D01*
X150592320Y-88867748D01*
X150554224Y-88829652D01*
X150630415Y-88105843D02*
X150630415Y-88486795D01*
X150249462Y-88524891D01*
X150287558Y-88486795D01*
X150325653Y-88410605D01*
X150325653Y-88220129D01*
X150287558Y-88143938D01*
X150249462Y-88105843D01*
X150173272Y-88067748D01*
X149982796Y-88067748D01*
X149906605Y-88105843D01*
X149868510Y-88143938D01*
X149830415Y-88220129D01*
X149830415Y-88410605D01*
X149868510Y-88486795D01*
X149906605Y-88524891D01*
%TO.C,C12*%
X159906605Y-88829652D02*
X159868510Y-88867748D01*
X159830415Y-88982033D01*
X159830415Y-89058224D01*
X159868510Y-89172510D01*
X159944700Y-89248700D01*
X160020891Y-89286795D01*
X160173272Y-89324891D01*
X160287558Y-89324891D01*
X160439939Y-89286795D01*
X160516129Y-89248700D01*
X160592320Y-89172510D01*
X160630415Y-89058224D01*
X160630415Y-88982033D01*
X160592320Y-88867748D01*
X160554224Y-88829652D01*
X159830415Y-88067748D02*
X159830415Y-88524891D01*
X159830415Y-88296319D02*
X160630415Y-88296319D01*
X160516129Y-88372510D01*
X160439939Y-88448700D01*
X160401843Y-88524891D01*
X160554224Y-87762986D02*
X160592320Y-87724891D01*
X160630415Y-87648700D01*
X160630415Y-87458224D01*
X160592320Y-87382033D01*
X160554224Y-87343938D01*
X160478034Y-87305843D01*
X160401843Y-87305843D01*
X160287558Y-87343938D01*
X159830415Y-87801081D01*
X159830415Y-87305843D01*
%TO.C,C7*%
X153106605Y-83529652D02*
X153068510Y-83567748D01*
X153030415Y-83682033D01*
X153030415Y-83758224D01*
X153068510Y-83872510D01*
X153144700Y-83948700D01*
X153220891Y-83986795D01*
X153373272Y-84024891D01*
X153487558Y-84024891D01*
X153639939Y-83986795D01*
X153716129Y-83948700D01*
X153792320Y-83872510D01*
X153830415Y-83758224D01*
X153830415Y-83682033D01*
X153792320Y-83567748D01*
X153754224Y-83529652D01*
X153830415Y-83262986D02*
X153830415Y-82729652D01*
X153030415Y-83072510D01*
%TO.C,C11*%
X159956605Y-83579652D02*
X159918510Y-83617748D01*
X159880415Y-83732033D01*
X159880415Y-83808224D01*
X159918510Y-83922510D01*
X159994700Y-83998700D01*
X160070891Y-84036795D01*
X160223272Y-84074891D01*
X160337558Y-84074891D01*
X160489939Y-84036795D01*
X160566129Y-83998700D01*
X160642320Y-83922510D01*
X160680415Y-83808224D01*
X160680415Y-83732033D01*
X160642320Y-83617748D01*
X160604224Y-83579652D01*
X159880415Y-82817748D02*
X159880415Y-83274891D01*
X159880415Y-83046319D02*
X160680415Y-83046319D01*
X160566129Y-83122510D01*
X160489939Y-83198700D01*
X160451843Y-83274891D01*
X159880415Y-82055843D02*
X159880415Y-82512986D01*
X159880415Y-82284414D02*
X160680415Y-82284414D01*
X160566129Y-82360605D01*
X160489939Y-82436795D01*
X160451843Y-82512986D01*
%TO.C,C2*%
X149906605Y-83529652D02*
X149868510Y-83567748D01*
X149830415Y-83682033D01*
X149830415Y-83758224D01*
X149868510Y-83872510D01*
X149944700Y-83948700D01*
X150020891Y-83986795D01*
X150173272Y-84024891D01*
X150287558Y-84024891D01*
X150439939Y-83986795D01*
X150516129Y-83948700D01*
X150592320Y-83872510D01*
X150630415Y-83758224D01*
X150630415Y-83682033D01*
X150592320Y-83567748D01*
X150554224Y-83529652D01*
X150554224Y-83224891D02*
X150592320Y-83186795D01*
X150630415Y-83110605D01*
X150630415Y-82920129D01*
X150592320Y-82843938D01*
X150554224Y-82805843D01*
X150478034Y-82767748D01*
X150401843Y-82767748D01*
X150287558Y-82805843D01*
X149830415Y-83262986D01*
X149830415Y-82767748D01*
%TO.C,C3*%
X151506605Y-83529652D02*
X151468510Y-83567748D01*
X151430415Y-83682033D01*
X151430415Y-83758224D01*
X151468510Y-83872510D01*
X151544700Y-83948700D01*
X151620891Y-83986795D01*
X151773272Y-84024891D01*
X151887558Y-84024891D01*
X152039939Y-83986795D01*
X152116129Y-83948700D01*
X152192320Y-83872510D01*
X152230415Y-83758224D01*
X152230415Y-83682033D01*
X152192320Y-83567748D01*
X152154224Y-83529652D01*
X152230415Y-83262986D02*
X152230415Y-82767748D01*
X151925653Y-83034414D01*
X151925653Y-82920129D01*
X151887558Y-82843938D01*
X151849462Y-82805843D01*
X151773272Y-82767748D01*
X151582796Y-82767748D01*
X151506605Y-82805843D01*
X151468510Y-82843938D01*
X151430415Y-82920129D01*
X151430415Y-83148700D01*
X151468510Y-83224891D01*
X151506605Y-83262986D01*
%TO.C,C6*%
X153106605Y-88829652D02*
X153068510Y-88867748D01*
X153030415Y-88982033D01*
X153030415Y-89058224D01*
X153068510Y-89172510D01*
X153144700Y-89248700D01*
X153220891Y-89286795D01*
X153373272Y-89324891D01*
X153487558Y-89324891D01*
X153639939Y-89286795D01*
X153716129Y-89248700D01*
X153792320Y-89172510D01*
X153830415Y-89058224D01*
X153830415Y-88982033D01*
X153792320Y-88867748D01*
X153754224Y-88829652D01*
X153830415Y-88143938D02*
X153830415Y-88296319D01*
X153792320Y-88372510D01*
X153754224Y-88410605D01*
X153639939Y-88486795D01*
X153487558Y-88524891D01*
X153182796Y-88524891D01*
X153106605Y-88486795D01*
X153068510Y-88448700D01*
X153030415Y-88372510D01*
X153030415Y-88220129D01*
X153068510Y-88143938D01*
X153106605Y-88105843D01*
X153182796Y-88067748D01*
X153373272Y-88067748D01*
X153449462Y-88105843D01*
X153487558Y-88143938D01*
X153525653Y-88220129D01*
X153525653Y-88372510D01*
X153487558Y-88448700D01*
X153449462Y-88486795D01*
X153373272Y-88524891D01*
%TO.C,C4*%
X157206605Y-88829652D02*
X157168510Y-88867748D01*
X157130415Y-88982033D01*
X157130415Y-89058224D01*
X157168510Y-89172510D01*
X157244700Y-89248700D01*
X157320891Y-89286795D01*
X157473272Y-89324891D01*
X157587558Y-89324891D01*
X157739939Y-89286795D01*
X157816129Y-89248700D01*
X157892320Y-89172510D01*
X157930415Y-89058224D01*
X157930415Y-88982033D01*
X157892320Y-88867748D01*
X157854224Y-88829652D01*
X157663748Y-88143938D02*
X157130415Y-88143938D01*
X157968510Y-88334414D02*
X157397081Y-88524891D01*
X157397081Y-88029652D01*
%TO.C,J1*%
X158083333Y-97652380D02*
X158083333Y-98366666D01*
X158130952Y-98509523D01*
X158226190Y-98604761D01*
X158369047Y-98652380D01*
X158464285Y-98652380D01*
X157083333Y-98652380D02*
X157654761Y-98652380D01*
X157369047Y-98652380D02*
X157369047Y-97652380D01*
X157464285Y-97795238D01*
X157559523Y-97890476D01*
X157654761Y-97938095D01*
%TO.C,C16*%
X164956605Y-83579652D02*
X164918510Y-83617748D01*
X164880415Y-83732033D01*
X164880415Y-83808224D01*
X164918510Y-83922510D01*
X164994700Y-83998700D01*
X165070891Y-84036795D01*
X165223272Y-84074891D01*
X165337558Y-84074891D01*
X165489939Y-84036795D01*
X165566129Y-83998700D01*
X165642320Y-83922510D01*
X165680415Y-83808224D01*
X165680415Y-83732033D01*
X165642320Y-83617748D01*
X165604224Y-83579652D01*
X164880415Y-82817748D02*
X164880415Y-83274891D01*
X164880415Y-83046319D02*
X165680415Y-83046319D01*
X165566129Y-83122510D01*
X165489939Y-83198700D01*
X165451843Y-83274891D01*
X165680415Y-82132033D02*
X165680415Y-82284414D01*
X165642320Y-82360605D01*
X165604224Y-82398700D01*
X165489939Y-82474891D01*
X165337558Y-82512986D01*
X165032796Y-82512986D01*
X164956605Y-82474891D01*
X164918510Y-82436795D01*
X164880415Y-82360605D01*
X164880415Y-82208224D01*
X164918510Y-82132033D01*
X164956605Y-82093938D01*
X165032796Y-82055843D01*
X165223272Y-82055843D01*
X165299462Y-82093938D01*
X165337558Y-82132033D01*
X165375653Y-82208224D01*
X165375653Y-82360605D01*
X165337558Y-82436795D01*
X165299462Y-82474891D01*
X165223272Y-82512986D01*
%TO.C,C17*%
X164906605Y-88729652D02*
X164868510Y-88767748D01*
X164830415Y-88882033D01*
X164830415Y-88958224D01*
X164868510Y-89072510D01*
X164944700Y-89148700D01*
X165020891Y-89186795D01*
X165173272Y-89224891D01*
X165287558Y-89224891D01*
X165439939Y-89186795D01*
X165516129Y-89148700D01*
X165592320Y-89072510D01*
X165630415Y-88958224D01*
X165630415Y-88882033D01*
X165592320Y-88767748D01*
X165554224Y-88729652D01*
X164830415Y-87967748D02*
X164830415Y-88424891D01*
X164830415Y-88196319D02*
X165630415Y-88196319D01*
X165516129Y-88272510D01*
X165439939Y-88348700D01*
X165401843Y-88424891D01*
X165630415Y-87701081D02*
X165630415Y-87167748D01*
X164830415Y-87510605D01*
%TO.C,C15*%
X163256605Y-83579652D02*
X163218510Y-83617748D01*
X163180415Y-83732033D01*
X163180415Y-83808224D01*
X163218510Y-83922510D01*
X163294700Y-83998700D01*
X163370891Y-84036795D01*
X163523272Y-84074891D01*
X163637558Y-84074891D01*
X163789939Y-84036795D01*
X163866129Y-83998700D01*
X163942320Y-83922510D01*
X163980415Y-83808224D01*
X163980415Y-83732033D01*
X163942320Y-83617748D01*
X163904224Y-83579652D01*
X163180415Y-82817748D02*
X163180415Y-83274891D01*
X163180415Y-83046319D02*
X163980415Y-83046319D01*
X163866129Y-83122510D01*
X163789939Y-83198700D01*
X163751843Y-83274891D01*
X163980415Y-82093938D02*
X163980415Y-82474891D01*
X163599462Y-82512986D01*
X163637558Y-82474891D01*
X163675653Y-82398700D01*
X163675653Y-82208224D01*
X163637558Y-82132033D01*
X163599462Y-82093938D01*
X163523272Y-82055843D01*
X163332796Y-82055843D01*
X163256605Y-82093938D01*
X163218510Y-82132033D01*
X163180415Y-82208224D01*
X163180415Y-82398700D01*
X163218510Y-82474891D01*
X163256605Y-82512986D01*
D11*
%TO.C,C14*%
X162202320Y-90859192D02*
X162202320Y-91140352D01*
X163222320Y-90859192D02*
X163222320Y-91140352D01*
%TO.C,C10*%
X158002320Y-85684192D02*
X158002320Y-85965352D01*
X156982320Y-85684192D02*
X156982320Y-85965352D01*
%TO.C,D1*%
X159934200Y-81340200D02*
X156034200Y-81340200D01*
X159934200Y-79340200D02*
X159934200Y-81340200D01*
X159934200Y-79340200D02*
X156034200Y-79340200D01*
%TO.C,C8*%
X154482320Y-85634192D02*
X154482320Y-85915352D01*
X155502320Y-85634192D02*
X155502320Y-85915352D01*
%TO.C,C13*%
X161352320Y-85965352D02*
X161352320Y-85684192D01*
X162372320Y-85965352D02*
X162372320Y-85684192D01*
%TO.C,C1*%
X152302320Y-91215352D02*
X152302320Y-90934192D01*
X151282320Y-91215352D02*
X151282320Y-90934192D01*
%TO.C,C9*%
X156402320Y-90934192D02*
X156402320Y-91215352D01*
X155382320Y-90934192D02*
X155382320Y-91215352D01*
%TO.C,C5*%
X150702320Y-91215352D02*
X150702320Y-90934192D01*
X149682320Y-91215352D02*
X149682320Y-90934192D01*
%TO.C,C12*%
X159702320Y-90884192D02*
X159702320Y-91165352D01*
X160722320Y-90884192D02*
X160722320Y-91165352D01*
%TO.C,C7*%
X152882320Y-85634192D02*
X152882320Y-85915352D01*
X153902320Y-85634192D02*
X153902320Y-85915352D01*
%TO.C,C11*%
X160722320Y-85965352D02*
X160722320Y-85684192D01*
X159702320Y-85965352D02*
X159702320Y-85684192D01*
%TO.C,C2*%
X149682320Y-85634508D02*
X149682320Y-85915668D01*
X150702320Y-85634508D02*
X150702320Y-85915668D01*
%TO.C,C3*%
X152302320Y-85634508D02*
X152302320Y-85915668D01*
X151282320Y-85634508D02*
X151282320Y-85915668D01*
%TO.C,C6*%
X153902320Y-90934192D02*
X153902320Y-91215352D01*
X152882320Y-90934192D02*
X152882320Y-91215352D01*
%TO.C,C4*%
X158002320Y-90934192D02*
X158002320Y-91215352D01*
X156982320Y-90934192D02*
X156982320Y-91215352D01*
D12*
%TO.C,J1*%
X148350000Y-96800000D02*
X148350000Y-95400000D01*
X148350000Y-95400000D02*
X149628000Y-95400000D01*
D11*
X165522000Y-95400000D02*
X167150000Y-95400000D01*
D12*
X167150000Y-100000000D02*
X167150000Y-100500000D01*
D11*
X165522000Y-95400000D02*
X165522000Y-94450000D01*
D12*
X167150000Y-96800000D02*
X167150000Y-95400000D01*
X148350000Y-100500000D02*
X148350000Y-100000000D01*
X167150000Y-100500000D02*
X148350000Y-100500000D01*
D11*
%TO.C,C16*%
X165722320Y-85684192D02*
X165722320Y-85965352D01*
X164702320Y-85684192D02*
X164702320Y-85965352D01*
%TO.C,C17*%
X164702320Y-90834192D02*
X164702320Y-91115352D01*
X165722320Y-90834192D02*
X165722320Y-91115352D01*
%TO.C,C15*%
X164022320Y-85684192D02*
X164022320Y-85965352D01*
X163002320Y-85684192D02*
X163002320Y-85965352D01*
%TD*%
%LPC*%
D13*
%TO.C,C14*%
X162712320Y-90224772D03*
X162712320Y-91774772D03*
%TD*%
%TO.C,C10*%
X157492320Y-85049772D03*
X157492320Y-86599772D03*
%TD*%
D14*
%TO.C,D1*%
X159334200Y-80340200D03*
X156034200Y-80340200D03*
%TD*%
D13*
%TO.C,C8*%
X154992320Y-84999772D03*
X154992320Y-86549772D03*
%TD*%
D15*
%TO.C,C13*%
X161862320Y-86599772D03*
X161862320Y-85049772D03*
%TD*%
%TO.C,C1*%
X151792320Y-91849772D03*
X151792320Y-90299772D03*
%TD*%
D13*
%TO.C,C9*%
X155892320Y-90299772D03*
X155892320Y-91849772D03*
%TD*%
D15*
%TO.C,C5*%
X150192320Y-91849772D03*
X150192320Y-90299772D03*
%TD*%
D13*
%TO.C,C12*%
X160212320Y-90249772D03*
X160212320Y-91799772D03*
%TD*%
%TO.C,C7*%
X153392320Y-84999772D03*
X153392320Y-86549772D03*
%TD*%
D15*
%TO.C,C11*%
X160212320Y-86599772D03*
X160212320Y-85049772D03*
%TD*%
D13*
%TO.C,C2*%
X150192320Y-85000088D03*
X150192320Y-86550088D03*
%TD*%
%TO.C,C3*%
X151792320Y-85000088D03*
X151792320Y-86550088D03*
%TD*%
%TO.C,C6*%
X153392320Y-90299772D03*
X153392320Y-91849772D03*
%TD*%
%TO.C,C4*%
X157492320Y-90299772D03*
X157492320Y-91849772D03*
%TD*%
D16*
%TO.C,J1*%
X165000000Y-95200000D03*
X164500000Y-95200000D03*
X164000000Y-95200000D03*
X163500000Y-95200000D03*
X163000000Y-95200000D03*
X162500000Y-95200000D03*
X162000000Y-95200000D03*
X161500000Y-95200000D03*
X161000000Y-95200000D03*
X160500000Y-95200000D03*
X160000000Y-95200000D03*
X159500000Y-95200000D03*
X159000000Y-95200000D03*
X158500000Y-95200000D03*
X158000000Y-95200000D03*
X157500000Y-95200000D03*
X157000000Y-95200000D03*
X156500000Y-95200000D03*
X156000000Y-95200000D03*
X155500000Y-95200000D03*
X155000000Y-95200000D03*
X154500000Y-95200000D03*
X154000000Y-95200000D03*
X153500000Y-95200000D03*
X153000000Y-95200000D03*
X152500000Y-95200000D03*
X152000000Y-95200000D03*
X151500000Y-95200000D03*
X151000000Y-95200000D03*
X150500000Y-95200000D03*
D17*
X149200000Y-98400000D03*
X166300000Y-98400000D03*
%TD*%
D13*
%TO.C,C16*%
X165212320Y-85049772D03*
X165212320Y-86599772D03*
%TD*%
%TO.C,C17*%
X165212320Y-90199772D03*
X165212320Y-91749772D03*
%TD*%
%TO.C,C15*%
X163512320Y-85049772D03*
X163512320Y-86599772D03*
%TD*%
D18*
%TO.C,J2*%
X148860000Y-70300000D03*
X151400000Y-70300000D03*
X153940000Y-70300000D03*
X156480000Y-70300000D03*
X159020000Y-70300000D03*
X161560000Y-70300000D03*
X164100000Y-70300000D03*
X166640000Y-70300000D03*
%TD*%
D19*
X162830000Y-77780000D03*
X162830000Y-75240000D03*
X165370000Y-77780000D03*
X150130000Y-72700000D03*
X165370000Y-72700000D03*
X162737800Y-89200000D03*
X160290000Y-80320000D03*
X162830000Y-101900000D03*
X157750000Y-75240000D03*
X152670000Y-101900000D03*
X150190200Y-89204800D03*
X160223200Y-89204800D03*
X162830000Y-80320000D03*
X152670000Y-80320000D03*
X155210000Y-75240000D03*
X165370000Y-96820000D03*
X165227000Y-83950000D03*
X165370000Y-75240000D03*
X152670000Y-77780000D03*
X160290000Y-83950000D03*
X160290000Y-101900000D03*
X157750000Y-77780000D03*
X152670000Y-72700000D03*
X155879800Y-89204800D03*
X155210000Y-77780000D03*
X157750000Y-83950000D03*
X162830000Y-72700000D03*
X163525200Y-83947000D03*
X155210000Y-72700000D03*
X150190200Y-83950000D03*
X157750000Y-101900000D03*
X155210000Y-83950000D03*
X165370000Y-80320000D03*
X150130000Y-75240000D03*
X157505400Y-89204800D03*
X150130000Y-80320000D03*
X155210000Y-101900000D03*
X150130000Y-96820000D03*
X162830000Y-96820000D03*
X165303200Y-89200000D03*
X160290000Y-75240000D03*
X151790400Y-89204800D03*
X157750000Y-96820000D03*
X152670000Y-75240000D03*
X150130000Y-101900000D03*
X160290000Y-96820000D03*
X151790400Y-83947000D03*
X165370000Y-101900000D03*
X157750000Y-72700000D03*
X150130000Y-77780000D03*
X160290000Y-72700000D03*
X160290000Y-77780000D03*
X157750000Y-80320000D03*
X152000000Y-98825000D03*
X152800000Y-98825000D03*
X153600000Y-98825000D03*
X154400000Y-98825000D03*
X155200000Y-98825000D03*
X156000000Y-98825000D03*
M02*
