%TF.GenerationSoftware,KiCad,Pcbnew,(6.0.6)*%
%TF.CreationDate,2022-07-16T21:02:27+02:00*%
%TF.ProjectId,epd,6570642e-6b69-4636-9164-5f7063625858,rev?*%
%TF.SameCoordinates,Original*%
%TF.FileFunction,Other,Comment*%
%FSLAX46Y46*%
G04 Gerber Fmt 4.6, Leading zero omitted, Abs format (unit mm)*
G04 Created by KiCad (PCBNEW (6.0.6)) date 2022-07-16 21:02:27*
%MOMM*%
%LPD*%
G01*
G04 APERTURE LIST*
%ADD10C,0.150000*%
%ADD11C,0.080000*%
G04 APERTURE END LIST*
D10*
X171000000Y-69150000D02*
X171000000Y-107650000D01*
X171000000Y-69150000D02*
X170500000Y-69850000D01*
D11*
X167550000Y-105400000D02*
X167550000Y-110200000D01*
D10*
X167500000Y-109500000D02*
X166800000Y-110000000D01*
X167500000Y-109500000D02*
X166800000Y-109000000D01*
X148000000Y-109500000D02*
X148700000Y-109000000D01*
X148000000Y-109500000D02*
X167450000Y-109500000D01*
X171000000Y-106450000D02*
X171500000Y-105750000D01*
D11*
X147950000Y-105400000D02*
X147950000Y-110200000D01*
D10*
X171000000Y-106450000D02*
X170500000Y-105750000D01*
X148000000Y-109500000D02*
X148700000Y-110000000D01*
D11*
X166350000Y-69100000D02*
X171650000Y-69100000D01*
X166350000Y-106500000D02*
X171650000Y-106500000D01*
D10*
X171000000Y-69150000D02*
X171500000Y-69850000D01*
X156745238Y-110952380D02*
X156173809Y-110952380D01*
X156459523Y-110952380D02*
X156459523Y-109952380D01*
X156364285Y-110095238D01*
X156269047Y-110190476D01*
X156173809Y-110238095D01*
X157221428Y-110952380D02*
X157411904Y-110952380D01*
X157507142Y-110904761D01*
X157554761Y-110857142D01*
X157650000Y-110714285D01*
X157697619Y-110523809D01*
X157697619Y-110142857D01*
X157650000Y-110047619D01*
X157602380Y-110000000D01*
X157507142Y-109952380D01*
X157316666Y-109952380D01*
X157221428Y-110000000D01*
X157173809Y-110047619D01*
X157126190Y-110142857D01*
X157126190Y-110380952D01*
X157173809Y-110476190D01*
X157221428Y-110523809D01*
X157316666Y-110571428D01*
X157507142Y-110571428D01*
X157602380Y-110523809D01*
X157650000Y-110476190D01*
X157697619Y-110380952D01*
X158126190Y-110857142D02*
X158173809Y-110904761D01*
X158126190Y-110952380D01*
X158078571Y-110904761D01*
X158126190Y-110857142D01*
X158126190Y-110952380D01*
X159030952Y-109952380D02*
X158840476Y-109952380D01*
X158745238Y-110000000D01*
X158697619Y-110047619D01*
X158602380Y-110190476D01*
X158554761Y-110380952D01*
X158554761Y-110761904D01*
X158602380Y-110857142D01*
X158650000Y-110904761D01*
X158745238Y-110952380D01*
X158935714Y-110952380D01*
X159030952Y-110904761D01*
X159078571Y-110857142D01*
X159126190Y-110761904D01*
X159126190Y-110523809D01*
X159078571Y-110428571D01*
X159030952Y-110380952D01*
X158935714Y-110333333D01*
X158745238Y-110333333D01*
X158650000Y-110380952D01*
X158602380Y-110428571D01*
X158554761Y-110523809D01*
X171602380Y-89773809D02*
X171602380Y-89154761D01*
X171983333Y-89488095D01*
X171983333Y-89345238D01*
X172030952Y-89250000D01*
X172078571Y-89202380D01*
X172173809Y-89154761D01*
X172411904Y-89154761D01*
X172507142Y-89202380D01*
X172554761Y-89250000D01*
X172602380Y-89345238D01*
X172602380Y-89630952D01*
X172554761Y-89726190D01*
X172507142Y-89773809D01*
X171602380Y-88821428D02*
X171602380Y-88154761D01*
X172602380Y-88583333D01*
X172507142Y-87773809D02*
X172554761Y-87726190D01*
X172602380Y-87773809D01*
X172554761Y-87821428D01*
X172507142Y-87773809D01*
X172602380Y-87773809D01*
X171935714Y-86869047D02*
X172602380Y-86869047D01*
X171554761Y-87107142D02*
X172269047Y-87345238D01*
X172269047Y-86726190D01*
M02*
