%TF.GenerationSoftware,KiCad,Pcbnew,(6.0.6)*%
%TF.CreationDate,2022-07-16T21:02:26+02:00*%
%TF.ProjectId,epd,6570642e-6b69-4636-9164-5f7063625858,rev?*%
%TF.SameCoordinates,Original*%
%TF.FileFunction,Soldermask,Top*%
%TF.FilePolarity,Negative*%
%FSLAX46Y46*%
G04 Gerber Fmt 4.6, Leading zero omitted, Abs format (unit mm)*
G04 Created by KiCad (PCBNEW (6.0.6)) date 2022-07-16 21:02:26*
%MOMM*%
%LPD*%
G01*
G04 APERTURE LIST*
%ADD10O,1.400000X1.700000*%
%ADD11C,0.600000*%
G04 APERTURE END LIST*
D10*
%TO.C,J2*%
X148860000Y-70300000D03*
X151400000Y-70300000D03*
X153940000Y-70300000D03*
X156480000Y-70300000D03*
X159020000Y-70300000D03*
X161560000Y-70300000D03*
X164100000Y-70300000D03*
X166640000Y-70300000D03*
%TD*%
D11*
X162830000Y-77780000D03*
X162830000Y-75240000D03*
X165370000Y-77780000D03*
X150130000Y-72700000D03*
X165370000Y-72700000D03*
X162737800Y-89200000D03*
X160290000Y-80320000D03*
X162830000Y-101900000D03*
X157750000Y-75240000D03*
X152670000Y-101900000D03*
X150190200Y-89204800D03*
X160223200Y-89204800D03*
X162830000Y-80320000D03*
X152670000Y-80320000D03*
X155210000Y-75240000D03*
X165370000Y-96820000D03*
X165227000Y-83950000D03*
X165370000Y-75240000D03*
X152670000Y-77780000D03*
X160290000Y-83950000D03*
X160290000Y-101900000D03*
X157750000Y-77780000D03*
X152670000Y-72700000D03*
X155879800Y-89204800D03*
X155210000Y-77780000D03*
X157750000Y-83950000D03*
X162830000Y-72700000D03*
X163525200Y-83947000D03*
X155210000Y-72700000D03*
X150190200Y-83950000D03*
X157750000Y-101900000D03*
X155210000Y-83950000D03*
X165370000Y-80320000D03*
X150130000Y-75240000D03*
X157505400Y-89204800D03*
X150130000Y-80320000D03*
X155210000Y-101900000D03*
X150130000Y-96820000D03*
X162830000Y-96820000D03*
X165303200Y-89200000D03*
X160290000Y-75240000D03*
X151790400Y-89204800D03*
X157750000Y-96820000D03*
X152670000Y-75240000D03*
X150130000Y-101900000D03*
X160290000Y-96820000D03*
X151790400Y-83947000D03*
X165370000Y-101900000D03*
X157750000Y-72700000D03*
X150130000Y-77780000D03*
X160290000Y-72700000D03*
X160290000Y-77780000D03*
X157750000Y-80320000D03*
X152000000Y-98825000D03*
X152800000Y-98825000D03*
X153600000Y-98825000D03*
X154400000Y-98825000D03*
X155200000Y-98825000D03*
X156000000Y-98825000D03*
M02*
