%TF.GenerationSoftware,KiCad,Pcbnew,(6.0.6)*%
%TF.CreationDate,2022-07-16T21:02:26+02:00*%
%TF.ProjectId,epd,6570642e-6b69-4636-9164-5f7063625858,rev?*%
%TF.SameCoordinates,Original*%
%TF.FileFunction,Copper,L1,Top*%
%TF.FilePolarity,Positive*%
%FSLAX46Y46*%
G04 Gerber Fmt 4.6, Leading zero omitted, Abs format (unit mm)*
G04 Created by KiCad (PCBNEW (6.0.6)) date 2022-07-16 21:02:26*
%MOMM*%
%LPD*%
G01*
G04 APERTURE LIST*
%TA.AperFunction,ComponentPad*%
%ADD10O,1.400000X1.700000*%
%TD*%
%TA.AperFunction,ViaPad*%
%ADD11C,0.600000*%
%TD*%
%TA.AperFunction,Conductor*%
%ADD12C,0.250000*%
%TD*%
G04 APERTURE END LIST*
D10*
%TO.P,J2,1,Pin_1*%
%TO.N,GND*%
X148860000Y-70300000D03*
%TO.P,J2,2,Pin_2*%
%TO.N,+3.3V*%
X151400000Y-70300000D03*
%TO.P,J2,3,Pin_3*%
%TO.N,DIN*%
X153940000Y-70300000D03*
%TO.P,J2,4,Pin_4*%
%TO.N,SCK*%
X156480000Y-70300000D03*
%TO.P,J2,5,Pin_5*%
%TO.N,CS*%
X159020000Y-70300000D03*
%TO.P,J2,6,Pin_6*%
%TO.N,DC*%
X161560000Y-70300000D03*
%TO.P,J2,7,Pin_7*%
%TO.N,RST*%
X164100000Y-70300000D03*
%TO.P,J2,8,Pin_8*%
%TO.N,BUSY*%
X166640000Y-70300000D03*
%TD*%
D11*
%TO.N,GND*%
X162830000Y-77780000D03*
X162830000Y-75240000D03*
X165370000Y-77780000D03*
X150130000Y-72700000D03*
X165370000Y-72700000D03*
X162737800Y-89200000D03*
X160290000Y-80320000D03*
X162830000Y-101900000D03*
X157750000Y-75240000D03*
X152670000Y-101900000D03*
X150190200Y-89204800D03*
X160223200Y-89204800D03*
X162830000Y-80320000D03*
X152670000Y-80320000D03*
X155210000Y-75240000D03*
X165370000Y-96820000D03*
X165227000Y-83950000D03*
X165370000Y-75240000D03*
X152670000Y-77780000D03*
X160290000Y-83950000D03*
X160290000Y-101900000D03*
X157750000Y-77780000D03*
X152670000Y-72700000D03*
X155879800Y-89204800D03*
X155210000Y-77780000D03*
X157750000Y-83950000D03*
X162830000Y-72700000D03*
X163525200Y-83947000D03*
X155210000Y-72700000D03*
X150190200Y-83950000D03*
X157750000Y-101900000D03*
X155210000Y-83950000D03*
X165370000Y-80320000D03*
X150130000Y-75240000D03*
X157505400Y-89204800D03*
X150130000Y-80320000D03*
X155210000Y-101900000D03*
X150130000Y-96820000D03*
X162830000Y-96820000D03*
X165303200Y-89200000D03*
X160290000Y-75240000D03*
X151790400Y-89204800D03*
X157750000Y-96820000D03*
X152670000Y-75240000D03*
X150130000Y-101900000D03*
X160290000Y-96820000D03*
X151790400Y-83947000D03*
X165370000Y-101900000D03*
X157750000Y-72700000D03*
X150130000Y-77780000D03*
X160290000Y-72700000D03*
X160290000Y-77780000D03*
X157750000Y-80320000D03*
%TO.N,DIN*%
X152000000Y-98825000D03*
%TO.N,SCK*%
X152800000Y-98825000D03*
%TO.N,CS*%
X153600000Y-98825000D03*
%TO.N,DC*%
X154400000Y-98825000D03*
%TO.N,RST*%
X155200000Y-98825000D03*
%TO.N,BUSY*%
X156000000Y-98825000D03*
%TD*%
D12*
%TO.N,DIN*%
X152000000Y-98387500D02*
X152000000Y-98825000D01*
X152309359Y-97640640D02*
X153650136Y-96299864D01*
X153940000Y-95600072D02*
X153940000Y-70300000D01*
X153650160Y-96299888D02*
G75*
G03*
X153940000Y-95600072I-699860J699788D01*
G01*
X151999994Y-98387500D02*
G75*
G02*
X152309359Y-97640640I1056206J0D01*
G01*
%TO.N,SCK*%
X152800000Y-98825000D02*
X152800000Y-98362500D01*
X156203627Y-94496370D02*
X153127036Y-97572963D01*
X156480000Y-93829146D02*
X156480000Y-70300000D01*
X156203604Y-94496347D02*
G75*
G03*
X156480000Y-93829146I-667204J667247D01*
G01*
X152800007Y-98362500D02*
G75*
G02*
X153127036Y-97572963I1116593J0D01*
G01*
%TO.N,CS*%
X153600000Y-98825000D02*
X153600000Y-98337500D01*
X159020000Y-91964870D02*
X159020000Y-70300000D01*
X158691104Y-92758895D02*
X153944714Y-97505285D01*
X158691115Y-92758906D02*
G75*
G03*
X159020000Y-91964870I-794015J794006D01*
G01*
X153599991Y-98337500D02*
G75*
G02*
X153944714Y-97505285I1176909J0D01*
G01*
%TO.N,DC*%
X154762392Y-97437607D02*
X161237036Y-90962963D01*
X154400000Y-98312500D02*
X154400000Y-98825000D01*
X161560000Y-90183259D02*
X161560000Y-70300000D01*
X154400004Y-98312500D02*
G75*
G02*
X154762392Y-97437607I1237296J0D01*
G01*
X161237063Y-90962990D02*
G75*
G03*
X161560000Y-90183259I-779763J779690D01*
G01*
%TO.N,RST*%
X155580069Y-97369930D02*
X163821141Y-89128858D01*
X164100000Y-88455633D02*
X164100000Y-70300000D01*
X155200000Y-98825000D02*
X155200000Y-98287500D01*
X155199988Y-98287500D02*
G75*
G02*
X155580069Y-97369930I1297612J0D01*
G01*
X163821128Y-89128845D02*
G75*
G03*
X164100000Y-88455633I-673228J673245D01*
G01*
%TO.N,BUSY*%
X156000000Y-98825000D02*
X156000000Y-98262500D01*
X166336291Y-87363708D02*
X156397747Y-97302252D01*
X166640000Y-86630489D02*
X166640000Y-70300000D01*
X156000001Y-98262500D02*
G75*
G02*
X156397747Y-97302252I1357999J0D01*
G01*
X166336291Y-87363708D02*
G75*
G03*
X166640000Y-86630489I-733191J733208D01*
G01*
%TD*%
%TA.AperFunction,Conductor*%
%TO.N,SCK*%
G36*
X152949687Y-98096278D02*
G01*
X152956753Y-98101778D01*
X152957963Y-98110268D01*
X152941184Y-98180708D01*
X152930641Y-98251479D01*
X152928160Y-98313760D01*
X152932949Y-98369720D01*
X152944216Y-98421528D01*
X152961168Y-98471355D01*
X152983015Y-98521369D01*
X153008964Y-98573740D01*
X153008997Y-98573804D01*
X153038186Y-98630568D01*
X153038247Y-98630688D01*
X153066309Y-98686847D01*
X153066942Y-98695780D01*
X153064277Y-98700185D01*
X152808433Y-98966231D01*
X152800229Y-98969819D01*
X152791567Y-98966231D01*
X152535528Y-98699982D01*
X152532263Y-98691643D01*
X152533329Y-98686988D01*
X152562981Y-98622447D01*
X152562983Y-98622442D01*
X152563030Y-98622340D01*
X152588652Y-98558795D01*
X152601475Y-98521369D01*
X152608419Y-98501101D01*
X152608424Y-98501086D01*
X152608471Y-98500948D01*
X152616843Y-98471581D01*
X152624054Y-98446283D01*
X152624056Y-98446275D01*
X152624092Y-98446149D01*
X152637121Y-98391747D01*
X152649161Y-98335091D01*
X152661820Y-98273530D01*
X152676674Y-98204540D01*
X152676724Y-98204317D01*
X152695384Y-98125201D01*
X152695454Y-98124923D01*
X152716549Y-98044376D01*
X152721960Y-98037241D01*
X152730973Y-98036060D01*
X152949687Y-98096278D01*
G37*
%TD.AperFunction*%
%TD*%
%TA.AperFunction,Conductor*%
%TO.N,SCK*%
G36*
X156488433Y-69958769D02*
G01*
X157104078Y-70598964D01*
X157107343Y-70607303D01*
X157105938Y-70612637D01*
X157040434Y-70733831D01*
X157039927Y-70734681D01*
X156969725Y-70841809D01*
X156969299Y-70842416D01*
X156899991Y-70934825D01*
X156899800Y-70935072D01*
X156833288Y-71018990D01*
X156771604Y-71100540D01*
X156716792Y-71185851D01*
X156670788Y-71281189D01*
X156635530Y-71392816D01*
X156612955Y-71526999D01*
X156612939Y-71527330D01*
X156612938Y-71527338D01*
X156605543Y-71678870D01*
X156601717Y-71686967D01*
X156593857Y-71690000D01*
X156366143Y-71690000D01*
X156357870Y-71686573D01*
X156354457Y-71678870D01*
X156347061Y-71527338D01*
X156347060Y-71527330D01*
X156347044Y-71526999D01*
X156324469Y-71392816D01*
X156289211Y-71281189D01*
X156243207Y-71185851D01*
X156188395Y-71100540D01*
X156126711Y-71018990D01*
X156060199Y-70935072D01*
X156060008Y-70934825D01*
X155990700Y-70842416D01*
X155990274Y-70841809D01*
X155920072Y-70734681D01*
X155919565Y-70733831D01*
X155854062Y-70612637D01*
X155853143Y-70603730D01*
X155855922Y-70598964D01*
X156471567Y-69958769D01*
X156479771Y-69955181D01*
X156488433Y-69958769D01*
G37*
%TD.AperFunction*%
%TD*%
%TA.AperFunction,Conductor*%
%TO.N,DC*%
G36*
X161568433Y-69958769D02*
G01*
X162184078Y-70598964D01*
X162187343Y-70607303D01*
X162185938Y-70612637D01*
X162120434Y-70733831D01*
X162119927Y-70734681D01*
X162049725Y-70841809D01*
X162049299Y-70842416D01*
X161979991Y-70934825D01*
X161979800Y-70935072D01*
X161913288Y-71018990D01*
X161851604Y-71100540D01*
X161796792Y-71185851D01*
X161750788Y-71281189D01*
X161715530Y-71392816D01*
X161692955Y-71526999D01*
X161692939Y-71527330D01*
X161692938Y-71527338D01*
X161685543Y-71678870D01*
X161681717Y-71686967D01*
X161673857Y-71690000D01*
X161446143Y-71690000D01*
X161437870Y-71686573D01*
X161434457Y-71678870D01*
X161427061Y-71527338D01*
X161427060Y-71527330D01*
X161427044Y-71526999D01*
X161404469Y-71392816D01*
X161369211Y-71281189D01*
X161323207Y-71185851D01*
X161268395Y-71100540D01*
X161206711Y-71018990D01*
X161140199Y-70935072D01*
X161140008Y-70934825D01*
X161070700Y-70842416D01*
X161070274Y-70841809D01*
X161000072Y-70734681D01*
X160999565Y-70733831D01*
X160934062Y-70612637D01*
X160933143Y-70603730D01*
X160935922Y-70598964D01*
X161551567Y-69958769D01*
X161559771Y-69955181D01*
X161568433Y-69958769D01*
G37*
%TD.AperFunction*%
%TD*%
%TA.AperFunction,Conductor*%
%TO.N,CS*%
G36*
X159028433Y-69958769D02*
G01*
X159644078Y-70598964D01*
X159647343Y-70607303D01*
X159645938Y-70612637D01*
X159580434Y-70733831D01*
X159579927Y-70734681D01*
X159509725Y-70841809D01*
X159509299Y-70842416D01*
X159439991Y-70934825D01*
X159439800Y-70935072D01*
X159373288Y-71018990D01*
X159311604Y-71100540D01*
X159256792Y-71185851D01*
X159210788Y-71281189D01*
X159175530Y-71392816D01*
X159152955Y-71526999D01*
X159152939Y-71527330D01*
X159152938Y-71527338D01*
X159145543Y-71678870D01*
X159141717Y-71686967D01*
X159133857Y-71690000D01*
X158906143Y-71690000D01*
X158897870Y-71686573D01*
X158894457Y-71678870D01*
X158887061Y-71527338D01*
X158887060Y-71527330D01*
X158887044Y-71526999D01*
X158864469Y-71392816D01*
X158829211Y-71281189D01*
X158783207Y-71185851D01*
X158728395Y-71100540D01*
X158666711Y-71018990D01*
X158600199Y-70935072D01*
X158600008Y-70934825D01*
X158530700Y-70842416D01*
X158530274Y-70841809D01*
X158460072Y-70734681D01*
X158459565Y-70733831D01*
X158394062Y-70612637D01*
X158393143Y-70603730D01*
X158395922Y-70598964D01*
X159011567Y-69958769D01*
X159019771Y-69955181D01*
X159028433Y-69958769D01*
G37*
%TD.AperFunction*%
%TD*%
%TA.AperFunction,Conductor*%
%TO.N,BUSY*%
G36*
X156143836Y-97989825D02*
G01*
X156151156Y-97994981D01*
X156152748Y-98003513D01*
X156135781Y-98089136D01*
X156124673Y-98173108D01*
X156121170Y-98246837D01*
X156124801Y-98312919D01*
X156135093Y-98373950D01*
X156135177Y-98374248D01*
X156145718Y-98411706D01*
X156151577Y-98432528D01*
X156173780Y-98491248D01*
X156201233Y-98552708D01*
X156201283Y-98552811D01*
X156233463Y-98619504D01*
X156266406Y-98686883D01*
X156266961Y-98695821D01*
X156264328Y-98700132D01*
X156008433Y-98966231D01*
X156000229Y-98969819D01*
X155991567Y-98966231D01*
X155735498Y-98699951D01*
X155732233Y-98691612D01*
X155733274Y-98687011D01*
X155766844Y-98612944D01*
X155766847Y-98612937D01*
X155766909Y-98612800D01*
X155794597Y-98540578D01*
X155814954Y-98474593D01*
X155824959Y-98432528D01*
X155829830Y-98412050D01*
X155829834Y-98412030D01*
X155829872Y-98411871D01*
X155836778Y-98373950D01*
X155841230Y-98349507D01*
X155841233Y-98349489D01*
X155841242Y-98349439D01*
X155850953Y-98284323D01*
X155860889Y-98213616D01*
X155860908Y-98213486D01*
X155872948Y-98134271D01*
X155872994Y-98133993D01*
X155889019Y-98043313D01*
X155889086Y-98042964D01*
X155908618Y-97949179D01*
X155913659Y-97941778D01*
X155922636Y-97940148D01*
X156143836Y-97989825D01*
G37*
%TD.AperFunction*%
%TD*%
%TA.AperFunction,Conductor*%
%TO.N,RST*%
G36*
X155345105Y-98016199D02*
G01*
X155352373Y-98021431D01*
X155353882Y-98029956D01*
X155336963Y-98111830D01*
X155336940Y-98111998D01*
X155336938Y-98112011D01*
X155329276Y-98168496D01*
X155326014Y-98192545D01*
X155322785Y-98263443D01*
X155326725Y-98327018D01*
X155337281Y-98385760D01*
X155353903Y-98442164D01*
X155376037Y-98498721D01*
X155403133Y-98557923D01*
X155403174Y-98558006D01*
X155434637Y-98622263D01*
X155466384Y-98686875D01*
X155466957Y-98695812D01*
X155464316Y-98700145D01*
X155208433Y-98966231D01*
X155200229Y-98969819D01*
X155191567Y-98966231D01*
X154935684Y-98700145D01*
X154935504Y-98699957D01*
X154932239Y-98691619D01*
X154933286Y-98687006D01*
X154965855Y-98615364D01*
X154965921Y-98615219D01*
X154993075Y-98545191D01*
X155013280Y-98481260D01*
X155028353Y-98420532D01*
X155040112Y-98360116D01*
X155050377Y-98297122D01*
X155060963Y-98228657D01*
X155073671Y-98151945D01*
X155073713Y-98151707D01*
X155081268Y-98111830D01*
X155090350Y-98063887D01*
X155090419Y-98063554D01*
X155110289Y-97973122D01*
X155115411Y-97965777D01*
X155124397Y-97964244D01*
X155345105Y-98016199D01*
G37*
%TD.AperFunction*%
%TD*%
%TA.AperFunction,Conductor*%
%TO.N,BUSY*%
G36*
X166648433Y-69958769D02*
G01*
X167264078Y-70598964D01*
X167267343Y-70607303D01*
X167265938Y-70612637D01*
X167200434Y-70733831D01*
X167199927Y-70734681D01*
X167129725Y-70841809D01*
X167129299Y-70842416D01*
X167059991Y-70934825D01*
X167059800Y-70935072D01*
X166993288Y-71018990D01*
X166931604Y-71100540D01*
X166876792Y-71185851D01*
X166830788Y-71281189D01*
X166795530Y-71392816D01*
X166772955Y-71526999D01*
X166772939Y-71527330D01*
X166772938Y-71527338D01*
X166765543Y-71678870D01*
X166761717Y-71686967D01*
X166753857Y-71690000D01*
X166526143Y-71690000D01*
X166517870Y-71686573D01*
X166514457Y-71678870D01*
X166507061Y-71527338D01*
X166507060Y-71527330D01*
X166507044Y-71526999D01*
X166484469Y-71392816D01*
X166449211Y-71281189D01*
X166403207Y-71185851D01*
X166348395Y-71100540D01*
X166286711Y-71018990D01*
X166220199Y-70935072D01*
X166220008Y-70934825D01*
X166150700Y-70842416D01*
X166150274Y-70841809D01*
X166080072Y-70734681D01*
X166079565Y-70733831D01*
X166014062Y-70612637D01*
X166013143Y-70603730D01*
X166015922Y-70598964D01*
X166631567Y-69958769D01*
X166639771Y-69955181D01*
X166648433Y-69958769D01*
G37*
%TD.AperFunction*%
%TD*%
%TA.AperFunction,Conductor*%
%TO.N,RST*%
G36*
X164108433Y-69958769D02*
G01*
X164724078Y-70598964D01*
X164727343Y-70607303D01*
X164725938Y-70612637D01*
X164660434Y-70733831D01*
X164659927Y-70734681D01*
X164589725Y-70841809D01*
X164589299Y-70842416D01*
X164519991Y-70934825D01*
X164519800Y-70935072D01*
X164453288Y-71018990D01*
X164391604Y-71100540D01*
X164336792Y-71185851D01*
X164290788Y-71281189D01*
X164255530Y-71392816D01*
X164232955Y-71526999D01*
X164232939Y-71527330D01*
X164232938Y-71527338D01*
X164225543Y-71678870D01*
X164221717Y-71686967D01*
X164213857Y-71690000D01*
X163986143Y-71690000D01*
X163977870Y-71686573D01*
X163974457Y-71678870D01*
X163967061Y-71527338D01*
X163967060Y-71527330D01*
X163967044Y-71526999D01*
X163944469Y-71392816D01*
X163909211Y-71281189D01*
X163863207Y-71185851D01*
X163808395Y-71100540D01*
X163746711Y-71018990D01*
X163680199Y-70935072D01*
X163680008Y-70934825D01*
X163610700Y-70842416D01*
X163610274Y-70841809D01*
X163540072Y-70734681D01*
X163539565Y-70733831D01*
X163474062Y-70612637D01*
X163473143Y-70603730D01*
X163475922Y-70598964D01*
X164091567Y-69958769D01*
X164099771Y-69955181D01*
X164108433Y-69958769D01*
G37*
%TD.AperFunction*%
%TD*%
%TA.AperFunction,Conductor*%
%TO.N,DC*%
G36*
X154546512Y-98042714D02*
G01*
X154553720Y-98048027D01*
X154555139Y-98056543D01*
X154549180Y-98084126D01*
X154538267Y-98134642D01*
X154527464Y-98212073D01*
X154524496Y-98280123D01*
X154528730Y-98341176D01*
X154539535Y-98397620D01*
X154556279Y-98451842D01*
X154578330Y-98506227D01*
X154605055Y-98563163D01*
X154605101Y-98563256D01*
X154605108Y-98563270D01*
X154635808Y-98625009D01*
X154635822Y-98625037D01*
X154666361Y-98686866D01*
X154666952Y-98695801D01*
X154664304Y-98700157D01*
X154408433Y-98966231D01*
X154400229Y-98969819D01*
X154391567Y-98966231D01*
X154135511Y-98699965D01*
X154132246Y-98691626D01*
X154133299Y-98687000D01*
X154133361Y-98686866D01*
X154164945Y-98617617D01*
X154191578Y-98549769D01*
X154211643Y-98487879D01*
X154211689Y-98487702D01*
X154226852Y-98429270D01*
X154226854Y-98429260D01*
X154226886Y-98429138D01*
X154233453Y-98397620D01*
X154239032Y-98370841D01*
X154239035Y-98370823D01*
X154239054Y-98370734D01*
X154249891Y-98309858D01*
X154261144Y-98243698D01*
X154274542Y-98169536D01*
X154274589Y-98169292D01*
X154291847Y-98084442D01*
X154291916Y-98084126D01*
X154312166Y-97996978D01*
X154317376Y-97989695D01*
X154326371Y-97988268D01*
X154546512Y-98042714D01*
G37*
%TD.AperFunction*%
%TD*%
%TA.AperFunction,Conductor*%
%TO.N,DIN*%
G36*
X153948433Y-69958769D02*
G01*
X154564078Y-70598964D01*
X154567343Y-70607303D01*
X154565938Y-70612637D01*
X154500434Y-70733831D01*
X154499927Y-70734681D01*
X154429725Y-70841809D01*
X154429299Y-70842416D01*
X154359991Y-70934825D01*
X154359800Y-70935072D01*
X154293288Y-71018990D01*
X154231604Y-71100540D01*
X154176792Y-71185851D01*
X154130788Y-71281189D01*
X154095530Y-71392816D01*
X154072955Y-71526999D01*
X154072939Y-71527330D01*
X154072938Y-71527338D01*
X154065543Y-71678870D01*
X154061717Y-71686967D01*
X154053857Y-71690000D01*
X153826143Y-71690000D01*
X153817870Y-71686573D01*
X153814457Y-71678870D01*
X153807061Y-71527338D01*
X153807060Y-71527330D01*
X153807044Y-71526999D01*
X153784469Y-71392816D01*
X153749211Y-71281189D01*
X153703207Y-71185851D01*
X153648395Y-71100540D01*
X153586711Y-71018990D01*
X153520199Y-70935072D01*
X153520008Y-70934825D01*
X153450700Y-70842416D01*
X153450274Y-70841809D01*
X153380072Y-70734681D01*
X153379565Y-70733831D01*
X153314062Y-70612637D01*
X153313143Y-70603730D01*
X153315922Y-70598964D01*
X153931567Y-69958769D01*
X153939771Y-69955181D01*
X153948433Y-69958769D01*
G37*
%TD.AperFunction*%
%TD*%
%TA.AperFunction,Conductor*%
%TO.N,DIN*%
G36*
X152151489Y-98123388D02*
G01*
X152158470Y-98128996D01*
X152159557Y-98137472D01*
X152142828Y-98204014D01*
X152132398Y-98271397D01*
X152132385Y-98271733D01*
X152132385Y-98271735D01*
X152131756Y-98288293D01*
X152130141Y-98330750D01*
X152135187Y-98384131D01*
X152146663Y-98433597D01*
X152163698Y-98481207D01*
X152185420Y-98529018D01*
X152210959Y-98579088D01*
X152234751Y-98624514D01*
X152239393Y-98633378D01*
X152239469Y-98633525D01*
X152266280Y-98686837D01*
X152266935Y-98695767D01*
X152264260Y-98700203D01*
X152008433Y-98966231D01*
X152000229Y-98969819D01*
X151991567Y-98966231D01*
X151735537Y-98699992D01*
X151732272Y-98691653D01*
X151733346Y-98686981D01*
X151762034Y-98624786D01*
X151762094Y-98624656D01*
X151787232Y-98563228D01*
X151799259Y-98529159D01*
X151806909Y-98507488D01*
X151806911Y-98507482D01*
X151806948Y-98507377D01*
X151822781Y-98454531D01*
X151828088Y-98433910D01*
X151836257Y-98402162D01*
X151836269Y-98402116D01*
X151848947Y-98347561D01*
X151862354Y-98288293D01*
X151878004Y-98221843D01*
X151878041Y-98221688D01*
X151897472Y-98145455D01*
X151897541Y-98145197D01*
X151919137Y-98067889D01*
X151924664Y-98060843D01*
X151933685Y-98059806D01*
X152151489Y-98123388D01*
G37*
%TD.AperFunction*%
%TD*%
%TA.AperFunction,Conductor*%
%TO.N,CS*%
G36*
X153748015Y-98069400D02*
G01*
X153755157Y-98074802D01*
X153756476Y-98083307D01*
X153739650Y-98157596D01*
X153728984Y-98231714D01*
X153726267Y-98296892D01*
X153730788Y-98355408D01*
X153741833Y-98409541D01*
X153758691Y-98461570D01*
X153758791Y-98461807D01*
X153780590Y-98513636D01*
X153780598Y-98513653D01*
X153780649Y-98513775D01*
X153780710Y-98513901D01*
X153780712Y-98513906D01*
X153806978Y-98568400D01*
X153806995Y-98568434D01*
X153836979Y-98627754D01*
X153837016Y-98627827D01*
X153866336Y-98686857D01*
X153866947Y-98695791D01*
X153864290Y-98700172D01*
X153608433Y-98966231D01*
X153600229Y-98969819D01*
X153591567Y-98966231D01*
X153335518Y-98699972D01*
X153332254Y-98691635D01*
X153333313Y-98686995D01*
X153363924Y-98620115D01*
X153363928Y-98620105D01*
X153363980Y-98619992D01*
X153390100Y-98554306D01*
X153410033Y-98494445D01*
X153425456Y-98437680D01*
X153438043Y-98381280D01*
X153449469Y-98322516D01*
X153461408Y-98258658D01*
X153475507Y-98187123D01*
X153475555Y-98186889D01*
X153493501Y-98104863D01*
X153493571Y-98104565D01*
X153514223Y-98020732D01*
X153519529Y-98013519D01*
X153528533Y-98012209D01*
X153748015Y-98069400D01*
G37*
%TD.AperFunction*%
%TD*%
%TA.AperFunction,Conductor*%
%TO.N,GND*%
G36*
X150617850Y-69374502D02*
G01*
X150664343Y-69428158D01*
X150674447Y-69498432D01*
X150652942Y-69552771D01*
X150562499Y-69681937D01*
X150485488Y-69859900D01*
X150484182Y-69866150D01*
X150484182Y-69866151D01*
X150468585Y-69940812D01*
X150445834Y-70049713D01*
X150445500Y-70056086D01*
X150445500Y-70498456D01*
X150460174Y-70642919D01*
X150518161Y-70827957D01*
X150612171Y-70997555D01*
X150738364Y-71144786D01*
X150891584Y-71263636D01*
X150897309Y-71266453D01*
X150897312Y-71266455D01*
X151005602Y-71319740D01*
X151065572Y-71349249D01*
X151253222Y-71398128D01*
X151344155Y-71402894D01*
X151440487Y-71407943D01*
X151440491Y-71407943D01*
X151446868Y-71408277D01*
X151638599Y-71379280D01*
X151658807Y-71371845D01*
X151814597Y-71314526D01*
X151814602Y-71314524D01*
X151820583Y-71312323D01*
X151985387Y-71210140D01*
X152126278Y-71076906D01*
X152237501Y-70918063D01*
X152314512Y-70740100D01*
X152352165Y-70559865D01*
X152353175Y-70555032D01*
X152353175Y-70555028D01*
X152354166Y-70550287D01*
X152354500Y-70543914D01*
X152354500Y-70101544D01*
X152339826Y-69957081D01*
X152281839Y-69772043D01*
X152187829Y-69602445D01*
X152153590Y-69562498D01*
X152124446Y-69497759D01*
X152134928Y-69427541D01*
X152181710Y-69374136D01*
X152249258Y-69354500D01*
X153089729Y-69354500D01*
X153157850Y-69374502D01*
X153204343Y-69428158D01*
X153214447Y-69498432D01*
X153192942Y-69552771D01*
X153102499Y-69681937D01*
X153025488Y-69859900D01*
X153024182Y-69866150D01*
X153024182Y-69866151D01*
X153008585Y-69940812D01*
X152985834Y-70049713D01*
X152985500Y-70056086D01*
X152985500Y-70498456D01*
X153000174Y-70642919D01*
X153058161Y-70827957D01*
X153152171Y-70997555D01*
X153278364Y-71144786D01*
X153283406Y-71148697D01*
X153283407Y-71148698D01*
X153426540Y-71259724D01*
X153426544Y-71259726D01*
X153430389Y-71262709D01*
X153431584Y-71263636D01*
X153431473Y-71263779D01*
X153468019Y-71299871D01*
X153472208Y-71306391D01*
X153479681Y-71319740D01*
X153493921Y-71349249D01*
X153503446Y-71368989D01*
X153510113Y-71385790D01*
X153526436Y-71437467D01*
X153528920Y-71445333D01*
X153533024Y-71462376D01*
X153547367Y-71547625D01*
X153548962Y-71562380D01*
X153555266Y-71691521D01*
X153556605Y-71697167D01*
X153556606Y-71697172D01*
X153557098Y-71699245D01*
X153560500Y-71728327D01*
X153560500Y-95560294D01*
X153558949Y-95580002D01*
X153555769Y-95600083D01*
X153557321Y-95609876D01*
X153557321Y-95619798D01*
X153556667Y-95619798D01*
X153557102Y-95634592D01*
X153549995Y-95706776D01*
X153545178Y-95730998D01*
X153517663Y-95821716D01*
X153508211Y-95844537D01*
X153463527Y-95928142D01*
X153449806Y-95948679D01*
X153403879Y-96004647D01*
X153393016Y-96014890D01*
X153393467Y-96015341D01*
X153386451Y-96022358D01*
X153378430Y-96028186D01*
X153366488Y-96044625D01*
X153353647Y-96059659D01*
X152069150Y-97344155D01*
X152054120Y-97356993D01*
X152037670Y-97368944D01*
X152030479Y-97378841D01*
X152023284Y-97387845D01*
X151914743Y-97511610D01*
X151810180Y-97668096D01*
X151808360Y-97671786D01*
X151808358Y-97671790D01*
X151736120Y-97818272D01*
X151726938Y-97836892D01*
X151725614Y-97840793D01*
X151681231Y-97971537D01*
X151674325Y-97987961D01*
X151672005Y-97992543D01*
X151672003Y-97992548D01*
X151669206Y-97998071D01*
X151647610Y-98075379D01*
X151646851Y-98078152D01*
X151646782Y-98078410D01*
X151646012Y-98081360D01*
X151645946Y-98081619D01*
X151645915Y-98081739D01*
X151635296Y-98123402D01*
X151626581Y-98157593D01*
X151625452Y-98162198D01*
X151625380Y-98162506D01*
X151625366Y-98162562D01*
X151609765Y-98228803D01*
X151609249Y-98231038D01*
X151609203Y-98231240D01*
X151602132Y-98262500D01*
X151597239Y-98284133D01*
X151596077Y-98289268D01*
X151595924Y-98289935D01*
X151592598Y-98304251D01*
X151584543Y-98338912D01*
X151583837Y-98341794D01*
X151573346Y-98382561D01*
X151572029Y-98387294D01*
X151561027Y-98424018D01*
X151559151Y-98429768D01*
X151545680Y-98467928D01*
X151543478Y-98473710D01*
X151525112Y-98518586D01*
X151522916Y-98523634D01*
X151497706Y-98578290D01*
X151496661Y-98581350D01*
X151496657Y-98581360D01*
X151480442Y-98628843D01*
X151480398Y-98628828D01*
X151476850Y-98639014D01*
X151462933Y-98672613D01*
X151462932Y-98672616D01*
X151459772Y-98680246D01*
X151440715Y-98825000D01*
X151459772Y-98969754D01*
X151515645Y-99104642D01*
X151604526Y-99220474D01*
X151611076Y-99225500D01*
X151611079Y-99225503D01*
X151661931Y-99264523D01*
X151720357Y-99309355D01*
X151855246Y-99365228D01*
X152000000Y-99384285D01*
X152008188Y-99383207D01*
X152136566Y-99366306D01*
X152144754Y-99365228D01*
X152279643Y-99309355D01*
X152323298Y-99275857D01*
X152389517Y-99250258D01*
X152459065Y-99264523D01*
X152476699Y-99275855D01*
X152520357Y-99309355D01*
X152655246Y-99365228D01*
X152800000Y-99384285D01*
X152808188Y-99383207D01*
X152936566Y-99366306D01*
X152944754Y-99365228D01*
X153079643Y-99309355D01*
X153123298Y-99275857D01*
X153189517Y-99250258D01*
X153259065Y-99264523D01*
X153276699Y-99275855D01*
X153320357Y-99309355D01*
X153455246Y-99365228D01*
X153600000Y-99384285D01*
X153608188Y-99383207D01*
X153736566Y-99366306D01*
X153744754Y-99365228D01*
X153879643Y-99309355D01*
X153923298Y-99275857D01*
X153989517Y-99250258D01*
X154059065Y-99264523D01*
X154076699Y-99275855D01*
X154120357Y-99309355D01*
X154255246Y-99365228D01*
X154400000Y-99384285D01*
X154408188Y-99383207D01*
X154536566Y-99366306D01*
X154544754Y-99365228D01*
X154679643Y-99309355D01*
X154723298Y-99275857D01*
X154789517Y-99250258D01*
X154859065Y-99264523D01*
X154876699Y-99275855D01*
X154920357Y-99309355D01*
X155055246Y-99365228D01*
X155200000Y-99384285D01*
X155208188Y-99383207D01*
X155336566Y-99366306D01*
X155344754Y-99365228D01*
X155479643Y-99309355D01*
X155523298Y-99275857D01*
X155589517Y-99250258D01*
X155659065Y-99264523D01*
X155676699Y-99275855D01*
X155720357Y-99309355D01*
X155855246Y-99365228D01*
X156000000Y-99384285D01*
X156008188Y-99383207D01*
X156136566Y-99366306D01*
X156144754Y-99365228D01*
X156279643Y-99309355D01*
X156338069Y-99264523D01*
X156388921Y-99225503D01*
X156388924Y-99225500D01*
X156395474Y-99220474D01*
X156484355Y-99104642D01*
X156540228Y-98969754D01*
X156559285Y-98825000D01*
X156540228Y-98680246D01*
X156537067Y-98672613D01*
X156509421Y-98605871D01*
X156504013Y-98589850D01*
X156501769Y-98581360D01*
X156499534Y-98572902D01*
X156467000Y-98506360D01*
X156466759Y-98505863D01*
X156437398Y-98445011D01*
X156435835Y-98441646D01*
X156415333Y-98395748D01*
X156412520Y-98388922D01*
X156400250Y-98356471D01*
X156396818Y-98346040D01*
X156395623Y-98341794D01*
X156390496Y-98323572D01*
X156387540Y-98310398D01*
X156386504Y-98304251D01*
X156384434Y-98291978D01*
X156382749Y-98271855D01*
X156384231Y-98262500D01*
X156382680Y-98252708D01*
X156382680Y-98242788D01*
X156382835Y-98242788D01*
X156382241Y-98227681D01*
X156385991Y-98180033D01*
X156386426Y-98174510D01*
X156387126Y-98167876D01*
X156391422Y-98135408D01*
X156392736Y-98127445D01*
X156406134Y-98059832D01*
X156406135Y-98059826D01*
X156407298Y-98053955D01*
X156407329Y-98048424D01*
X156410065Y-98032303D01*
X156425077Y-97969770D01*
X156431187Y-97950965D01*
X156482356Y-97827432D01*
X156491332Y-97809816D01*
X156561195Y-97695808D01*
X156572809Y-97679821D01*
X156643413Y-97597155D01*
X156654513Y-97586894D01*
X156654404Y-97586785D01*
X156661415Y-97579774D01*
X156669440Y-97573944D01*
X156681391Y-97557495D01*
X156694232Y-97542461D01*
X166576501Y-87660192D01*
X166591536Y-87647350D01*
X166599958Y-87641231D01*
X166607980Y-87635403D01*
X166615429Y-87625151D01*
X166622627Y-87616141D01*
X166673980Y-87557586D01*
X166726493Y-87497708D01*
X166726499Y-87497701D01*
X166729210Y-87494609D01*
X166731496Y-87491188D01*
X166731502Y-87491180D01*
X166830073Y-87343658D01*
X166832367Y-87340225D01*
X166914490Y-87173696D01*
X166942218Y-87092013D01*
X166972848Y-87001780D01*
X166972849Y-87001776D01*
X166974174Y-86997873D01*
X167010397Y-86815764D01*
X167014134Y-86758749D01*
X167017687Y-86704524D01*
X167018637Y-86697724D01*
X167019018Y-86696638D01*
X167019500Y-86691073D01*
X167019500Y-86680982D01*
X167019770Y-86672744D01*
X167020967Y-86654475D01*
X167022246Y-86643019D01*
X167024231Y-86630485D01*
X167021050Y-86610403D01*
X167019500Y-86590703D01*
X167019500Y-71727968D01*
X167022493Y-71703673D01*
X167022327Y-71703648D01*
X167023234Y-71697522D01*
X167024735Y-71691520D01*
X167031037Y-71562376D01*
X167032633Y-71547615D01*
X167044244Y-71478608D01*
X167045246Y-71472649D01*
X167076274Y-71408792D01*
X167136900Y-71371845D01*
X167207876Y-71373541D01*
X167266668Y-71413341D01*
X167294610Y-71478608D01*
X167295500Y-71493555D01*
X167295500Y-105462524D01*
X167293079Y-105487103D01*
X167290514Y-105500000D01*
X167292935Y-105512170D01*
X167292935Y-105519856D01*
X167292328Y-105532207D01*
X167282391Y-105633092D01*
X167277575Y-105657309D01*
X167242351Y-105773426D01*
X167232907Y-105796226D01*
X167175708Y-105903239D01*
X167161989Y-105923770D01*
X167085019Y-106017556D01*
X167067556Y-106035019D01*
X166973770Y-106111989D01*
X166953239Y-106125708D01*
X166846226Y-106182907D01*
X166823426Y-106192351D01*
X166707309Y-106227575D01*
X166683092Y-106232391D01*
X166582207Y-106242328D01*
X166569856Y-106242935D01*
X166562170Y-106242935D01*
X166550000Y-106240514D01*
X166537103Y-106243079D01*
X166512524Y-106245500D01*
X166237476Y-106245500D01*
X166212897Y-106243079D01*
X166200000Y-106240514D01*
X166187829Y-106242935D01*
X166181711Y-106242935D01*
X166168743Y-106242266D01*
X166086059Y-106233711D01*
X166060673Y-106228400D01*
X166058086Y-106227573D01*
X165963984Y-106197500D01*
X165940222Y-106187104D01*
X165851904Y-106137059D01*
X165830774Y-106122017D01*
X165754578Y-106054952D01*
X165736977Y-106035905D01*
X165687244Y-105969505D01*
X165680004Y-105958722D01*
X165676778Y-105953337D01*
X165672599Y-105941648D01*
X165664264Y-105932448D01*
X165663810Y-105931690D01*
X165649583Y-105912338D01*
X164942176Y-104709745D01*
X164941106Y-104707597D01*
X164939734Y-104700699D01*
X164917670Y-104667679D01*
X164913831Y-104661560D01*
X164909795Y-104654698D01*
X164909793Y-104654695D01*
X164906653Y-104649357D01*
X164902529Y-104644731D01*
X164901729Y-104643633D01*
X164898785Y-104639415D01*
X164890376Y-104626830D01*
X164883484Y-104616516D01*
X164873171Y-104609625D01*
X164869121Y-104605575D01*
X164864546Y-104602123D01*
X164856287Y-104592859D01*
X164845109Y-104587459D01*
X164834561Y-104582363D01*
X164819367Y-104573673D01*
X164809620Y-104567160D01*
X164809616Y-104567158D01*
X164799301Y-104560266D01*
X164787131Y-104557845D01*
X164781843Y-104555655D01*
X164776295Y-104554217D01*
X164765121Y-104548819D01*
X164752732Y-104548108D01*
X164737625Y-104547241D01*
X164732495Y-104546841D01*
X164731132Y-104546707D01*
X164725067Y-104545500D01*
X164710913Y-104545500D01*
X164703693Y-104545293D01*
X164676430Y-104543728D01*
X164676429Y-104543728D01*
X164664041Y-104543017D01*
X164657397Y-104545333D01*
X164654996Y-104545500D01*
X153744998Y-104545500D01*
X153742601Y-104545333D01*
X153735959Y-104543018D01*
X153696318Y-104545293D01*
X153689099Y-104545500D01*
X153674933Y-104545500D01*
X153668870Y-104546706D01*
X153667499Y-104546841D01*
X153662372Y-104547241D01*
X153648541Y-104548035D01*
X153634879Y-104548819D01*
X153623705Y-104554217D01*
X153618157Y-104555655D01*
X153612869Y-104557845D01*
X153600699Y-104560266D01*
X153590384Y-104567158D01*
X153590380Y-104567160D01*
X153580633Y-104573673D01*
X153565439Y-104582363D01*
X153554891Y-104587459D01*
X153543713Y-104592859D01*
X153535454Y-104602123D01*
X153530879Y-104605575D01*
X153526829Y-104609625D01*
X153516516Y-104616516D01*
X153509624Y-104626830D01*
X153501215Y-104639415D01*
X153498271Y-104643633D01*
X153497471Y-104644731D01*
X153493347Y-104649357D01*
X153490207Y-104654695D01*
X153490205Y-104654698D01*
X153486169Y-104661560D01*
X153482330Y-104667679D01*
X153460266Y-104700699D01*
X153458894Y-104707597D01*
X153457824Y-104709745D01*
X152750417Y-105912338D01*
X152736187Y-105931694D01*
X152735734Y-105932450D01*
X152727401Y-105941648D01*
X152723223Y-105953333D01*
X152720082Y-105958576D01*
X152712845Y-105969354D01*
X152663013Y-106035889D01*
X152645411Y-106054938D01*
X152569216Y-106122002D01*
X152548087Y-106137043D01*
X152503928Y-106162066D01*
X152459771Y-106187087D01*
X152436009Y-106197483D01*
X152339323Y-106228382D01*
X152313937Y-106233693D01*
X152256295Y-106239657D01*
X152231080Y-106242266D01*
X152218112Y-106242935D01*
X152212171Y-106242935D01*
X152200000Y-106240514D01*
X152187103Y-106243079D01*
X152162524Y-106245500D01*
X148987476Y-106245500D01*
X148962897Y-106243079D01*
X148950000Y-106240514D01*
X148937830Y-106242935D01*
X148930144Y-106242935D01*
X148917793Y-106242328D01*
X148816908Y-106232391D01*
X148792691Y-106227575D01*
X148676574Y-106192351D01*
X148653774Y-106182907D01*
X148546761Y-106125708D01*
X148526230Y-106111989D01*
X148432444Y-106035019D01*
X148414981Y-106017556D01*
X148338011Y-105923770D01*
X148324292Y-105903239D01*
X148267093Y-105796226D01*
X148257649Y-105773426D01*
X148222425Y-105657309D01*
X148217609Y-105633092D01*
X148207672Y-105532207D01*
X148207065Y-105519856D01*
X148207065Y-105512170D01*
X148209486Y-105500000D01*
X148206921Y-105487103D01*
X148204500Y-105462524D01*
X148204500Y-71674522D01*
X148224502Y-71606401D01*
X148278158Y-71559908D01*
X148348432Y-71549804D01*
X148381145Y-71559149D01*
X148467999Y-71597275D01*
X148478594Y-71600841D01*
X148588385Y-71627200D01*
X148602470Y-71626495D01*
X148605966Y-71617702D01*
X149114000Y-71617702D01*
X149117973Y-71631233D01*
X149125421Y-71632304D01*
X149312915Y-71574622D01*
X149323260Y-71570401D01*
X149504912Y-71476643D01*
X149514343Y-71470658D01*
X149676520Y-71346215D01*
X149684749Y-71338648D01*
X149822319Y-71187461D01*
X149829082Y-71178550D01*
X149937701Y-71005396D01*
X149942782Y-70995426D01*
X150019024Y-70805768D01*
X150022255Y-70795068D01*
X150063908Y-70593930D01*
X150065111Y-70584792D01*
X150065843Y-70572087D01*
X150062265Y-70556668D01*
X150051503Y-70554000D01*
X149132115Y-70554000D01*
X149116876Y-70558475D01*
X149115671Y-70559865D01*
X149114000Y-70567548D01*
X149114000Y-71617702D01*
X148605966Y-71617702D01*
X148606000Y-71617616D01*
X148606000Y-70172000D01*
X148626002Y-70103879D01*
X148679658Y-70057386D01*
X148732000Y-70046000D01*
X150045486Y-70046000D01*
X150060082Y-70041714D01*
X150062144Y-70029676D01*
X150054213Y-69940812D01*
X150052232Y-69929798D01*
X149998293Y-69732634D01*
X149994400Y-69722166D01*
X149905005Y-69534745D01*
X149893732Y-69464649D01*
X149922145Y-69399585D01*
X149981223Y-69360212D01*
X150018731Y-69354500D01*
X150549729Y-69354500D01*
X150617850Y-69374502D01*
G37*
%TD.AperFunction*%
%TA.AperFunction,Conductor*%
G36*
X155697850Y-69374502D02*
G01*
X155744343Y-69428158D01*
X155754447Y-69498432D01*
X155732942Y-69552771D01*
X155642499Y-69681937D01*
X155565488Y-69859900D01*
X155564182Y-69866150D01*
X155564182Y-69866151D01*
X155548585Y-69940812D01*
X155525834Y-70049713D01*
X155525500Y-70056086D01*
X155525500Y-70498456D01*
X155540174Y-70642919D01*
X155598161Y-70827957D01*
X155692171Y-70997555D01*
X155818364Y-71144786D01*
X155823406Y-71148697D01*
X155823407Y-71148698D01*
X155966540Y-71259724D01*
X155966544Y-71259726D01*
X155970389Y-71262709D01*
X155971584Y-71263636D01*
X155971473Y-71263779D01*
X156008019Y-71299871D01*
X156012208Y-71306391D01*
X156019681Y-71319740D01*
X156033921Y-71349249D01*
X156043446Y-71368989D01*
X156050113Y-71385790D01*
X156066436Y-71437467D01*
X156068920Y-71445333D01*
X156073024Y-71462376D01*
X156087367Y-71547625D01*
X156088962Y-71562380D01*
X156095266Y-71691521D01*
X156096605Y-71697167D01*
X156096606Y-71697172D01*
X156097098Y-71699245D01*
X156100500Y-71728327D01*
X156100500Y-93789346D01*
X156098948Y-93809061D01*
X156095769Y-93829127D01*
X156097319Y-93838919D01*
X156097319Y-93848836D01*
X156096664Y-93848836D01*
X156097100Y-93863631D01*
X156093980Y-93895295D01*
X156090873Y-93926827D01*
X156086053Y-93951052D01*
X156061155Y-94033118D01*
X156051701Y-94055938D01*
X156011271Y-94131569D01*
X155997549Y-94152105D01*
X155957186Y-94201284D01*
X155946504Y-94211355D01*
X155946978Y-94211829D01*
X155939967Y-94218840D01*
X155931943Y-94224669D01*
X155926114Y-94232692D01*
X155919987Y-94241124D01*
X155907148Y-94256155D01*
X154534595Y-95628709D01*
X154472283Y-95662734D01*
X154401468Y-95657670D01*
X154344632Y-95615123D01*
X154319821Y-95548603D01*
X154319500Y-95539614D01*
X154319500Y-71727968D01*
X154322493Y-71703673D01*
X154322327Y-71703648D01*
X154323234Y-71697522D01*
X154324735Y-71691520D01*
X154331037Y-71562376D01*
X154332633Y-71547616D01*
X154332633Y-71547615D01*
X154346976Y-71462369D01*
X154351079Y-71445333D01*
X154369885Y-71385793D01*
X154376553Y-71368990D01*
X154400315Y-71319746D01*
X154407787Y-71306397D01*
X154417315Y-71291567D01*
X154456924Y-71252589D01*
X154525387Y-71210140D01*
X154666278Y-71076906D01*
X154777501Y-70918063D01*
X154854512Y-70740100D01*
X154892165Y-70559865D01*
X154893175Y-70555032D01*
X154893175Y-70555028D01*
X154894166Y-70550287D01*
X154894500Y-70543914D01*
X154894500Y-70101544D01*
X154879826Y-69957081D01*
X154821839Y-69772043D01*
X154727829Y-69602445D01*
X154693590Y-69562498D01*
X154664446Y-69497759D01*
X154674928Y-69427541D01*
X154721710Y-69374136D01*
X154789258Y-69354500D01*
X155629729Y-69354500D01*
X155697850Y-69374502D01*
G37*
%TD.AperFunction*%
%TA.AperFunction,Conductor*%
G36*
X158237850Y-69374502D02*
G01*
X158284343Y-69428158D01*
X158294447Y-69498432D01*
X158272942Y-69552771D01*
X158182499Y-69681937D01*
X158105488Y-69859900D01*
X158104182Y-69866150D01*
X158104182Y-69866151D01*
X158088585Y-69940812D01*
X158065834Y-70049713D01*
X158065500Y-70056086D01*
X158065500Y-70498456D01*
X158080174Y-70642919D01*
X158138161Y-70827957D01*
X158232171Y-70997555D01*
X158358364Y-71144786D01*
X158363406Y-71148697D01*
X158363407Y-71148698D01*
X158506540Y-71259724D01*
X158506544Y-71259726D01*
X158510389Y-71262709D01*
X158511584Y-71263636D01*
X158511473Y-71263779D01*
X158548019Y-71299871D01*
X158552208Y-71306391D01*
X158559681Y-71319740D01*
X158573921Y-71349249D01*
X158583446Y-71368989D01*
X158590113Y-71385790D01*
X158606436Y-71437467D01*
X158608920Y-71445333D01*
X158613024Y-71462376D01*
X158627367Y-71547625D01*
X158628962Y-71562380D01*
X158635266Y-71691521D01*
X158636605Y-71697167D01*
X158636606Y-71697172D01*
X158637098Y-71699245D01*
X158640500Y-71728327D01*
X158640500Y-91925091D01*
X158638950Y-91944792D01*
X158635769Y-91964880D01*
X158637321Y-91974673D01*
X158637321Y-91984595D01*
X158636667Y-91984595D01*
X158637102Y-91999390D01*
X158629209Y-92079556D01*
X158627435Y-92097568D01*
X158622617Y-92121790D01*
X158610606Y-92161389D01*
X158587520Y-92237497D01*
X158578068Y-92260317D01*
X158521067Y-92366962D01*
X158507344Y-92387500D01*
X158444805Y-92463706D01*
X158433988Y-92473903D01*
X158434446Y-92474361D01*
X158427429Y-92481378D01*
X158419410Y-92487204D01*
X158413584Y-92495223D01*
X158407460Y-92503652D01*
X158394618Y-92518687D01*
X157074595Y-93838710D01*
X157012283Y-93872736D01*
X156941468Y-93867671D01*
X156884632Y-93825124D01*
X156859821Y-93758604D01*
X156859500Y-93749615D01*
X156859500Y-71727968D01*
X156862493Y-71703673D01*
X156862327Y-71703648D01*
X156863234Y-71697522D01*
X156864735Y-71691520D01*
X156871037Y-71562376D01*
X156872633Y-71547616D01*
X156872633Y-71547615D01*
X156886976Y-71462369D01*
X156891079Y-71445333D01*
X156909885Y-71385793D01*
X156916553Y-71368990D01*
X156940315Y-71319746D01*
X156947787Y-71306397D01*
X156957315Y-71291567D01*
X156996924Y-71252589D01*
X157065387Y-71210140D01*
X157206278Y-71076906D01*
X157317501Y-70918063D01*
X157394512Y-70740100D01*
X157432165Y-70559865D01*
X157433175Y-70555032D01*
X157433175Y-70555028D01*
X157434166Y-70550287D01*
X157434500Y-70543914D01*
X157434500Y-70101544D01*
X157419826Y-69957081D01*
X157361839Y-69772043D01*
X157267829Y-69602445D01*
X157233590Y-69562498D01*
X157204446Y-69497759D01*
X157214928Y-69427541D01*
X157261710Y-69374136D01*
X157329258Y-69354500D01*
X158169729Y-69354500D01*
X158237850Y-69374502D01*
G37*
%TD.AperFunction*%
%TA.AperFunction,Conductor*%
G36*
X160777850Y-69374502D02*
G01*
X160824343Y-69428158D01*
X160834447Y-69498432D01*
X160812942Y-69552771D01*
X160722499Y-69681937D01*
X160645488Y-69859900D01*
X160644182Y-69866150D01*
X160644182Y-69866151D01*
X160628585Y-69940812D01*
X160605834Y-70049713D01*
X160605500Y-70056086D01*
X160605500Y-70498456D01*
X160620174Y-70642919D01*
X160678161Y-70827957D01*
X160772171Y-70997555D01*
X160898364Y-71144786D01*
X160903406Y-71148697D01*
X160903407Y-71148698D01*
X161046540Y-71259724D01*
X161046544Y-71259726D01*
X161050389Y-71262709D01*
X161051584Y-71263636D01*
X161051473Y-71263779D01*
X161088019Y-71299871D01*
X161092208Y-71306391D01*
X161099681Y-71319740D01*
X161113921Y-71349249D01*
X161123446Y-71368989D01*
X161130113Y-71385790D01*
X161146436Y-71437467D01*
X161148920Y-71445333D01*
X161153024Y-71462376D01*
X161167367Y-71547625D01*
X161168962Y-71562380D01*
X161175266Y-71691521D01*
X161176605Y-71697167D01*
X161176606Y-71697172D01*
X161177098Y-71699245D01*
X161180500Y-71728327D01*
X161180500Y-90143484D01*
X161178949Y-90163191D01*
X161175769Y-90183273D01*
X161177321Y-90193066D01*
X161177321Y-90202988D01*
X161176665Y-90202988D01*
X161177103Y-90217779D01*
X161170036Y-90289556D01*
X161167825Y-90312013D01*
X161163007Y-90336238D01*
X161129063Y-90448153D01*
X161119612Y-90470973D01*
X161064486Y-90574118D01*
X161050764Y-90594656D01*
X160990798Y-90667731D01*
X160979915Y-90677993D01*
X160980364Y-90678442D01*
X160973352Y-90685455D01*
X160965331Y-90691283D01*
X160959504Y-90699304D01*
X160959501Y-90699307D01*
X160953388Y-90707722D01*
X160940543Y-90722762D01*
X159617775Y-92045530D01*
X159555463Y-92079556D01*
X159484648Y-92074491D01*
X159427812Y-92031944D01*
X159403802Y-91967571D01*
X159404231Y-91964860D01*
X159401052Y-91944792D01*
X159399500Y-91925078D01*
X159399500Y-71727968D01*
X159402493Y-71703673D01*
X159402327Y-71703648D01*
X159403234Y-71697522D01*
X159404735Y-71691520D01*
X159411037Y-71562376D01*
X159412633Y-71547616D01*
X159412633Y-71547615D01*
X159426976Y-71462369D01*
X159431079Y-71445333D01*
X159449885Y-71385793D01*
X159456553Y-71368990D01*
X159480315Y-71319746D01*
X159487787Y-71306397D01*
X159497315Y-71291567D01*
X159536924Y-71252589D01*
X159605387Y-71210140D01*
X159746278Y-71076906D01*
X159857501Y-70918063D01*
X159934512Y-70740100D01*
X159972165Y-70559865D01*
X159973175Y-70555032D01*
X159973175Y-70555028D01*
X159974166Y-70550287D01*
X159974500Y-70543914D01*
X159974500Y-70101544D01*
X159959826Y-69957081D01*
X159901839Y-69772043D01*
X159807829Y-69602445D01*
X159773590Y-69562498D01*
X159744446Y-69497759D01*
X159754928Y-69427541D01*
X159801710Y-69374136D01*
X159869258Y-69354500D01*
X160709729Y-69354500D01*
X160777850Y-69374502D01*
G37*
%TD.AperFunction*%
%TA.AperFunction,Conductor*%
G36*
X163317850Y-69374502D02*
G01*
X163364343Y-69428158D01*
X163374447Y-69498432D01*
X163352942Y-69552771D01*
X163262499Y-69681937D01*
X163185488Y-69859900D01*
X163184182Y-69866150D01*
X163184182Y-69866151D01*
X163168585Y-69940812D01*
X163145834Y-70049713D01*
X163145500Y-70056086D01*
X163145500Y-70498456D01*
X163160174Y-70642919D01*
X163218161Y-70827957D01*
X163312171Y-70997555D01*
X163438364Y-71144786D01*
X163443406Y-71148697D01*
X163443407Y-71148698D01*
X163586540Y-71259724D01*
X163586544Y-71259726D01*
X163590389Y-71262709D01*
X163591584Y-71263636D01*
X163591473Y-71263779D01*
X163628019Y-71299871D01*
X163632208Y-71306391D01*
X163639681Y-71319740D01*
X163653921Y-71349249D01*
X163663446Y-71368989D01*
X163670113Y-71385790D01*
X163686436Y-71437467D01*
X163688920Y-71445333D01*
X163693024Y-71462376D01*
X163707367Y-71547625D01*
X163708962Y-71562380D01*
X163715266Y-71691521D01*
X163716605Y-71697167D01*
X163716606Y-71697172D01*
X163717098Y-71699245D01*
X163720500Y-71728327D01*
X163720500Y-88415839D01*
X163718948Y-88435552D01*
X163715769Y-88455620D01*
X163717319Y-88465412D01*
X163717319Y-88475330D01*
X163716664Y-88475330D01*
X163717100Y-88490125D01*
X163714529Y-88516217D01*
X163710711Y-88554973D01*
X163705892Y-88579198D01*
X163680510Y-88662864D01*
X163671057Y-88685683D01*
X163629844Y-88762784D01*
X163616120Y-88783322D01*
X163574735Y-88833747D01*
X163564017Y-88843852D01*
X163564486Y-88844321D01*
X163557471Y-88851336D01*
X163549452Y-88857162D01*
X163543625Y-88865182D01*
X163537503Y-88873608D01*
X163524663Y-88888641D01*
X162157774Y-90255531D01*
X162095462Y-90289556D01*
X162024647Y-90284492D01*
X161967811Y-90241945D01*
X161945823Y-90182994D01*
X161944231Y-90183246D01*
X161944191Y-90182994D01*
X161941052Y-90163177D01*
X161939500Y-90143464D01*
X161939500Y-71727968D01*
X161942493Y-71703673D01*
X161942327Y-71703648D01*
X161943234Y-71697522D01*
X161944735Y-71691520D01*
X161951037Y-71562376D01*
X161952633Y-71547616D01*
X161952633Y-71547615D01*
X161966976Y-71462369D01*
X161971079Y-71445333D01*
X161989885Y-71385793D01*
X161996553Y-71368990D01*
X162020315Y-71319746D01*
X162027787Y-71306397D01*
X162037315Y-71291567D01*
X162076924Y-71252589D01*
X162145387Y-71210140D01*
X162286278Y-71076906D01*
X162397501Y-70918063D01*
X162474512Y-70740100D01*
X162512165Y-70559865D01*
X162513175Y-70555032D01*
X162513175Y-70555028D01*
X162514166Y-70550287D01*
X162514500Y-70543914D01*
X162514500Y-70101544D01*
X162499826Y-69957081D01*
X162441839Y-69772043D01*
X162347829Y-69602445D01*
X162313590Y-69562498D01*
X162284446Y-69497759D01*
X162294928Y-69427541D01*
X162341710Y-69374136D01*
X162409258Y-69354500D01*
X163249729Y-69354500D01*
X163317850Y-69374502D01*
G37*
%TD.AperFunction*%
%TA.AperFunction,Conductor*%
G36*
X165857850Y-69374502D02*
G01*
X165904343Y-69428158D01*
X165914447Y-69498432D01*
X165892942Y-69552771D01*
X165802499Y-69681937D01*
X165725488Y-69859900D01*
X165724182Y-69866150D01*
X165724182Y-69866151D01*
X165708585Y-69940812D01*
X165685834Y-70049713D01*
X165685500Y-70056086D01*
X165685500Y-70498456D01*
X165700174Y-70642919D01*
X165758161Y-70827957D01*
X165852171Y-70997555D01*
X165978364Y-71144786D01*
X165983406Y-71148697D01*
X165983407Y-71148698D01*
X166126540Y-71259724D01*
X166126544Y-71259726D01*
X166130389Y-71262709D01*
X166131584Y-71263636D01*
X166131473Y-71263779D01*
X166168019Y-71299871D01*
X166172208Y-71306391D01*
X166179681Y-71319740D01*
X166193921Y-71349249D01*
X166203446Y-71368989D01*
X166210113Y-71385790D01*
X166226436Y-71437467D01*
X166228920Y-71445333D01*
X166233024Y-71462376D01*
X166247367Y-71547625D01*
X166248962Y-71562380D01*
X166255266Y-71691521D01*
X166256605Y-71697167D01*
X166256606Y-71697172D01*
X166257098Y-71699245D01*
X166260500Y-71728327D01*
X166260500Y-86590705D01*
X166258949Y-86610415D01*
X166255769Y-86630493D01*
X166257320Y-86640286D01*
X166257320Y-86650204D01*
X166256665Y-86650204D01*
X166257101Y-86665003D01*
X166249085Y-86746399D01*
X166244269Y-86770618D01*
X166214058Y-86870209D01*
X166204609Y-86893019D01*
X166155556Y-86984790D01*
X166141833Y-87005328D01*
X166089938Y-87068561D01*
X166079171Y-87078709D01*
X166079635Y-87079173D01*
X166072622Y-87086186D01*
X166064602Y-87092013D01*
X166058775Y-87100033D01*
X166052653Y-87108459D01*
X166039813Y-87123492D01*
X164694595Y-88468710D01*
X164632283Y-88502736D01*
X164561468Y-88497671D01*
X164504632Y-88455124D01*
X164479821Y-88388604D01*
X164479500Y-88379615D01*
X164479500Y-71727968D01*
X164482493Y-71703673D01*
X164482327Y-71703648D01*
X164483234Y-71697522D01*
X164484735Y-71691520D01*
X164491037Y-71562376D01*
X164492633Y-71547616D01*
X164492633Y-71547615D01*
X164506976Y-71462369D01*
X164511079Y-71445333D01*
X164529885Y-71385793D01*
X164536553Y-71368990D01*
X164560315Y-71319746D01*
X164567787Y-71306397D01*
X164577315Y-71291567D01*
X164616924Y-71252589D01*
X164685387Y-71210140D01*
X164826278Y-71076906D01*
X164937501Y-70918063D01*
X165014512Y-70740100D01*
X165052165Y-70559865D01*
X165053175Y-70555032D01*
X165053175Y-70555028D01*
X165054166Y-70550287D01*
X165054500Y-70543914D01*
X165054500Y-70101544D01*
X165039826Y-69957081D01*
X164981839Y-69772043D01*
X164887829Y-69602445D01*
X164853590Y-69562498D01*
X164824446Y-69497759D01*
X164834928Y-69427541D01*
X164881710Y-69374136D01*
X164949258Y-69354500D01*
X165789729Y-69354500D01*
X165857850Y-69374502D01*
G37*
%TD.AperFunction*%
%TD*%
M02*
