0
SECTION
2
HEADER
9
$INSUNITS
70
4
9
$ACADVER
1
AC1014
9
$HANDSEED
5
FFFF
0
ENDSEC
0
SECTION
2
TABLES
0
TABLE
2
VPORT
5
8
100
AcDbSymbolTable
0
ENDTAB
0
TABLE
2
LTYPE
5
5
100
AcDbSymbolTable
0
LTYPE
5
14
100
AcDbSymbolTableRecord
100
AcDbLinetypeTableRecord
2
BYBLOCK
70
0
0
LTYPE
5
15
100
AcDbSymbolTableRecord
100
AcDbLinetypeTableRecord
2
BYLAYER
70
0
0
ENDTAB
0
TABLE
2
LAYER
5
2
100
AcDbSymbolTable
70
2
0
LAYER
5
50
100
AcDbSymbolTableRecord
100
AcDbLayerTableRecord
2
0
70
0
6
CONTINUOUS
0
ENDTAB
0
TABLE
2
STYLE
5
3
100
AcDbSymbolTable
70
1
0
STYLE
5
11
100
AcDbSymbolTableRecord
100
AcDbTextStyleTableRecord
2
STANDARD
70
0
0
ENDTAB
0
TABLE
2
VIEW
5
6
100
AcDbSymbolTable
70
0
0
ENDTAB
0
TABLE
2
UCS
5
7
100
AcDbSymbolTable
70
0
0
ENDTAB
0
TABLE
2
APPID
5
9
100
AcDbSymbolTable
70
2
0
APPID
5
12
100
AcDbSymbolTableRecord
100
AcDbRegAppTableRecord
2
ACAD
70
0
0
ENDTAB
0
TABLE
2
DIMSTYLE
5
A
100
AcDbSymbolTable
70
1
0
ENDTAB
0
TABLE
2
BLOCK_RECORD
5
1
100
AcDbSymbolTable
70
1
0
BLOCK_RECORD
5
1F
100
AcDbSymbolTableRecord
100
AcDbBlockTableRecord
2
*MODEL_SPACE
0
BLOCK_RECORD
5
1B
100
AcDbSymbolTableRecord
100
AcDbBlockTableRecord
2
*PAPER_SPACE
0
ENDTAB
0
ENDSEC
0
SECTION
2
BLOCKS
0
BLOCK
5
20
100
AcDbEntity
100
AcDbBlockBegin
2
*MODEL_SPACE
0
ENDBLK
5
21
100
AcDbEntity
100
AcDbBlockEnd
0
BLOCK
5
1C
100
AcDbEntity
100
AcDbBlockBegin
2
*PAPER_SPACE
0
ENDBLK
5
1D
100
AcDbEntity
100
AcDbBlockEnd
0
ENDSEC
0
SECTION
2
ENTITIES
0
LINE
5
100
100
AcDbEntity
8
0
100
AcDbLine
10
-132.58749999997949
20
-2.9999999999999982
30
0
11
-132.59094143207278
21
-2.9999999999999982
31
0
0
ARC
5
101
100
AcDbEntity
8
0
100
AcDbCircle
10
-179.82499999999999
20
-1.9999999999999867
30
0
40
1.0000000000000142
210
0
220
0
230
1
100
AcDbArc
50
180
51
270
0
LINE
5
102
100
AcDbEntity
8
0
100
AcDbLine
10
-180.82499999999999
20
-1.9999999999999865
30
0
11
-180.82499999999999
21
17.899999999999945
31
0
0
ARC
5
103
100
AcDbEntity
8
0
100
AcDbCircle
10
-179.82499999999993
20
17.899999999999945
30
0
40
1.0000000000000564
210
0
220
-0
230
1
100
AcDbArc
50
90
51
180
0
LINE
5
104
100
AcDbEntity
8
0
100
AcDbLine
10
-179.82499999999993
20
18.900000000000002
30
0
11
-172.30000000000004
21
18.900000000000002
31
0
0
ARC
5
105
100
AcDbEntity
8
0
100
AcDbCircle
10
-172.30000000000004
20
19.90000000000002
30
0
40
1.0000000000000187
210
-0
220
0
230
1
100
AcDbArc
50
-90
51
0
0
LINE
5
106
100
AcDbEntity
8
0
100
AcDbLine
10
-171.30000000000001
20
19.90000000000002
30
0
11
-171.30000000000001
21
37.249999999999986
31
0
0
ARC
5
107
100
AcDbEntity
8
0
100
AcDbCircle
10
-172.30000000000004
20
37.249999999999986
30
0
40
1.0000000000000142
210
0
220
-0
230
1
100
AcDbArc
50
0
51
90
0
LINE
5
108
100
AcDbEntity
8
0
100
AcDbLine
10
-172.30000000000004
20
38.25
30
0
11
-175.0625
21
38.25
31
0
0
ARC
5
109
100
AcDbEntity
8
0
100
AcDbCircle
10
-175.0625
20
39.250000000000014
30
0
40
1.0000000000000142
210
0
220
0
230
1
100
AcDbArc
50
180
51
270
0
LINE
5
110
100
AcDbEntity
8
0
100
AcDbLine
10
-176.06250000000003
20
39.250000000000014
30
0
11
-176.06250000000003
21
56.29999999999999
31
0
0
ARC
5
111
100
AcDbEntity
8
0
100
AcDbCircle
10
-177.06250000000006
20
56.29999999999999
30
0
40
1.0000000000000142
210
0
220
-0
230
1
100
AcDbArc
50
0
51
90
0
LINE
5
112
100
AcDbEntity
8
0
100
AcDbLine
10
-177.06250000000006
20
57.300000000000004
30
0
11
-184.58749999999995
21
57.300000000000004
31
0
0
ARC
5
113
100
AcDbEntity
8
0
100
AcDbCircle
10
-184.58749999999995
20
58.30000000000009
30
0
40
1.0000000000000853
210
0
220
0
230
1
100
AcDbArc
50
180
51
270
0
LINE
5
114
100
AcDbEntity
8
0
100
AcDbLine
10
-185.58750000000003
20
58.30000000000009
30
0
11
-185.58750000000003
21
97.249999983105667
31
0
0
ARC
5
115
100
AcDbEntity
8
0
100
AcDbCircle
10
-184.58749998309099
20
97.249999983105667
30
0
40
1.0000000169090484
210
0
220
-0
230
1
100
AcDbArc
50
90
51
180
0
LINE
5
116
100
AcDbEntity
8
0
100
AcDbLine
10
-184.58749998309099
20
98.250000000014722
30
0
11
-177.21250000000003
21
98.250000000014722
31
0
0
ARC
5
117
100
AcDbEntity
8
0
100
AcDbCircle
10
-177.21250000000003
20
97.250000000014708
30
0
40
1.0000000000000142
210
0
220
-0
230
1
100
AcDbArc
50
0
51
90
0
LINE
5
118
100
AcDbEntity
8
0
100
AcDbLine
10
-176.21250000000003
20
97.250000000014708
30
0
11
-176.21250000000003
21
96.250000000000057
31
0
0
ARC
5
119
100
AcDbEntity
8
0
100
AcDbCircle
10
-175.21249999999998
20
96.250000000000057
30
0
40
1.0000000000000497
210
0
220
0
230
1
100
AcDbArc
50
180
51
270
0
LINE
5
120
100
AcDbEntity
8
0
100
AcDbLine
10
-175.21249999999998
20
95.25
30
0
11
-172.6874999999458
21
95.250000000050363
31
0
0
ARC
5
121
100
AcDbEntity
8
0
100
AcDbCircle
10
-172.6874999999458
20
98.249999999981924
30
0
40
2.9999999999315641
210
-0
220
0
230
1
100
AcDbArc
50
-90
51
0
0
LINE
5
122
100
AcDbEntity
8
0
100
AcDbLine
10
-169.68750000001421
20
98.250000000014552
30
0
11
-169.68750000000003
21
100.25
31
0
0
ARC
5
123
100
AcDbEntity
8
0
100
AcDbCircle
10
-166.68750000000003
20
100.25
30
0
40
3.0000000000000071
210
0
220
-0
230
1
100
AcDbArc
50
0
51
180
0
LINE
5
124
100
AcDbEntity
8
0
100
AcDbLine
10
-163.68750000000003
20
100.25
30
0
11
-163.68750000000003
21
98.250000000014552
31
0
0
ARC
5
125
100
AcDbEntity
8
0
100
AcDbCircle
10
-160.6875
20
98.250000000014552
30
0
40
3.0000000000000071
210
0
220
0
230
1
100
AcDbArc
50
180
51
270
0
LINE
5
126
100
AcDbEntity
8
0
100
AcDbLine
10
-160.6875
20
95.250000000014552
30
0
11
-25.04999999995059
21
95.250000000032671
31
0
0
ARC
5
127
100
AcDbEntity
8
0
100
AcDbCircle
10
-25.049999999950586
20
98.250000000032685
30
0
40
3.0000000000000071
210
0
220
0
230
1
100
AcDbArc
50
-90.000000000000099
51
0
0
LINE
5
128
100
AcDbEntity
8
0
100
AcDbLine
10
-22.049999999950579
20
98.250000000032685
30
0
11
-22.049999999950582
21
100.25000000003267
31
0
0
ARC
5
129
100
AcDbEntity
8
0
100
AcDbCircle
10
-19.049999999950582
20
100.25
30
0
40
3.0000000000000004
210
-0
220
0
230
1
100
AcDbArc
50
0
51
180
0
LINE
5
130
100
AcDbEntity
8
0
100
AcDbLine
10
-16.049999999950582
20
100.24999999996734
30
0
11
-16.049999999972364
21
98.250000000032685
31
0
0
ARC
5
131
100
AcDbEntity
8
0
100
AcDbCircle
10
-13.049999999972364
20
98.250000000000014
30
0
40
3.0000000000000004
210
0
220
0
230
1
100
AcDbArc
50
180
51
270
0
LINE
5
132
100
AcDbEntity
8
0
100
AcDbLine
10
-13.049999999972364
20
95.25
30
0
11
-10.525000524434173
21
95.250000000000085
31
0
0
ARC
5
133
100
AcDbEntity
8
0
100
AcDbCircle
10
-10.525000524434173
20
96.25000052448199
30
0
40
1.0000005244818944
210
-0
220
0
230
1
100
AcDbArc
50
270
51
360
0
LINE
5
134
100
AcDbEntity
8
0
100
AcDbLine
10
-9.5249999999522785
20
96.250000524478992
30
0
11
-9.5249999999492747
21
97.250000000014367
31
0
0
ARC
5
135
100
AcDbEntity
8
0
100
AcDbCircle
10
-8.5249999999492783
20
97.25000000001134
30
0
40
0.99999999999999645
210
0
220
-0
230
1
100
AcDbArc
50
89.99999999982748
51
180
0
LINE
5
136
100
AcDbEntity
8
0
100
AcDbLine
10
-8.5249999999462673
20
98.25000000001134
30
0
11
-0.99999999994775157
21
98.249999999988688
31
0
0
ARC
5
137
100
AcDbEntity
8
0
100
AcDbCircle
10
-0.99999999995076227
20
97.249999999988688
30
0
40
1.0000000000000142
210
-0
220
0
230
1
100
AcDbArc
50
0
51
89.999999999827494
0
LINE
5
138
100
AcDbEntity
8
0
100
AcDbLine
10
4.9251991374177351e-11
20
97.249999999988631
30
0
11
4.6283185577783361e-11
21
44.100000000001671
31
0
0
ARC
5
139
100
AcDbEntity
8
0
100
AcDbCircle
10
3.0000000000462834
20
44.100000000001501
30
0
40
3.0000000000000004
210
0
220
0
230
1
100
AcDbArc
50
180
51
270
0
LINE
5
140
100
AcDbEntity
8
0
100
AcDbLine
10
3.0000000000462839
20
41.100000000001501
30
0
11
5.0000000000402451
21
41.100000000001501
31
0
0
ARC
5
141
100
AcDbEntity
8
0
100
AcDbCircle
10
5.0000000000402451
20
38.100000000000009
30
0
40
3.0000000000014992
210
-0
220
0
230
1
100
AcDbArc
50
-90
51
90
0
LINE
5
142
100
AcDbEntity
8
0
100
AcDbLine
10
5.0000000000402451
20
35.099999999998502
30
0
11
3.0000000000339084
21
35.099999999998502
31
0
0
ARC
5
143
100
AcDbEntity
8
0
100
AcDbCircle
10
3.0000000000339084
20
32.099999999998502
30
0
40
2.9999999999999982
210
0
220
-0
230
1
100
AcDbArc
50
90
51
180
0
LINE
5
144
100
AcDbEntity
8
0
100
AcDbLine
10
3.3910096952638469e-11
20
32.100000000001671
30
0
11
-2.7755575615628914e-16
21
-1.9999999999999885
31
0
0
ARC
5
145
100
AcDbEntity
8
0
100
AcDbCircle
10
-1
20
-1.9999999999999885
30
0
40
0.99999999999999978
210
0
220
0
230
1
100
AcDbArc
50
-90
51
0
0
LINE
5
146
100
AcDbEntity
8
0
100
AcDbLine
10
-1.0000000000000004
20
-2.9999999999999885
30
0
11
-34.2005041941458
21
-2.9999999999999902
31
0
0
ARC
5
147
100
AcDbEntity
8
0
100
AcDbCircle
10
-37.200000000000479
20
-2.0550000006113534
30
0
40
2.0000000149011772
210
0
220
-0
230
1
100
AcDbArc
50
1.050481482887029
51
90.000000000000199
0
LINE
5
148
100
AcDbEntity
8
0
100
AcDbLine
10
-37.200000000000486
20
-0.054999985710178223
30
0
11
-42.200000000000784
21
-0.054999985710194599
31
0
0
ARC
5
149
100
AcDbEntity
8
0
100
AcDbCircle
10
-42.200000000000784
20
-2.0550000006113258
30
0
40
2.000000014901131
210
0
220
-0
230
1
100
AcDbArc
50
90
51
180
0
LINE
5
150
100
AcDbEntity
8
0
100
AcDbLine
10
-44.200000014901917
20
-2.0550000006113627
30
0
11
-44.20000001490191
21
-2.7673707154600646
31
0
0
ARC
5
151
100
AcDbEntity
8
0
100
AcDbCircle
10
-43.625000000014751
20
-3.9999999999999885
30
0
40
0.99999999999999867
210
0
220
0
230
1
100
AcDbArc
50
141.95249323837425
51
180
0
LINE
5
152
100
AcDbEntity
8
0
100
AcDbLine
10
-44.625000000014751
20
-3.999999999999988
30
0
11
-44.625000000014751
21
-24.05499999994889
31
0
0
ARC
5
153
100
AcDbEntity
8
0
100
AcDbCircle
10
-47.625000000025423
20
-24.055000000000007
30
0
40
3.0000000000106808
210
0
220
0
230
1
100
AcDbArc
50
-180.00032838558477
51
0
0
ARC
5
154
100
AcDbEntity
8
0
100
AcDbCircle
10
-53.624965611695714
20
-24.054965611744969
30
0
40
2.9999656117581583
210
-0
220
0
230
1
100
AcDbArc
50
-0.00032838558477539005
51
89.999999999874063
0
LINE
5
155
100
AcDbEntity
8
0
100
AcDbLine
10
-53.62496561168912
20
-21.054999999986808
30
0
11
-91.034999985098779
21
-21.054999999999996
31
0
0
LINE
5
156
100
AcDbEntity
8
0
100
AcDbLine
10
-93.534999985098779
20
-18.554999999999996
30
0
11
-93.534999985098779
21
-2.055000000611511
31
0
0
ARC
5
157
100
AcDbEntity
8
0
100
AcDbCircle
10
-95.53499999999994
20
-2.0550000006115079
30
0
40
2.0000000149011576
210
-0
220
0
230
1
100
AcDbArc
50
0
51
90
0
LINE
5
158
100
AcDbEntity
8
0
100
AcDbLine
10
-95.53499999999994
20
-0.054999985710345867
30
0
11
-99.534999999999798
21
-0.054999985710349419
31
0
0
ARC
5
159
100
AcDbEntity
8
0
100
AcDbCircle
10
-99.534999999999798
20
-2.0550000006115079
30
0
40
2.0000000149011585
210
0
220
-0
230
1
100
AcDbArc
50
90
51
180
0
LINE
5
160
100
AcDbEntity
8
0
100
AcDbLine
10
-101.53500001490107
20
-2.0550000006115119
30
0
11
-101.53500001490104
21
-18.554999999999971
31
0
0
LINE
5
161
100
AcDbEntity
8
0
100
AcDbLine
10
-104.03500001490103
20
-21.054999999999996
30
0
11
-122.5875000001692
21
-21.054999999999993
31
0
0
ARC
5
162
100
AcDbEntity
8
0
100
AcDbCircle
10
-122.5875000001692
20
-24.054999999999982
30
0
40
2.9999999999999893
210
0
220
-0
230
1
100
AcDbArc
50
90
51
179.99953986907158
0
ARC
5
163
100
AcDbEntity
8
0
100
AcDbCircle
10
-128.58749999999998
20
-24.054951815095968
30
0
40
3.0000000000241656
210
0
220
0
230
1
100
AcDbArc
50
180
51
359.99953986907161
0
LINE
5
164
100
AcDbEntity
8
0
100
AcDbLine
10
-131.58750000002416
20
-24.054951815089829
30
0
11
-131.58749999997949
21
-4.0000000000020552
31
0
0
ARC
5
165
100
AcDbEntity
8
0
100
AcDbCircle
10
-132.58749999997949
20
-4.0000000000000124
30
0
40
1.0000000000000142
210
-0
220
0
230
1
100
AcDbArc
50
0
51
90
0
ARC
5
166
100
AcDbEntity
8
0
100
AcDbCircle
10
-135.53499999999994
20
-2.0550000006115079
30
0
40
1.9445722696942946
210
-0
220
0
230
1
100
AcDbArc
50
1.0702577101769555
51
90
0
LINE
5
167
100
AcDbEntity
8
0
100
AcDbLine
10
-135.53499999999994
20
-0.11042773091720917
30
0
11
-139.69299414639619
21
-0.11042773091721346
31
0
0
ARC
5
168
100
AcDbEntity
8
0
100
AcDbCircle
10
-139.69299414639619
20
-2.0947171346027318
30
0
40
1.9842894036855179
210
0
220
-0
230
1
100
AcDbArc
50
90
51
178.18120736347197
0
LWPOLYLINE
5
169
100
AcDbEntity
8
0
100
AcDbPolyline
90
8
70
1
43
0.0
10
-167.98175000000001
20
77.024999999999977
10
-167.98175000000001
20
93.024999999999977
42
0.41421356237313667
10
-168.48175000000001
20
93.524999999999991
10
-183.71250000000003
20
93.524999999999991
42
0.41421356237310542
10
-184.21250000000001
20
93.024999999999977
10
-184.21250000000003
20
77.024999999999977
42
0.41421356237312101
10
-183.71250000000006
20
76.52500000000002
10
-168.48174999999998
20
76.525000000000006
42
0.41421356237310025
0
CIRCLE
5
170
100
AcDbEntity
8
0
100
AcDbCircle
10
-47.625000000025423
20
-24.055000000000007
30
0
40
1.6000000000000014
210
0
220
-0
230
1
0
CIRCLE
5
171
100
AcDbEntity
8
0
100
AcDbCircle
10
-128.58749999999998
20
-24.054951815095968
30
0
40
1.6000000000000014
210
0
220
0
230
1
0
CIRCLE
5
172
100
AcDbEntity
8
0
100
AcDbCircle
10
5.0000000000402451
20
38.100000000000009
30
0
40
1.6000000000000003
210
0
220
-0
230
1
0
LWPOLYLINE
5
173
100
AcDbEntity
8
0
100
AcDbPolyline
90
24
70
1
43
0.0
10
-160.69425000000001
20
77.224999999999994
42
0.41421356237313667
10
-160.19425000000001
20
76.724999999999994
10
-154.19425000000001
20
76.725000000000009
42
0.41421356237310542
10
-153.69425000000004
20
77.224999999999994
10
-153.69425000000001
20
78.224999999999994
42
-0.41421356237307422
10
-153.19425000000001
20
78.725000000000009
10
-151.60575
20
78.724999999999994
42
-0.41421356237310542
10
-151.10575
20
78.224999999999994
10
-151.10575
20
77.224999999999994
42
0.41421356237310025
10
-150.60575
20
76.72499999999998
10
-144.60575
20
76.724999999999994
42
0.41421356237307944
10
-144.10575
20
77.224999999999994
10
-144.10574999999997
20
78.224999999999994
42
-0.41421356237307422
10
-143.60575
20
78.724999999999994
10
-138.75624999999999
20
78.724999999999994
42
0.41421356237310542
10
-138.25624999999999
20
79.224999999999994
10
-138.25624999999999
20
92.224999999999994
42
0.41421356237313667
10
-138.75624999999999
20
92.724999999999994
10
-166.04375000000002
20
92.725000000000009
42
0.41421356237313667
10
-166.54375000000002
20
92.224999999999994
10
-166.54375000000002
20
79.224999999999994
42
0.41421356237313667
10
-166.04375000000002
20
78.724999999999994
10
-161.19425000000004
20
78.724999999999994
42
-0.41421356237313145
10
-160.69425000000001
20
78.224999999999994
0
CIRCLE
5
174
100
AcDbEntity
8
0
100
AcDbCircle
10
-166.68750000000003
20
100.25
30
0
40
1.6000000000000014
210
0
220
-0
230
1
0
CIRCLE
5
175
100
AcDbEntity
8
0
100
AcDbCircle
10
-19.049999999950582
20
100.25
30
0
40
1.5999999999999992
210
0
220
-0
230
1
0
CIRCLE
5
176
100
AcDbEntity
8
0
100
AcDbCircle
10
-90.487499999999997
20
75.449999999999989
30
0
40
1.25
210
0
220
-0
230
1
0
LWPOLYLINE
5
177
100
AcDbEntity
8
0
100
AcDbPolyline
90
8
70
1
43
0.0
10
-73.962500000000006
20
79.224999999999994
10
-73.962500000000006
20
92.224999999999994
42
0.41421356237310542
10
-74.462500000000006
20
92.725000000000009
10
-89.84375
20
92.724999999999994
42
0.41421356237313667
10
-90.343749999999986
20
92.224999999999994
10
-90.34375
20
79.224999999999994
42
0.41421356237310025
10
-89.84375
20
78.72499999999998
10
-74.462500000000006
20
78.724999999999994
42
0.41421356237310542
0
LWPOLYLINE
5
178
100
AcDbEntity
8
0
100
AcDbPolyline
90
15
70
1
43
0.0
10
-136.31825000000001
20
91.724999999999994
42
0.41421356237309503
10
-136.81825000000001
20
91.225000000000009
10
-136.81825000000001
20
77.224999999999994
42
0.414213562373069
10
-136.31825000000003
20
76.72499999999998
10
-130.31825000000001
20
76.724999999999994
42
0.41421356237310025
10
-129.81825000000001
20
77.224999999999994
10
-129.81825000000001
20
78.224999999999994
42
-0.41421356237310542
10
-129.31825000000001
20
78.724999999999994
10
-95.893750000000011
20
78.724999999999994
42
0.41421356237310542
10
-95.393749999999997
20
79.224999999999994
10
-95.393749999999997
20
92.224999999999994
42
0.41421356237309503
10
-95.893750000000011
20
92.725000000000009
10
-130.32499999999999
20
92.725000000000009
42
0.41421356237309503
10
-130.82499999999999
20
92.224999999999994
42
-0.41421356237309503
10
-131.32499999999999
20
91.724999999999994
0
LWPOLYLINE
5
179
100
AcDbEntity
8
0
100
AcDbPolyline
90
8
70
1
43
0.0
10
-52.531250000000007
20
79.224999999999994
10
-52.531250000000007
20
92.224999999999994
42
0.41421356237308982
10
-53.031250000000007
20
92.725000000000009
10
-66.03125
20
92.725000000000009
42
0.41421356237310025
10
-66.531250000000014
20
92.224999999999994
10
-66.53125
20
79.224999999999994
42
0.41421356237310542
10
-66.03125
20
78.724999999999994
10
-53.031250000000007
20
78.724999999999994
42
0.41421356237309503
0
LWPOLYLINE
5
180
100
AcDbEntity
8
0
100
AcDbPolyline
90
8
70
1
43
0.0
10
-3.0249999999999999
20
78.724999999999994
42
0.41421356237309698
10
-2.5249999999999986
20
79.224999999999994
10
-2.5249999999999999
20
92.224999999999994
42
0.41421356237310542
10
-3.0249999999999999
20
92.725000000000023
10
-16.024999999999999
20
92.725000000000009
42
0.41421356237309631
10
-16.525000000000009
20
92.224999999999994
10
-16.525000000000002
20
79.224999999999994
42
0.41421356237309631
10
-16.024999999999999
20
78.724999999999994
0
LWPOLYLINE
5
181
100
AcDbEntity
8
0
100
AcDbPolyline
90
8
70
1
43
0.0
10
-145.11250000000001
20
60.174999999999997
42
0.414213562373069
10
-144.61250000000004
20
59.674999999999983
10
-131.61250000000001
20
59.675000000000004
42
0.41421356237310542
10
-131.11250000000001
20
60.174999999999997
10
-131.11250000000001
20
73.174999999999997
42
0.41421356237309503
10
-131.61250000000001
20
73.675000000000011
10
-144.61250000000001
20
73.674999999999997
42
0.41421356237310025
10
-145.11250000000001
20
73.174999999999997
0
LWPOLYLINE
5
182
100
AcDbEntity
8
0
100
AcDbPolyline
90
8
70
1
43
0.0
10
-150.66249999999999
20
59.675000000000004
42
0.41421356237310542
10
-150.16249999999999
20
60.174999999999997
10
-150.16249999999999
20
73.174999999999997
42
0.41421356237309503
10
-150.66249999999999
20
73.675000000000011
10
-163.66250000000002
20
73.674999999999997
42
0.4142135623730222
10
-164.16249999999997
20
73.174999999999997
10
-164.16250000000002
20
60.174999999999997
42
0.41421356237312623
10
-163.66250000000002
20
59.675000000000011
0
LWPOLYLINE
5
183
100
AcDbEntity
8
0
100
AcDbPolyline
90
8
70
1
43
0.0
10
-169.21250000000001
20
60.174999999999997
10
-169.21250000000001
20
73.174999999999997
42
0.41421356237313145
10
-169.71250000000001
20
73.674999999999997
10
-182.71250000000003
20
73.674999999999997
42
0.4142135623730222
10
-183.21249999999998
20
73.174999999999997
10
-183.21250000000003
20
60.174999999999997
42
0.41421356237312623
10
-182.71250000000003
20
59.675000000000011
10
-169.71250000000001
20
59.675000000000004
42
0.41421356237307422
0
LWPOLYLINE
5
184
100
AcDbEntity
8
0
100
AcDbPolyline
90
8
70
1
43
0.0
10
-112.56250000000001
20
59.675000000000004
42
0.41421356237310542
10
-112.0625
20
60.174999999999997
10
-112.0625
20
73.174999999999997
42
0.41421356237309503
10
-112.56250000000001
20
73.675000000000011
10
-125.5625
20
73.674999999999997
42
0.41421356237310025
10
-126.0625
20
73.174999999999997
10
-126.06250000000001
20
60.174999999999997
42
0.414213562373069
10
-125.56250000000003
20
59.674999999999983
0
LWPOLYLINE
5
185
100
AcDbEntity
8
0
100
AcDbPolyline
90
8
70
1
43
0.0
10
-3.0249999999999999
20
2.5249999999999999
42
0.41421356237309437
10
-2.5249999999999999
20
3.0249999999999999
10
-2.5249999999999999
20
16.024999999999999
42
0.4142135623730947
10
-3.0249999999999999
20
16.525000000000002
10
-16.024999999999999
20
16.525000000000002
42
0.41421356237309243
10
-16.525000000000002
20
16.024999999999999
10
-16.525000000000002
20
3.0249999999999999
42
0.41421356237309309
10
-16.024999999999999
20
2.5249999999999986
0
LWPOLYLINE
5
186
100
AcDbEntity
8
0
100
AcDbPolyline
90
8
70
1
43
0.0
10
-141.13749999999999
20
40.625
42
0.41421356237308982
10
-140.63749999999999
20
41.125
10
-140.63749999999999
20
54.125000000000007
42
0.41421356237309503
10
-141.13749999999999
20
54.625000000000014
10
-154.13749999999999
20
54.625
42
0.41421356237308982
10
-154.63750000000002
20
54.125000000000007
10
-154.63750000000002
20
41.125
42
0.41421356237309503
10
-154.13749999999999
20
40.624999999999993
0
LWPOLYLINE
5
187
100
AcDbEntity
8
0
100
AcDbPolyline
90
8
70
1
43
0.0
10
-107.80000000000001
20
2.5249999999999999
42
0.41421356237310542
10
-107.29999999999998
20
3.0249999999999999
10
-107.30000000000001
20
16.024999999999999
42
0.41421356237309631
10
-107.80000000000001
20
16.525000000000009
10
-120.8
20
16.525000000000002
42
0.41421356237307555
10
-121.29999999999998
20
16.024999999999999
10
-121.30000000000001
20
3.0249999999999999
42
0.41421356237307355
10
-120.8
20
2.5249999999999941
0
LWPOLYLINE
5
188
100
AcDbEntity
8
0
100
AcDbPolyline
90
8
70
1
43
0.0
10
-117.32500000000002
20
21.575000000000003
42
0.41421356237310802
10
-116.82500000000002
20
22.074999999999999
10
-116.82500000000002
20
35.075000000000003
42
0.41421356237309243
10
-117.32500000000002
20
35.575000000000003
10
-130.32499999999999
20
35.575000000000003
42
0.41421356237310542
10
-130.82499999999999
20
35.075000000000003
10
-130.82499999999999
20
22.074999999999999
42
0.41421356237309503
10
-130.32499999999999
20
21.574999999999992
0
LWPOLYLINE
5
189
100
AcDbEntity
8
0
100
AcDbPolyline
90
8
70
1
43
0.0
10
-92.725000000000009
20
22.074999999999999
42
0.41421356237309503
10
-92.224999999999994
20
21.574999999999992
10
-79.224999999999994
20
21.575000000000003
42
0.41421356237309764
10
-78.725000000000009
20
22.074999999999999
10
-78.724999999999994
20
35.075000000000003
42
0.41421356237309764
10
-79.224999999999994
20
35.575000000000003
10
-92.224999999999994
20
35.575000000000003
42
0.41421356237310542
10
-92.725000000000009
20
35.075000000000003
0
LWPOLYLINE
5
190
100
AcDbEntity
8
0
100
AcDbPolyline
90
8
70
1
43
0.0
10
-149.875
20
22.074999999999999
42
0.41421356237309503
10
-149.375
20
21.574999999999992
10
-136.375
20
21.575000000000003
42
0.4142135623730846
10
-135.87500000000003
20
22.074999999999999
10
-135.875
20
35.075000000000003
42
0.41421356237307161
10
-136.375
20
35.575000000000003
10
-149.375
20
35.575000000000003
42
0.41421356237310542
10
-149.875
20
35.075000000000003
0
LWPOLYLINE
5
191
100
AcDbEntity
8
0
100
AcDbPolyline
90
8
70
1
43
0.0
10
-55.412500000000009
20
21.575000000000003
42
0.41421356237309503
10
-54.912500000000009
20
22.074999999999999
10
-54.912500000000009
20
35.075000000000003
42
0.41421356237309503
10
-55.412500000000009
20
35.575000000000003
10
-68.412499999999994
20
35.575000000000003
42
0.41421356237309503
10
-68.912499999999994
20
35.075000000000003
10
-68.912499999999994
20
22.074999999999999
42
0.41421356237309503
10
-68.412499999999994
20
21.575000000000003
0
LWPOLYLINE
5
192
100
AcDbEntity
8
0
100
AcDbPolyline
90
8
70
1
43
0.0
10
-145.90000000000001
20
2.5249999999999999
42
0.41421356237307422
10
-145.40000000000001
20
3.0249999999999999
10
-145.40000000000001
20
16.024999999999999
42
0.41421356237307555
10
-145.90000000000001
20
16.525000000000009
10
-158.90000000000001
20
16.525000000000002
42
0.41421356237310675
10
-159.40000000000001
20
16.024999999999999
10
-159.40000000000001
20
3.0249999999999999
42
0.41421356237309437
10
-158.90000000000001
20
2.5249999999999941
0
LWPOLYLINE
5
193
100
AcDbEntity
8
0
100
AcDbPolyline
90
8
70
1
43
0.0
10
-21.575000000000003
20
22.074999999999999
10
-21.575000000000003
20
35.075000000000003
42
0.41421356237309503
10
-22.074999999999999
20
35.575000000000003
10
-35.075000000000003
20
35.575000000000003
42
0.41421356237309503
10
-35.575000000000003
20
35.075000000000003
10
-35.575000000000003
20
22.074999999999999
42
0.41421356237309503
10
-35.075000000000003
20
21.575000000000003
10
-22.074999999999999
20
21.575000000000003
42
0.41421356237309503
0
LWPOLYLINE
5
194
100
AcDbEntity
8
0
100
AcDbPolyline
90
8
70
1
43
0.0
10
-178.44999999999999
20
3.0249999999999999
42
0.41421356237313273
10
-177.94999999999999
20
2.5249999999999995
10
-164.95000000000002
20
2.5249999999999999
42
0.41421356237307749
10
-164.44999999999996
20
3.0249999999999999
10
-164.44999999999999
20
16.024999999999999
42
0.41421356237313406
10
-164.95000000000002
20
16.525000000000002
10
-177.94999999999999
20
16.525000000000002
42
0.4142135623730781
10
-178.45000000000002
20
16.024999999999999
0
LWPOLYLINE
5
195
100
AcDbEntity
8
0
100
AcDbPolyline
90
8
70
1
43
0.0
10
-3.0249999999999999
20
21.575000000000003
42
0.4142135623730957
10
-2.5250000000000004
20
22.074999999999999
10
-2.5249999999999999
20
35.075000000000003
42
0.41421356237309537
10
-3.0249999999999999
20
35.575000000000003
10
-16.024999999999999
20
35.575000000000003
42
0.41421356237309631
10
-16.525000000000002
20
35.075000000000003
10
-16.525000000000002
20
22.074999999999999
42
0.41421356237309243
10
-16.024999999999999
20
21.574999999999996
0
LWPOLYLINE
5
196
100
AcDbEntity
8
0
100
AcDbPolyline
90
8
70
1
43
0.0
10
-98.275000000000006
20
21.575000000000003
42
0.41421356237310802
10
-97.775000000000006
20
22.074999999999999
10
-97.775000000000006
20
35.075000000000003
42
0.41421356237309243
10
-98.275000000000006
20
35.575000000000003
10
-111.27500000000001
20
35.575000000000003
42
0.41421356237310542
10
-111.77500000000002
20
35.075000000000003
10
-111.77500000000002
20
22.074999999999999
42
0.41421356237309503
10
-111.27500000000001
20
21.574999999999992
0
LWPOLYLINE
5
197
100
AcDbEntity
8
0
100
AcDbPolyline
90
8
70
1
43
0.0
10
-22.074999999999999
20
78.724999999999994
42
0.41421356237309764
10
-21.574999999999996
20
79.224999999999994
10
-21.575000000000003
20
92.224999999999994
42
0.41421356237310802
10
-22.074999999999999
20
92.725000000000009
10
-35.075000000000003
20
92.725000000000009
42
0.41421356237309243
10
-35.575000000000003
20
92.224999999999994
10
-35.575000000000003
20
79.224999999999994
42
0.41421356237309764
10
-35.075000000000003
20
78.725000000000009
0
LWPOLYLINE
5
198
100
AcDbEntity
8
0
100
AcDbPolyline
90
8
70
1
43
0.0
10
-22.074999999999999
20
59.675000000000004
42
0.41421356237309764
10
-21.574999999999996
20
60.174999999999997
10
-21.575000000000003
20
73.174999999999997
42
0.41421356237309503
10
-22.074999999999999
20
73.674999999999997
10
-35.075000000000003
20
73.674999999999997
42
0.41421356237309503
10
-35.575000000000003
20
73.174999999999997
10
-35.575000000000003
20
60.174999999999997
42
0.41421356237309764
10
-35.075000000000003
20
59.675000000000011
0
LWPOLYLINE
5
199
100
AcDbEntity
8
0
100
AcDbPolyline
90
8
70
1
43
0.0
10
-62.056250000000006
20
60.174999999999997
10
-62.056250000000006
20
73.174999999999997
42
0.41421356237309503
10
-62.556250000000006
20
73.674999999999997
10
-75.556250000000006
20
73.674999999999997
42
0.41421356237309503
10
-76.056250000000006
20
73.174999999999997
10
-76.056250000000006
20
60.174999999999997
42
0.41421356237310542
10
-75.556250000000006
20
59.675000000000004
10
-62.556250000000006
20
59.675000000000004
42
0.41421356237310542
0
LWPOLYLINE
5
200
100
AcDbEntity
8
0
100
AcDbPolyline
90
8
70
1
43
0.0
10
-69.700000000000003
20
2.5249999999999999
42
0.41421356237309664
10
-69.200000000000003
20
3.0249999999999999
10
-69.200000000000003
20
16.024999999999999
42
0.41421356237309764
10
-69.700000000000003
20
16.525000000000002
10
-82.700000000000017
20
16.525000000000002
42
0.41421356237307555
10
-83.200000000000003
20
16.024999999999999
10
-83.200000000000017
20
3.0249999999999999
42
0.41421356237307355
10
-82.700000000000017
20
2.5249999999999941
0
LWPOLYLINE
5
201
100
AcDbEntity
8
0
100
AcDbPolyline
90
8
70
1
43
0.0
10
-126.85000000000001
20
2.5249999999999999
42
0.41421356237307422
10
-126.34999999999999
20
3.0249999999999999
10
-126.34999999999999
20
16.024999999999999
42
0.41421356237307555
10
-126.85000000000001
20
16.525000000000009
10
-139.84999999999999
20
16.525000000000002
42
0.41421356237310675
10
-140.34999999999999
20
16.024999999999999
10
-140.34999999999999
20
3.0249999999999999
42
0.41421356237309437
10
-139.84999999999999
20
2.5249999999999941
0
LWPOLYLINE
5
202
100
AcDbEntity
8
0
100
AcDbPolyline
90
8
70
1
43
0.0
10
-93.512500000000003
20
59.675000000000004
42
0.41421356237310542
10
-93.012499999999989
20
60.174999999999997
10
-93.012499999999989
20
73.174999999999997
42
0.41421356237309503
10
-93.512500000000003
20
73.675000000000011
10
-106.51250000000002
20
73.674999999999997
42
0.41421356237308982
10
-107.01250000000002
20
73.174999999999997
10
-107.01250000000002
20
60.174999999999997
42
0.41421356237310025
10
-106.51250000000002
20
59.674999999999983
0
LWPOLYLINE
5
203
100
AcDbEntity
8
0
100
AcDbPolyline
90
8
70
1
43
0.0
10
-22.074999999999999
20
2.5249999999999999
42
0.41421356237309537
10
-21.575000000000003
20
3.0249999999999999
10
-21.575000000000003
20
16.024999999999999
42
0.4142135623730937
10
-22.074999999999996
20
16.525000000000002
10
-35.075000000000003
20
16.525000000000002
42
0.41421356237309503
10
-35.575000000000003
20
16.024999999999999
10
-35.575000000000003
20
3.0249999999999999
42
0.4142135623730957
10
-35.075000000000003
20
2.5250000000000004
0
LWPOLYLINE
5
204
100
AcDbEntity
8
0
100
AcDbPolyline
90
8
70
1
43
0.0
10
-22.074999999999999
20
40.625
42
0.41421356237309503
10
-21.575000000000003
20
41.125
10
-21.575000000000003
20
54.125000000000007
42
0.41421356237309503
10
-22.074999999999999
20
54.625
10
-35.075000000000003
20
54.625
42
0.41421356237309503
10
-35.575000000000003
20
54.125000000000007
10
-35.575000000000003
20
41.125
42
0.41421356237309503
10
-35.075000000000003
20
40.625
0
LWPOLYLINE
5
205
100
AcDbEntity
8
0
100
AcDbPolyline
90
8
70
1
43
0.0
10
-3.0249999999999999
20
59.675000000000004
42
0.41421356237309698
10
-2.5249999999999986
20
60.174999999999997
10
-2.5249999999999999
20
73.174999999999997
42
0.41421356237309404
10
-3.0249999999999999
20
73.674999999999997
10
-16.024999999999999
20
73.674999999999997
42
0.41421356237309503
10
-16.524999999999999
20
73.174999999999997
10
-16.525000000000002
20
60.174999999999997
42
0.41421356237309631
10
-16.024999999999999
20
59.675000000000004
0
LWPOLYLINE
5
206
100
AcDbEntity
8
0
100
AcDbPolyline
90
8
70
1
43
0.0
10
-160.1875
20
40.625
42
0.41421356237308982
10
-159.6875
20
41.125
10
-159.6875
20
54.125000000000007
42
0.41421356237309503
10
-160.1875
20
54.625000000000014
10
-173.1875
20
54.625
42
0.4142135623730222
10
-173.6875
20
54.125000000000007
10
-173.68750000000003
20
41.125
42
0.41421356237312101
10
-173.1875
20
40.625000000000014
0
LWPOLYLINE
5
207
100
AcDbEntity
8
0
100
AcDbPolyline
90
8
70
1
43
0.0
10
-60.11825000000001
20
72.674999999999997
42
0.41421356237309503
10
-60.618250000000003
20
72.174999999999997
10
-60.618250000000003
20
58.174999999999997
42
0.41421356237309503
10
-60.11825000000001
20
57.674999999999997
10
-54.118250000000003
20
57.674999999999997
42
0.41421356237309503
10
-53.618250000000003
20
58.174999999999997
10
-53.618250000000003
20
72.174999999999997
42
0.41421356237309503
10
-54.118250000000003
20
72.674999999999997
0
LWPOLYLINE
5
208
100
AcDbEntity
8
0
100
AcDbPolyline
90
8
70
1
43
0.0
10
-83.487499999999983
20
41.125
10
-83.487499999999983
20
54.125000000000007
42
0.41421356237309503
10
-83.987499999999997
20
54.625000000000014
10
-96.987500000000011
20
54.625
42
0.41421356237308982
10
-97.487500000000011
20
54.125000000000007
10
-97.487500000000011
20
41.125
42
0.41421356237309503
10
-96.987500000000011
20
40.624999999999993
10
-83.987499999999997
20
40.625
42
0.41421356237308982
0
LWPOLYLINE
5
209
100
AcDbEntity
8
0
100
AcDbPolyline
90
8
70
1
43
0.0
10
-155.42500000000001
20
21.575000000000003
42
0.4142135623730846
10
-154.92500000000004
20
22.074999999999999
10
-154.92500000000001
20
35.075000000000003
42
0.41421356237307161
10
-155.42500000000001
20
35.575000000000003
10
-168.42500000000001
20
35.575000000000003
42
0.41421356237304563
10
-168.92500000000001
20
35.075000000000003
10
-168.92500000000001
20
22.074999999999999
42
0.41421356237310281
10
-168.42500000000001
20
21.574999999999982
0
LWPOLYLINE
5
210
100
AcDbEntity
8
0
100
AcDbPolyline
90
8
70
1
43
0.0
10
-50.650000000000006
20
2.5249999999999999
42
0.41421356237309404
10
-50.150000000000006
20
3.0249999999999999
10
-50.150000000000006
20
16.024999999999999
42
0.41421356237309503
10
-50.650000000000006
20
16.524999999999999
10
-63.650000000000006
20
16.525000000000002
42
0.41421356237309631
10
-64.150000000000006
20
16.024999999999999
10
-64.150000000000006
20
3.0249999999999999
42
0.41421356237309698
10
-63.650000000000006
20
2.5249999999999986
0
LWPOLYLINE
5
211
100
AcDbEntity
8
0
100
AcDbPolyline
90
8
70
1
43
0.0
10
-88.75
20
2.5249999999999999
42
0.41421356237310542
10
-88.249999999999972
20
3.0249999999999999
10
-88.25
20
16.024999999999999
42
0.41421356237309631
10
-88.75
20
16.525000000000009
10
-101.75
20
16.525000000000002
42
0.41421356237310675
10
-102.25000000000001
20
16.024999999999999
10
-102.25000000000001
20
3.0249999999999999
42
0.41421356237309437
10
-101.75
20
2.5249999999999941
0
LWPOLYLINE
5
212
100
AcDbEntity
8
0
100
AcDbPolyline
90
8
70
1
43
0.0
10
-84.494249999999994
20
72.174999999999997
10
-84.494249999999994
20
58.174999999999997
42
0.41421356237307422
10
-83.994249999999994
20
57.67499999999999
10
-77.994249999999994
20
57.674999999999997
42
0.41421356237309503
10
-77.494249999999994
20
58.174999999999997
10
-77.494249999999994
20
72.174999999999997
42
0.41421356237309503
10
-77.994249999999994
20
72.674999999999997
10
-83.994249999999994
20
72.674999999999997
42
0.41421356237310025
0
LWPOLYLINE
5
213
100
AcDbEntity
8
0
100
AcDbPolyline
90
8
70
1
43
0.0
10
-3.0249999999999999
20
40.625
42
0.41421356237309437
10
-2.525000000000003
20
41.125
10
-2.5249999999999999
20
54.125000000000007
42
0.41421356237309404
10
-3.0249999999999999
20
54.625
10
-16.024999999999999
20
54.625
42
0.41421356237309503
10
-16.524999999999999
20
54.125000000000007
10
-16.525000000000002
20
41.125
42
0.4142135623730937
10
-16.024999999999999
20
40.625
0
LWPOLYLINE
5
214
100
AcDbEntity
8
0
100
AcDbPolyline
90
8
70
1
43
0.0
10
-71.293750000000003
20
41.125
42
0.41421356237309503
10
-70.793750000000003
20
40.625
10
-57.79375000000001
20
40.625
42
0.41421356237309503
10
-57.29375000000001
20
41.125
10
-57.29375000000001
20
54.125000000000007
42
0.41421356237309503
10
-57.79375000000001
20
54.625
10
-70.793750000000003
20
54.625
42
0.41421356237309503
10
-71.293750000000003
20
54.125000000000007
0
LWPOLYLINE
5
215
100
AcDbEntity
8
0
100
AcDbPolyline
90
8
70
1
43
0.0
10
-103.03750000000001
20
40.625
42
0.41421356237308982
10
-102.53749999999999
20
41.125
10
-102.53749999999999
20
54.125000000000007
42
0.41421356237309503
10
-103.03750000000001
20
54.625000000000014
10
-116.03749999999999
20
54.625
42
0.41421356237310025
10
-116.53749999999999
20
54.125000000000007
10
-116.53750000000001
20
41.125
42
0.41421356237307422
10
-116.03749999999999
20
40.624999999999993
0
LWPOLYLINE
5
216
100
AcDbEntity
8
0
100
AcDbPolyline
90
8
70
1
43
0.0
10
-122.08750000000002
20
40.625
42
0.41421356237308982
10
-121.58750000000001
20
41.125
10
-121.58750000000001
20
54.125000000000007
42
0.41421356237309503
10
-122.08750000000002
20
54.625000000000014
10
-135.08750000000001
20
54.625
42
0.41421356237310025
10
-135.58750000000001
20
54.125000000000007
10
-135.58750000000001
20
41.125
42
0.41421356237307422
10
-135.08750000000001
20
40.624999999999993
0
ARC
5
217
100
AcDbEntity
8
0
100
AcDbCircle
10
-104.03500001490103
20
-18.554999999999996
30
0
40
2.5
210
-0
220
0
230
1
100
AcDbArc
50
-90
51
0
0
ARC
5
218
100
AcDbEntity
8
0
100
AcDbCircle
10
-91.034999985098779
20
-18.554999999999996
30
0
40
2.5
210
0
220
0
230
1
100
AcDbArc
50
180
51
270
0
ARC
5
219
100
AcDbEntity
8
0
100
AcDbCircle
10
-34.2005041941458
20
-1.9999999999999902
30
0
40
0.99999999999999534
210
0
220
0
230
1
100
AcDbArc
50
181.05048148288736
51
270
0
ARC
5
220
100
AcDbEntity
8
0
100
AcDbCircle
10
-45.200000014901917
20
-2.7673707154600624
30
0
40
0.99999999999999623
210
-0
220
0
230
1
100
AcDbArc
50
321.9524932383739
51
360
0
ARC
5
221
100
AcDbEntity
8
0
100
AcDbCircle
10
-132.59094143207278
20
-1.9999999999999978
30
0
40
0.99999999999999734
210
0
220
0
230
1
100
AcDbArc
50
181.07025771017697
51
270
0
ARC
5
222
100
AcDbEntity
8
0
100
AcDbCircle
10
-142.67578007726053
20
-1.9999999999999991
30
0
40
0.99999999999999978
210
-0
220
0
230
1
100
AcDbArc
50
270
51
358.18120736347197
0
LINE
5
223
100
AcDbEntity
8
0
100
AcDbLine
10
-142.67578007726053
20
-2.9999999999999987
30
0
11
-179.82499999999999
21
-3.0000000000000009
31
0
0
CIRCLE
5
224
100
AcDbEntity
8
0
100
AcDbCircle
10
-66.675000000000011
20
18.300000000000001
30
0
40
1.25
210
0
220
-0
230
1
0
CIRCLE
5
225
100
AcDbEntity
8
0
100
AcDbCircle
10
-19.050000000000001
20
75.449999999999989
30
0
40
1.2500000000000022
210
0
220
-0
230
1
0
CIRCLE
5
226
100
AcDbEntity
8
0
100
AcDbCircle
10
-166.68750000000003
20
57.899999999999999
30
0
40
1.25
210
0
220
-0
230
1
0
CIRCLE
5
227
100
AcDbEntity
8
0
100
AcDbCircle
10
-142.875
20
18.300000000000001
30
0
40
1.25
210
0
220
-0
230
1
0
CIRCLE
5
228
100
AcDbEntity
8
0
100
AcDbCircle
10
-19.050000000000001
20
18.300000000000001
30
0
40
1.2500000000000022
210
0
220
-0
230
1
0
ENDSEC
0
SECTION
2
OBJECTS
0
DICTIONARY
5
C
100
AcDbDictionary
3
ACAD_GROUP
350
D
3
ACAD_MLINESTYLE
350
17
0
DICTIONARY
5
D
100
AcDbDictionary
0
DICTIONARY
5
1A
330
C
100
AcDbDictionary
0
DICTIONARY
5
17
100
AcDbDictionary
0
ENDSEC
0
EOF
