0
SECTION
2
HEADER
9
$INSUNITS
70
4
9
$ACADVER
1
AC1014
9
$HANDSEED
5
FFFF
0
ENDSEC
0
SECTION
2
TABLES
0
TABLE
2
VPORT
5
8
100
AcDbSymbolTable
0
ENDTAB
0
TABLE
2
LTYPE
5
5
100
AcDbSymbolTable
0
LTYPE
5
14
100
AcDbSymbolTableRecord
100
AcDbLinetypeTableRecord
2
BYBLOCK
70
0
0
LTYPE
5
15
100
AcDbSymbolTableRecord
100
AcDbLinetypeTableRecord
2
BYLAYER
70
0
0
ENDTAB
0
TABLE
2
LAYER
5
2
100
AcDbSymbolTable
70
2
0
LAYER
5
50
100
AcDbSymbolTableRecord
100
AcDbLayerTableRecord
2
0
70
0
6
CONTINUOUS
0
ENDTAB
0
TABLE
2
STYLE
5
3
100
AcDbSymbolTable
70
1
0
STYLE
5
11
100
AcDbSymbolTableRecord
100
AcDbTextStyleTableRecord
2
STANDARD
70
0
0
ENDTAB
0
TABLE
2
VIEW
5
6
100
AcDbSymbolTable
70
0
0
ENDTAB
0
TABLE
2
UCS
5
7
100
AcDbSymbolTable
70
0
0
ENDTAB
0
TABLE
2
APPID
5
9
100
AcDbSymbolTable
70
2
0
APPID
5
12
100
AcDbSymbolTableRecord
100
AcDbRegAppTableRecord
2
ACAD
70
0
0
ENDTAB
0
TABLE
2
DIMSTYLE
5
A
100
AcDbSymbolTable
70
1
0
ENDTAB
0
TABLE
2
BLOCK_RECORD
5
1
100
AcDbSymbolTable
70
1
0
BLOCK_RECORD
5
1F
100
AcDbSymbolTableRecord
100
AcDbBlockTableRecord
2
*MODEL_SPACE
0
BLOCK_RECORD
5
1B
100
AcDbSymbolTableRecord
100
AcDbBlockTableRecord
2
*PAPER_SPACE
0
ENDTAB
0
ENDSEC
0
SECTION
2
BLOCKS
0
BLOCK
5
20
100
AcDbEntity
100
AcDbBlockBegin
2
*MODEL_SPACE
0
ENDBLK
5
21
100
AcDbEntity
100
AcDbBlockEnd
0
BLOCK
5
1C
100
AcDbEntity
100
AcDbBlockBegin
2
*PAPER_SPACE
0
ENDBLK
5
1D
100
AcDbEntity
100
AcDbBlockEnd
0
ENDSEC
0
SECTION
2
ENTITIES
0
LINE
5
100
100
AcDbEntity
8
0
100
AcDbLine
10
-275.93999999980446
20
-0.054139194273701854
30
0
11
-271.9399999998044
21
-0.054139194273727376
31
0
0
ARC
5
101
100
AcDbEntity
8
0
100
AcDbCircle
10
-275.93999999980446
20
-2.0549999999935844
30
0
40
2.0008608057199524
210
0
220
0
230
1
100
AcDbArc
50
90
51
180
0
LINE
5
102
100
AcDbEntity
8
0
100
AcDbLine
10
-277.94086080552438
20
-6.0550000000457143
30
0
11
-277.94086080552438
21
-2.0549999999935564
31
0
0
LINE
5
103
100
AcDbEntity
8
0
100
AcDbLine
10
-269.93913919408459
20
-2.054999999993564
30
0
11
-269.93913919408459
21
-6.0549999992384862
31
0
0
ARC
5
104
100
AcDbEntity
8
0
100
AcDbCircle
10
-271.9399999998044
20
-2.0549999999935831
30
0
40
2.0008608057198529
210
0
220
-0
230
1
100
AcDbArc
50
0
51
90
0
ARC
5
105
100
AcDbEntity
8
0
100
AcDbCircle
10
-238.95290747044982
20
-2.0010698204266006
30
0
40
1.0000000000000326
210
0
220
0
230
1
100
AcDbArc
50
271.87412017662655
51
358.97453149070503
0
ARC
5
106
100
AcDbEntity
8
0
100
AcDbCircle
10
-235.93999999971427
20
-2.0549999999998088
30
0
40
2.0133900994532721
210
0
220
-0
230
1
100
AcDbArc
50
89.999999999993548
51
178.97453149070714
0
LINE
5
107
100
AcDbEntity
8
0
100
AcDbLine
10
-235.93999999971405
20
-0.041609900546536738
30
0
11
-231.93999999999082
21
-0.041609900546394074
31
0
0
ARC
5
108
100
AcDbEntity
8
0
100
AcDbCircle
10
-231.93999999999082
20
-2.0549999999998221
30
0
40
2.0133900994534302
210
0
220
-0
230
1
100
AcDbArc
50
1.0458131073127521
51
90
0
ARC
5
109
100
AcDbEntity
8
0
100
AcDbCircle
10
-228.9271118687314
20
-2.0000000000000333
30
0
40
0.999999999999994
210
0
220
0
230
1
100
AcDbArc
50
181.04581310731379
51
270
0
LINE
5
110
100
AcDbEntity
8
0
100
AcDbLine
10
-228.9271118687314
20
-3.0000000000000271
30
0
11
-191.65000000000003
21
-3.0000000000000782
31
0
0
ARC
5
111
100
AcDbEntity
8
0
100
AcDbCircle
10
-191.65000000000003
20
-2.0000000000000644
30
0
40
1.000000000000014
210
-0
220
0
230
1
100
AcDbArc
50
270
51
360
0
LINE
5
112
100
AcDbEntity
8
0
100
AcDbLine
10
-190.65000000000001
20
-2.0000000000000653
30
0
11
-190.64999999999998
21
18.199999999999985
31
0
0
ARC
5
113
100
AcDbEntity
8
0
100
AcDbCircle
10
-189.64999999999998
20
18.199999999999985
30
0
40
1.0000000000000164
210
0
220
-0
230
1
100
AcDbArc
50
90
51
180
0
LINE
5
114
100
AcDbEntity
8
0
100
AcDbLine
10
-189.64999999999998
20
19.200000000000003
30
0
11
-182.12500000000006
21
19.200000000000003
31
0
0
ARC
5
115
100
AcDbEntity
8
0
100
AcDbCircle
10
-182.12500000000006
20
20.20000000000006
30
0
40
1.0000000000000564
210
-0
220
0
230
1
100
AcDbArc
50
-90
51
0
0
LINE
5
116
100
AcDbEntity
8
0
100
AcDbLine
10
-181.125
20
20.20000000000006
30
0
11
-181.125
21
36.949999999999946
31
0
0
ARC
5
117
100
AcDbEntity
8
0
100
AcDbCircle
10
-182.12500000000006
20
36.949999999999946
30
0
40
1.0000000000000497
210
0
220
-0
230
1
100
AcDbArc
50
0
51
90
0
LINE
5
118
100
AcDbEntity
8
0
100
AcDbLine
10
-182.12500000000006
20
37.950000000000003
30
0
11
-184.88749999999996
21
37.950000000000003
31
0
0
ARC
5
119
100
AcDbEntity
8
0
100
AcDbCircle
10
-184.88749999999996
20
38.95000000000001
30
0
40
1.0000000000000142
210
0
220
0
230
1
100
AcDbArc
50
180
51
270
0
LINE
5
120
100
AcDbEntity
8
0
100
AcDbLine
10
-185.88749999999999
20
38.950000000000017
30
0
11
-185.88749999999999
21
55.999999999999986
31
0
0
ARC
5
121
100
AcDbEntity
8
0
100
AcDbCircle
10
-186.88749999999999
20
55.999999999999986
30
0
40
1.0000000000000142
210
0
220
-0
230
1
100
AcDbArc
50
0
51
90
0
LINE
5
122
100
AcDbEntity
8
0
100
AcDbLine
10
-186.88749999999999
20
57
30
0
11
-194.41249999999985
21
57
31
0
0
ARC
5
123
100
AcDbEntity
8
0
100
AcDbCircle
10
-194.41249999999985
20
58.000000000000142
30
0
40
1.0000000000001208
210
0
220
0
230
1
100
AcDbArc
50
180
51
270
0
LINE
5
124
100
AcDbEntity
8
0
100
AcDbLine
10
-195.41249999999997
20
58.000000000000121
30
0
11
-195.41249999999997
21
97.249999999999943
31
0
0
ARC
5
125
100
AcDbEntity
8
0
100
AcDbCircle
10
-196.41250000000002
20
97.249999999999943
30
0
40
1.0000000000000497
210
0
220
-0
230
1
100
AcDbArc
50
0
51
90
0
LINE
5
126
100
AcDbEntity
8
0
100
AcDbLine
10
-196.41250000000002
20
98.25
30
0
11
-203.78749999999997
21
98.25
31
0
0
ARC
5
127
100
AcDbEntity
8
0
100
AcDbCircle
10
-203.78749999999997
20
97.25
30
0
40
0.99999999999999645
210
0
220
-0
230
1
100
AcDbArc
50
90
51
180
0
LINE
5
128
100
AcDbEntity
8
0
100
AcDbLine
10
-204.78749999999997
20
97.25
30
0
11
-204.78749999999997
21
96.249999999999972
31
0
0
ARC
5
129
100
AcDbEntity
8
0
100
AcDbCircle
10
-205.78749999999997
20
96.249999999999972
30
0
40
0.99999999999997868
210
0
220
0
230
1
100
AcDbArc
50
-89.999999999996746
51
0
0
LINE
5
130
100
AcDbEntity
8
0
100
AcDbLine
10
-205.78749999999991
20
95.249999999999986
30
0
11
-208.31250000000034
21
95.249999999999986
31
0
0
ARC
5
131
100
AcDbEntity
8
0
100
AcDbCircle
10
-208.31250000000034
20
98.250000000000014
30
0
40
3.0000000000000071
210
0
220
0
230
1
100
AcDbArc
50
180
51
270
0
LINE
5
132
100
AcDbEntity
8
0
100
AcDbLine
10
-211.31250000000034
20
98.250000000000469
30
0
11
-211.31249999999997
21
100.24999999999949
31
0
0
ARC
5
133
100
AcDbEntity
8
0
100
AcDbCircle
10
-214.3125
20
100.25000000000003
30
0
40
3.0000000000000071
210
-0
220
0
230
1
100
AcDbArc
50
0
51
180
0
LINE
5
134
100
AcDbEntity
8
0
100
AcDbLine
10
-217.3125
20
100.25000000000055
30
0
11
-217.31250000000034
21
98.249999999999588
31
0
0
ARC
5
135
100
AcDbEntity
8
0
100
AcDbCircle
10
-220.31250000000031
20
98.250000000000085
30
0
40
2.9999999999999893
210
0
220
0
230
1
100
AcDbArc
50
270
51
360
0
LINE
5
136
100
AcDbEntity
8
0
100
AcDbLine
10
-220.31250000000031
20
95.250000000000085
30
0
11
-336.90000000490897
21
95.250000000000043
31
0
0
ARC
5
137
100
AcDbEntity
8
0
100
AcDbCircle
10
-336.90000000490892
20
98.250000000000043
30
0
40
2.9999999999999716
210
0
220
0
230
1
100
AcDbArc
50
180
51
269.99999999999886
0
LINE
5
138
100
AcDbEntity
8
0
100
AcDbLine
10
-339.90000000490886
20
98.250000007960253
30
0
11
-339.90000000000003
21
100.24999999203929
31
0
0
ARC
5
139
100
AcDbEntity
8
0
100
AcDbCircle
10
-342.89999999999998
20
100.2499999999995
30
0
40
2.9999999999999716
210
-0
220
0
230
1
100
AcDbArc
50
0
51
180
0
LINE
5
140
100
AcDbEntity
8
0
100
AcDbLine
10
-345.89999999999998
20
100.25000000795971
30
0
11
-345.90000000490897
21
98.249999992636262
31
0
0
ARC
5
141
100
AcDbEntity
8
0
100
AcDbCircle
10
-348.90000000490892
20
98.249999999999773
30
0
40
3.0000000000000782
210
0
220
0
230
1
100
AcDbArc
50
269.99999999999886
51
360
0
LINE
5
142
100
AcDbEntity
8
0
100
AcDbLine
10
-348.90000000490897
20
95.249999999999702
30
0
11
-351.42500000000013
21
95.249999999999787
31
0
0
ARC
5
143
100
AcDbEntity
8
0
100
AcDbCircle
10
-351.42500000000007
20
96.249999999999702
30
0
40
0.99999999999994316
210
0
220
0
230
1
100
AcDbArc
50
180
51
269.99999999999676
0
LINE
5
144
100
AcDbEntity
8
0
100
AcDbLine
10
-352.42500000000001
20
96.249999999999659
30
0
11
-352.42500000000001
21
97.250000000000028
31
0
0
ARC
5
145
100
AcDbEntity
8
0
100
AcDbCircle
10
-353.42499999999995
20
97.250000000000028
30
0
40
0.99999999999994316
210
0
220
-0
230
1
100
AcDbArc
50
0
51
90
0
LINE
5
146
100
AcDbEntity
8
0
100
AcDbLine
10
-353.42499999999995
20
98.249999999999972
30
0
11
-360.94999999999578
21
98.249999999999972
31
0
0
ARC
5
147
100
AcDbEntity
8
0
100
AcDbCircle
10
-360.94999999999578
20
97.249999999995765
30
0
40
1.0000000000042064
210
0
220
-0
230
1
100
AcDbArc
50
90
51
180
0
LINE
5
148
100
AcDbEntity
8
0
100
AcDbLine
10
-361.94999999999999
20
97.249999999995765
30
0
11
-361.94999999999993
21
44.100000000000009
31
0
0
ARC
5
149
100
AcDbEntity
8
0
100
AcDbCircle
10
-364.95000000000005
20
44.10000000000008
30
0
40
3.000000000000087
210
0
220
0
230
1
100
AcDbArc
50
270
51
360
0
LINE
5
150
100
AcDbEntity
8
0
100
AcDbLine
10
-364.95000000000005
20
41.099999999999994
30
0
11
-366.95000000019411
21
41.100000000000001
31
0
0
ARC
5
151
100
AcDbEntity
8
0
100
AcDbCircle
10
-366.95000000019411
20
38.100000000000001
30
0
40
3.0000000000000027
210
0
220
-0
230
1
100
AcDbArc
50
90
51
270
0
LINE
5
152
100
AcDbEntity
8
0
100
AcDbLine
10
-366.95000000019411
20
35.099999999999994
30
0
11
-364.95000000019411
21
35.100000000000001
31
0
0
ARC
5
153
100
AcDbEntity
8
0
100
AcDbCircle
10
-364.95000000019411
20
32.09999999999998
30
0
40
2.9999999999999716
210
0
220
-0
230
1
100
AcDbArc
50
0
51
90
0
LINE
5
154
100
AcDbEntity
8
0
100
AcDbLine
10
-361.95000000019411
20
32.100000000000001
30
0
11
-361.94999999999999
21
-1.9999999999689022
31
0
0
ARC
5
155
100
AcDbEntity
8
0
100
AcDbCircle
10
-360.94999999999999
20
-1.9999999999999867
30
0
40
1.0000000000000142
210
0
220
0
230
1
100
AcDbArc
50
180
51
269.99999999999022
0
LINE
5
156
100
AcDbEntity
8
0
100
AcDbLine
10
-360.95000000000016
20
-3.0000000000000009
30
0
11
-327.86676853313855
21
-3.0000000000000009
31
0
0
ARC
5
157
100
AcDbEntity
8
0
100
AcDbCircle
10
-327.8667685331385
20
-2.0000000000000924
30
0
40
0.99999999999990874
210
0
220
0
230
1
100
AcDbArc
50
269.99999999999676
51
358.94951852879581
0
ARC
5
158
100
AcDbEntity
8
0
100
AcDbCircle
10
-324.86727272727256
20
-2.0550000000000677
30
0
40
2.0000000149012354
210
0
220
0
230
1
100
AcDbArc
50
90.000000000001634
51
178.94951852878955
0
LINE
5
159
100
AcDbEntity
8
0
100
AcDbLine
10
-324.86727272727262
20
-0.054999985098832249
30
0
11
-319.86727272727262
21
-0.054999985098855841
31
0
0
ARC
5
160
100
AcDbEntity
8
0
100
AcDbCircle
10
-319.86727272727262
20
-2.0549999999999868
30
0
40
2.0000000149011399
210
0
220
-0
230
1
100
AcDbArc
50
0
51
90
0
LINE
5
161
100
AcDbEntity
8
0
100
AcDbLine
10
-317.86727271237152
20
-2.0549999999999584
30
0
11
-317.86727271237152
21
-2.6306822303286759
31
0
0
ARC
5
162
100
AcDbEntity
8
0
100
AcDbCircle
10
-316.8672727123718
20
-2.6306822303288433
30
0
40
0.99999999999972999
210
0
220
0
230
1
100
AcDbArc
50
180
51
223.20878627771447
0
ARC
5
163
100
AcDbEntity
8
0
100
AcDbCircle
10
-318.32500000019394
20
-3.9999999999999125
30
0
40
0.99999999999983658
210
0
220
0
230
1
100
AcDbArc
50
0
51
43.208786277710132
0
LINE
5
164
100
AcDbEntity
8
0
100
AcDbLine
10
-317.32500000019411
20
-3.9999999999999454
30
0
11
-317.32500000019411
21
-24.054999999999879
31
0
0
ARC
5
165
100
AcDbEntity
8
0
100
AcDbCircle
10
-314.32500000019411
20
-24.054999999999879
30
0
40
3.0000000000000071
210
0
220
0
230
1
100
AcDbArc
50
180
51
360
0
ARC
5
166
100
AcDbEntity
8
0
100
AcDbCircle
10
-308.32500000019405
20
-24.054999999999911
30
0
40
3.000000000000016
210
0
220
0
230
1
100
AcDbArc
50
90.000000000001094
51
180
0
LINE
5
167
100
AcDbEntity
8
0
100
AcDbLine
10
-267.43981169493503
20
-21.055000000000042
30
0
11
-248.88750000000022
21
-21.055000000000099
31
0
0
LINE
5
168
100
AcDbEntity
8
0
100
AcDbLine
10
-277.94018830829253
20
-18.554865499106572
30
0
11
-277.94086080552438
21
-6.0550000000457143
31
0
0
LINE
5
169
100
AcDbEntity
8
0
100
AcDbLine
10
-269.93913919408459
20
-6.0549999992384862
30
0
11
-269.93981169131695
21
-18.554865499106526
31
0
0
ARC
5
170
100
AcDbEntity
8
0
100
AcDbCircle
10
-248.88750000000027
20
-24.055000000000145
30
0
40
3.0000000000000426
210
0
220
-0
230
1
100
AcDbArc
50
0
51
89.99999999999892
0
ARC
5
171
100
AcDbEntity
8
0
100
AcDbCircle
10
-242.88750000000005
20
-24.055000000000135
30
0
40
3.0000000000001847
210
0
220
0
230
1
100
AcDbArc
50
-180
51
9.4711169757063327e-05
0
LINE
5
172
100
AcDbEntity
8
0
100
AcDbLine
10
-239.88750000000394
20
-24.054995040733406
30
0
11
-239.88750000000005
21
-4.0000000000000924
31
0
0
ARC
5
173
100
AcDbEntity
8
0
100
AcDbCircle
10
-238.88749999999993
20
-4.000000000000087
30
0
40
1.000000000000052
210
0
220
0
230
1
100
AcDbArc
50
91.874120176629802
51
180
0
LWPOLYLINE
5
174
100
AcDbEntity
8
0
100
AcDbPolyline
90
8
70
1
43
0.0
10
-322.11250000000001
20
21.575000000000003
42
0.4142135623731939
10
-321.61250000000001
20
22.074999999999999
10
-321.61250000000001
20
35.075000000000003
42
0.4142135623730222
10
-322.11250000000001
20
35.574999999999974
10
-335.11250000000007
20
35.575000000000003
42
0.41421356237311063
10
-335.61250000000001
20
35.075000000000003
10
-335.61250000000001
20
22.074999999999999
42
0.4142135623730222
10
-335.11250000000007
20
21.575000000000003
0
LWPOLYLINE
5
175
100
AcDbEntity
8
0
100
AcDbPolyline
90
8
70
1
43
0.0
10
-345.42500000000007
20
35.075000000000003
10
-345.42500000000007
20
22.074999999999999
42
-0.41421356237311063
10
-345.92500000000001
20
21.575000000000003
10
-358.92500000000007
20
21.57500000000001
42
-0.4142135623730222
10
-359.42500000000001
20
22.074999999999999
10
-359.42500000000001
20
35.075000000000003
42
-0.4142135623731939
10
-358.92500000000007
20
35.575000000000003
10
-345.92500000000001
20
35.574999999999989
42
-0.4142135623730222
0
LWPOLYLINE
5
176
100
AcDbEntity
8
0
100
AcDbPolyline
90
8
70
1
43
0.0
10
-226.36250000000001
20
54.125000000000007
10
-226.36250000000004
20
41.125
42
-0.4142135623730222
10
-226.86250000000001
20
40.625
10
-239.86250000000001
20
40.625
42
-0.41421356237313145
10
-240.36250000000001
20
41.125
10
-240.36250000000007
20
54.125000000000007
42
-0.41421356237307422
10
-239.86250000000001
20
54.625
10
-226.86250000000001
20
54.624999999999986
42
-0.41421356237312101
0
LWPOLYLINE
5
177
100
AcDbEntity
8
0
100
AcDbPolyline
90
8
70
1
43
0.0
10
-207.8125
20
40.625
42
0.4142135623730222
10
-207.31250000000003
20
41.125
10
-207.3125
20
54.125000000000007
42
0.41421356237312101
10
-207.8125
20
54.625000000000014
10
-220.8125
20
54.625
42
0.41421356237307422
10
-221.3125
20
54.125000000000007
10
-221.3125
20
41.125
42
0.41421356237313145
10
-220.8125
20
40.625
0
LWPOLYLINE
5
178
100
AcDbEntity
8
0
100
AcDbPolyline
90
8
70
1
43
0.0
10
-264.96249999999998
20
40.625
42
0.41421356237307422
10
-264.46249999999998
20
41.125
10
-264.46249999999998
20
54.125000000000007
42
0.41421356237313145
10
-264.96249999999998
20
54.625000000000014
10
-277.96249999999998
20
54.625
42
0.4142135623730222
10
-278.46250000000003
20
54.125000000000007
10
-278.46250000000003
20
41.125
42
0.41421356237312101
10
-277.96249999999998
20
40.624999999999993
0
LWPOLYLINE
5
179
100
AcDbEntity
8
0
100
AcDbPolyline
90
8
70
1
43
0.0
10
-211.78750000000002
20
60.174999999999997
42
0.41421356237313667
10
-211.28749999999999
20
59.674999999999997
10
-198.28749999999999
20
59.675000000000004
42
0.4142135623730222
10
-197.78749999999999
20
60.174999999999997
10
-197.78749999999999
20
73.174999999999997
42
0.41421356237312101
10
-198.28749999999999
20
73.674999999999997
10
-211.28749999999999
20
73.674999999999997
42
0.41421356237307944
10
-211.78750000000002
20
73.174999999999983
0
LWPOLYLINE
5
180
100
AcDbEntity
8
0
100
AcDbPolyline
90
8
70
1
43
0.0
10
-279.25
20
21.575000000000003
42
0.41421356237308204
10
-278.75
20
22.074999999999999
10
-278.75
20
35.075000000000003
42
0.41421356237313145
10
-279.25
20
35.57500000000001
10
-292.25
20
35.575000000000003
42
0.41421356237304563
10
-292.75
20
35.075000000000003
10
-292.75
20
22.074999999999999
42
0.41421356237310281
10
-292.25
20
21.574999999999992
0
LWPOLYLINE
5
181
100
AcDbEntity
8
0
100
AcDbPolyline
90
8
70
1
43
0.0
10
-184.00000000000003
20
21.575000000000003
42
0.41421356237308204
10
-183.5
20
22.074999999999999
10
-183.5
20
35.075000000000003
42
0.41421356237313145
10
-184.00000000000003
20
35.575000000000003
10
-197.00000000000003
20
35.575000000000003
42
0.41421356237304563
10
-197.50000000000003
20
35.075000000000003
10
-197.50000000000003
20
22.074999999999999
42
0.41421356237310281
10
-197.00000000000003
20
21.575000000000003
0
LWPOLYLINE
5
182
100
AcDbEntity
8
0
100
AcDbPolyline
90
8
70
1
43
0.0
10
-298.30000000000001
20
21.575000000000003
42
0.41421356237308204
10
-297.80000000000001
20
22.074999999999999
10
-297.80000000000001
20
35.075000000000003
42
0.41421356237313145
10
-298.30000000000001
20
35.57500000000001
10
-311.30000000000001
20
35.575000000000003
42
0.41421356237304563
10
-311.80000000000001
20
35.075000000000003
10
-311.80000000000001
20
22.074999999999999
42
0.41421356237310281
10
-311.30000000000001
20
21.575000000000003
0
LWPOLYLINE
5
183
100
AcDbEntity
8
0
100
AcDbPolyline
90
8
70
1
43
0.0
10
-222.10000000000002
20
21.575000000000003
42
0.41421356237305079
10
-221.59999999999999
20
22.074999999999999
10
-221.59999999999999
20
35.075000000000003
42
0.41421356237310025
10
-222.10000000000002
20
35.575000000000003
10
-235.10000000000002
20
35.575000000000003
42
0.41421356237307683
10
-235.60000000000002
20
35.075000000000003
10
-235.60000000000002
20
22.074999999999999
42
0.41421356237313406
10
-235.10000000000002
20
21.575000000000003
0
LWPOLYLINE
5
184
100
AcDbEntity
8
0
100
AcDbPolyline
90
8
70
1
43
0.0
10
-203.05000000000004
20
21.575000000000003
42
0.41421356237308204
10
-202.55000000000001
20
22.074999999999999
10
-202.55000000000001
20
35.075000000000003
42
0.41421356237313145
10
-203.05000000000004
20
35.575000000000003
10
-216.05000000000004
20
35.575000000000003
42
0.41421356237304563
10
-216.55000000000004
20
35.075000000000003
10
-216.55000000000004
20
22.074999999999999
42
0.41421356237310281
10
-216.05000000000004
20
21.575000000000003
0
LWPOLYLINE
5
185
100
AcDbEntity
8
0
100
AcDbPolyline
90
8
70
1
43
0.0
10
-241.15000000000003
20
21.575000000000003
42
0.41421356237305079
10
-240.65000000000001
20
22.074999999999999
10
-240.65000000000001
20
35.075000000000003
42
0.41421356237310025
10
-241.15000000000003
20
35.57500000000001
10
-254.15000000000003
20
35.575000000000003
42
0.41421356237307683
10
-254.65000000000003
20
35.075000000000003
10
-254.65000000000003
20
22.074999999999999
42
0.41421356237313406
10
-254.15000000000003
20
21.574999999999992
0
LWPOLYLINE
5
186
100
AcDbEntity
8
0
100
AcDbPolyline
90
8
70
1
43
0.0
10
-188.76249999999999
20
40.625
42
0.4142135623730222
10
-188.26250000000002
20
41.125
10
-188.26249999999999
20
54.125000000000007
42
0.41421356237312101
10
-188.76249999999999
20
54.625000000000014
10
-201.76249999999999
20
54.625
42
0.41421356237307422
10
-202.26249999999999
20
54.125000000000007
10
-202.26249999999999
20
41.125
42
0.41421356237313145
10
-201.76249999999999
20
40.625
0
LWPOLYLINE
5
187
100
AcDbEntity
8
0
100
AcDbPolyline
90
8
70
1
43
0.0
10
-273.69999999999999
20
22.074999999999999
42
0.41421356237310281
10
-273.19999999999999
20
21.574999999999982
10
-260.19999999999999
20
21.575000000000003
42
0.41421356237308204
10
-259.69999999999999
20
22.074999999999999
10
-259.69999999999999
20
35.075000000000003
42
0.41421356237313145
10
-260.19999999999999
20
35.57500000000001
10
-273.19999999999999
20
35.575000000000003
42
0.41421356237304563
10
-273.69999999999999
20
35.075000000000003
0
LWPOLYLINE
5
188
100
AcDbEntity
8
0
100
AcDbPolyline
90
8
70
1
43
0.0
10
-345.92500000000001
20
2.5249999999999999
42
0.41421356237310997
10
-345.42500000000007
20
3.0249999999999999
10
-345.42500000000007
20
16.024999999999999
42
0.41421356237301959
10
-345.92500000000001
20
16.52499999999997
10
-358.92500000000007
20
16.525000000000002
42
0.4142135623731939
10
-359.42500000000001
20
16.024999999999999
10
-359.42500000000001
20
3.0249999999999999
42
0.41421356237301926
10
-358.92500000000007
20
2.5249999999999995
0
LWPOLYLINE
5
189
100
AcDbEntity
8
0
100
AcDbPolyline
90
8
70
1
43
0.0
10
-245.91250000000002
20
40.625
42
0.4142135623730222
10
-245.41250000000005
20
41.125
10
-245.41250000000002
20
54.125000000000007
42
0.41421356237312101
10
-245.91250000000002
20
54.625
10
-258.91250000000002
20
54.625
42
0.41421356237307422
10
-259.41250000000002
20
54.125000000000007
10
-259.41250000000002
20
41.125
42
0.41421356237313145
10
-258.91250000000002
20
40.624999999999993
0
LWPOLYLINE
5
190
100
AcDbEntity
8
0
100
AcDbPolyline
90
8
70
1
43
0.0
10
-314.91200000000003
20
15.525000000000002
42
0.41421356237304691
10
-315.41200000000009
20
15.025000000000002
10
-315.41200000000009
20
1.0250000000000004
42
0.41421356237310203
10
-314.91200000000003
20
0.52499999999999769
10
-308.91200000000003
20
0.52499999999999991
42
0.41421356237302537
10
-308.41200000000003
20
1.0250000000000004
10
-308.41200000000003
20
15.025000000000002
42
0.41421356237312235
10
-308.91200000000003
20
15.525000000000009
0
LWPOLYLINE
5
191
100
AcDbEntity
8
0
100
AcDbPolyline
90
16
70
1
43
0.0
10
-236.89425000000003
20
77.224999999999994
42
0.41421356237312623
10
-236.39425000000003
20
76.725000000000009
10
-230.39425
20
76.725000000000009
42
0.4142135623730222
10
-229.89425
20
77.224999999999994
10
-229.89425
20
78.224999999999994
42
-0.41421356237312101
10
-229.39425
20
78.724999999999966
10
-214.95625000000004
20
78.724999999999994
42
0.4142135623730222
10
-214.45625000000004
20
79.224999999999994
10
-214.45625000000004
20
92.224999999999994
42
0.41421356237310542
10
-214.95625000000004
20
92.725000000000009
10
-237.48125000000002
20
92.725000000000009
42
0.41421356237310542
10
-237.98125000000002
20
92.224999999999994
10
-237.98125000000002
20
79.224999999999994
42
0.41421356237312623
10
-237.48125000000002
20
78.724999999999994
10
-237.39425
20
78.724999999999994
42
-0.41421356237313145
10
-236.89425
20
78.224999999999994
0
LWPOLYLINE
5
192
100
AcDbEntity
8
0
100
AcDbPolyline
90
8
70
1
43
0.0
10
-212.57499999999999
20
2.5249999999999999
42
0.41421356237304624
10
-212.07499999999999
20
3.0249999999999999
10
-212.07499999999999
20
16.024999999999999
42
0.41421356237312362
10
-212.57499999999999
20
16.525000000000006
10
-225.57500000000002
20
16.525000000000002
42
0.4142135623730781
10
-226.07500000000002
20
16.024999999999999
10
-226.07500000000002
20
3.0249999999999999
42
0.41421356237313273
10
-225.57500000000002
20
2.5249999999999995
0
LWPOLYLINE
5
193
100
AcDbEntity
8
0
100
AcDbPolyline
90
8
70
1
43
0.0
10
-269.72500000000002
20
2.5249999999999999
42
0.41421356237304624
10
-269.22500000000002
20
3.0249999999999999
10
-269.22500000000002
20
16.024999999999999
42
0.41421356237312362
10
-269.72500000000002
20
16.525000000000002
10
-282.72500000000002
20
16.525000000000002
42
0.4142135623730781
10
-283.22500000000002
20
16.024999999999999
10
-283.22500000000002
20
3.0249999999999999
42
0.41421356237313273
10
-282.72500000000002
20
2.5249999999999928
0
LWPOLYLINE
5
194
100
AcDbEntity
8
0
100
AcDbPolyline
90
8
70
1
43
0.0
10
-207.02500000000003
20
3.0249999999999999
42
0.41421356237310153
10
-206.52500000000003
20
2.5249999999999817
10
-193.52500000000003
20
2.5249999999999999
42
0.41421356237307749
10
-193.02500000000003
20
3.0249999999999999
10
-193.02500000000003
20
16.024999999999999
42
0.41421356237313406
10
-193.52500000000003
20
16.525000000000006
10
-206.52500000000003
20
16.525000000000002
42
0.41421356237304691
10
-207.02500000000003
20
16.024999999999999
0
LWPOLYLINE
5
195
100
AcDbEntity
8
0
100
AcDbPolyline
90
8
70
1
43
0.0
10
-316.85000000000002
20
16.024999999999999
10
-316.84999999999997
20
3.0249999999999999
42
-0.41421356237307749
10
-317.35000000000002
20
2.5249999999999999
10
-330.35000000000002
20
2.5250000000000155
42
-0.41421356237301926
10
-330.85000000000002
20
3.0249999999999999
10
-330.85000000000002
20
16.024999999999999
42
-0.4142135623731939
10
-330.35000000000002
20
16.525000000000002
10
-317.35000000000002
20
16.525000000000002
42
-0.41421356237313406
0
CIRCLE
5
196
100
AcDbEntity
8
0
100
AcDbCircle
10
-242.88750000000005
20
-24.055000000000135
30
0
40
1.6000000000000014
210
0
220
-0
230
1
0
LWPOLYLINE
5
197
100
AcDbEntity
8
0
100
AcDbPolyline
90
8
70
1
43
0.0
10
-213.01825000000002
20
77.024999999999991
10
-213.01825000000002
20
93.024999999999977
42
-0.41421356237314705
10
-212.51824999999999
20
93.524999999999991
10
-197.08749999999995
20
93.524999999999991
42
-0.41421356237309503
10
-196.58749999999998
20
93.02500000000002
10
-196.58749999999998
20
77.024999999999977
42
-0.41421356237310542
10
-197.08749999999995
20
76.525000000000006
10
-212.51824999999999
20
76.524999999999991
42
-0.41421356237313145
0
LWPOLYLINE
5
198
100
AcDbEntity
8
0
100
AcDbPolyline
90
8
70
1
43
0.0
10
-231.625
20
2.5249999999999999
42
0.41421356237304624
10
-231.125
20
3.0249999999999999
10
-231.125
20
16.024999999999999
42
0.41421356237312362
10
-231.625
20
16.525000000000002
10
-244.62500000000003
20
16.525000000000002
42
0.4142135623730781
10
-245.12500000000003
20
16.024999999999999
10
-245.12500000000003
20
3.0249999999999999
42
0.41421356237313273
10
-244.62500000000003
20
2.5249999999999995
0
LWPOLYLINE
5
199
100
AcDbEntity
8
0
100
AcDbPolyline
90
8
70
1
43
0.0
10
-236.38750000000002
20
59.675000000000004
42
0.4142135623730222
10
-235.88750000000005
20
60.174999999999997
10
-235.88750000000002
20
73.174999999999997
42
0.41421356237312101
10
-236.38750000000002
20
73.674999999999997
10
-249.38749999999999
20
73.674999999999997
42
0.41421356237302737
10
-249.88749999999999
20
73.174999999999983
10
-249.88749999999999
20
60.174999999999997
42
0.41421356237312623
10
-249.38749999999999
20
59.674999999999997
0
LWPOLYLINE
5
200
100
AcDbEntity
8
0
100
AcDbPolyline
90
8
70
1
43
0.0
10
-255.43750000000003
20
59.675000000000004
42
0.4142135623730222
10
-254.93750000000006
20
60.174999999999997
10
-254.93750000000003
20
73.174999999999997
42
0.41421356237312101
10
-255.43750000000003
20
73.674999999999997
10
-268.4375
20
73.674999999999997
42
0.41421356237302737
10
-268.9375
20
73.174999999999983
10
-268.9375
20
60.174999999999997
42
0.41421356237312623
10
-268.4375
20
59.674999999999997
0
LWPOLYLINE
5
201
100
AcDbEntity
8
0
100
AcDbPolyline
90
8
70
1
43
0.0
10
-274.48750000000007
20
59.675000000000004
42
0.4142135623730222
10
-273.98750000000007
20
60.174999999999997
10
-273.98750000000001
20
73.174999999999997
42
0.41421356237312101
10
-274.48750000000007
20
73.674999999999997
10
-287.48750000000001
20
73.674999999999997
42
0.41421356237302737
10
-287.98750000000001
20
73.174999999999983
10
-287.98750000000001
20
60.174999999999997
42
0.41421356237312623
10
-287.48750000000001
20
59.674999999999997
0
LWPOLYLINE
5
202
100
AcDbEntity
8
0
100
AcDbPolyline
90
8
70
1
43
0.0
10
-300.68124999999998
20
59.675000000000004
42
0.41421356237307422
10
-300.18124999999992
20
60.174999999999997
10
-300.18124999999998
20
73.174999999999997
42
0.41421356237313145
10
-300.68124999999998
20
73.674999999999997
10
-313.68124999999998
20
73.674999999999997
42
0.41421356237302737
10
-314.18124999999998
20
73.174999999999983
10
-314.18124999999998
20
60.174999999999997
42
0.41421356237312623
10
-313.68124999999998
20
59.675000000000004
0
LWPOLYLINE
5
203
100
AcDbEntity
8
0
100
AcDbPolyline
90
8
70
1
43
0.0
10
-359.42500000000001
20
60.174999999999997
42
0.4142135623730222
10
-358.92500000000007
20
59.675000000000011
10
-345.92500000000001
20
59.675000000000004
42
0.41421356237310542
10
-345.42500000000007
20
60.174999999999997
10
-345.42500000000007
20
73.174999999999997
42
0.4142135623730222
10
-345.92500000000001
20
73.674999999999997
10
-358.92500000000007
20
73.674999999999997
42
0.41421356237320428
10
-359.42500000000001
20
73.174999999999983
0
LWPOLYLINE
5
204
100
AcDbEntity
8
0
100
AcDbPolyline
90
8
70
1
43
0.0
10
-284.01249999999999
20
40.625
42
0.41421356237307422
10
-283.51249999999999
20
41.125
10
-283.51249999999999
20
54.125000000000007
42
0.41421356237313145
10
-284.01249999999999
20
54.625
10
-297.01250000000005
20
54.625
42
0.4142135623730222
10
-297.51250000000005
20
54.125000000000007
10
-297.51250000000005
20
41.125
42
0.41421356237312101
10
-297.01250000000005
20
40.624999999999993
0
LWPOLYLINE
5
205
100
AcDbEntity
8
0
100
AcDbPolyline
90
8
70
1
43
0.0
10
-336.40674999999999
20
53.625
42
0.41421356237310542
10
-336.90674999999999
20
53.125
10
-336.90674999999999
20
39.125
42
0.4142135623730222
10
-336.40674999999999
20
38.625
10
-330.40674999999999
20
38.625
42
0.4142135623731939
10
-329.90675000000005
20
39.125
10
-329.90675000000005
20
53.125
42
0.4142135623730222
10
-330.40674999999999
20
53.624999999999972
0
LWPOLYLINE
5
206
100
AcDbEntity
8
0
100
AcDbPolyline
90
8
70
1
43
0.0
10
-217.33750000000001
20
59.675000000000004
42
0.4142135623730222
10
-216.83750000000003
20
60.174999999999997
10
-216.83750000000001
20
73.174999999999997
42
0.41421356237312101
10
-217.33750000000001
20
73.674999999999997
10
-230.33750000000001
20
73.674999999999997
42
0.41421356237307944
10
-230.83750000000003
20
73.174999999999983
10
-230.83750000000003
20
60.174999999999997
42
0.41421356237313667
10
-230.33750000000001
20
59.675000000000004
0
LWPOLYLINE
5
207
100
AcDbEntity
8
0
100
AcDbPolyline
90
8
70
1
43
0.0
10
-340.375
20
60.174999999999997
42
0.4142135623730222
10
-339.87500000000006
20
59.675000000000011
10
-326.875
20
59.675000000000004
42
0.41421356237310542
10
-326.375
20
60.174999999999997
10
-326.375
20
73.174999999999997
42
0.4142135623730222
10
-326.875
20
73.674999999999955
10
-339.87500000000006
20
73.674999999999997
42
0.41421356237320428
10
-340.375
20
73.174999999999983
0
LWPOLYLINE
5
208
100
AcDbEntity
8
0
100
AcDbPolyline
90
8
70
1
43
0.0
10
-314.46875
20
54.125000000000007
10
-314.46875000000006
20
41.125
42
-0.4142135623730222
10
-314.96875
20
40.625
10
-327.96875
20
40.625000000000007
42
-0.4142135623730222
10
-328.46875
20
41.125
10
-328.46875
20
54.125000000000007
42
-0.41421356237311585
10
-327.96875
20
54.625
10
-314.96875
20
54.624999999999986
42
-0.41421356237312101
0
LWPOLYLINE
5
209
100
AcDbEntity
8
0
100
AcDbPolyline
90
8
70
1
43
0.0
10
-345.92500000000001
20
40.625
42
0.41421356237311585
10
-345.42500000000007
20
41.125
10
-345.42500000000007
20
54.125000000000007
42
0.4142135623730222
10
-345.92500000000001
20
54.625
10
-358.92500000000007
20
54.625
42
0.41421356237319906
10
-359.42500000000001
20
54.125000000000007
10
-359.42500000000001
20
41.125
42
0.4142135623730222
10
-358.92500000000007
20
40.625
0
LWPOLYLINE
5
210
100
AcDbEntity
8
0
100
AcDbPolyline
90
8
70
1
43
0.0
10
-312.53075000000001
20
53.625
42
0.4142135623730222
10
-313.03075000000001
20
53.125
10
-313.03075000000001
20
39.125
42
0.41421356237310281
10
-312.53075000000001
20
38.625
10
-306.53075000000001
20
38.625
42
0.41421356237305079
10
-306.03075000000001
20
39.125
10
-306.03075000000001
20
53.125
42
0.41421356237312623
10
-306.53075000000001
20
53.625000000000007
0
LWPOLYLINE
5
211
100
AcDbEntity
8
0
100
AcDbPolyline
90
8
70
1
43
0.0
10
-326.875
20
78.724999999999994
42
0.41421356237310542
10
-326.375
20
79.224999999999994
10
-326.375
20
92.224999999999994
42
0.4142135623730222
10
-326.875
20
92.724999999999966
10
-339.87500000000006
20
92.725000000000009
42
0.41421356237313667
10
-340.37500000000011
20
92.224999999999994
10
-340.375
20
79.224999999999994
42
0.4142135623730222
10
-339.87500000000006
20
78.725000000000023
0
LWPOLYLINE
5
212
100
AcDbEntity
8
0
100
AcDbPolyline
90
8
70
1
43
0.0
10
-338.78800000000007
20
15.525000000000002
42
0.41421356237319257
10
-339.28800000000001
20
15.025000000000002
10
-339.28800000000001
20
1.0249999999999999
42
0.41421356237301948
10
-338.78800000000007
20
0.52499999999999769
10
-332.78800000000001
20
0.52499999999999991
42
0.41421356237310997
10
-332.28800000000007
20
1.0250000000000004
10
-332.28800000000007
20
15.025000000000002
42
0.41421356237301826
10
-332.78800000000001
20
15.525000000000002
0
LWPOLYLINE
5
213
100
AcDbEntity
8
0
100
AcDbPolyline
90
8
70
1
43
0.0
10
-288.77499999999998
20
78.724999999999994
42
0.4142135623730222
10
-288.27499999999998
20
79.224999999999994
10
-288.27499999999998
20
92.224999999999994
42
0.41421356237310542
10
-288.77499999999998
20
92.725000000000009
10
-301.77499999999998
20
92.725000000000009
42
0.41421356237313667
10
-302.27499999999998
20
92.224999999999994
10
-302.27499999999998
20
79.224999999999994
42
0.41421356237313667
10
-301.77499999999998
20
78.724999999999994
0
LWPOLYLINE
5
214
100
AcDbEntity
8
0
100
AcDbPolyline
90
8
70
1
43
0.0
10
-288.77499999999998
20
2.5249999999999999
42
0.41421356237304624
10
-288.27499999999998
20
3.0249999999999999
10
-288.27499999999998
20
16.024999999999999
42
0.41421356237312362
10
-288.77499999999998
20
16.525000000000002
10
-301.77499999999998
20
16.525000000000002
42
0.4142135623730781
10
-302.27499999999998
20
16.024999999999999
10
-302.27499999999998
20
3.0249999999999999
42
0.41421356237313273
10
-301.77499999999998
20
2.5249999999999928
0
LWPOLYLINE
5
215
100
AcDbEntity
8
0
100
AcDbPolyline
90
8
70
1
43
0.0
10
-307.82499999999999
20
78.724999999999994
42
0.4142135623730222
10
-307.32500000000005
20
79.224999999999994
10
-307.32499999999999
20
92.224999999999994
42
0.41421356237310542
10
-307.82499999999999
20
92.725000000000009
10
-320.82500000000005
20
92.725000000000009
42
0.41421356237313667
10
-321.32499999999999
20
92.224999999999994
10
-321.32499999999999
20
79.224999999999994
42
0.4142135623730222
10
-320.82500000000005
20
78.725000000000023
0
LWPOLYLINE
5
216
100
AcDbEntity
8
0
100
AcDbPolyline
90
8
70
1
43
0.0
10
-269.22500000000002
20
92.224999999999994
10
-269.22500000000008
20
79.224999999999994
42
-0.4142135623730222
10
-269.72500000000002
20
78.724999999999994
10
-282.72500000000002
20
78.724999999999994
42
-0.41421356237313667
10
-283.22500000000002
20
79.224999999999994
10
-283.22500000000002
20
92.224999999999994
42
-0.41421356237313667
10
-282.72500000000002
20
92.725000000000009
10
-269.72500000000002
20
92.725000000000023
42
-0.41421356237310542
0
LWPOLYLINE
5
217
100
AcDbEntity
8
0
100
AcDbPolyline
90
8
70
1
43
0.0
10
-250.67500000000001
20
2.5249999999999999
42
0.41421356237304624
10
-250.17500000000001
20
3.0249999999999999
10
-250.17500000000001
20
16.024999999999999
42
0.41421356237312362
10
-250.67500000000001
20
16.525000000000002
10
-263.67500000000001
20
16.525000000000002
42
0.4142135623730781
10
-264.17500000000007
20
16.024999999999999
10
-264.17500000000007
20
3.0249999999999999
42
0.41421356237313273
10
-263.67500000000001
20
2.5249999999999928
0
LWPOLYLINE
5
218
100
AcDbEntity
8
0
100
AcDbPolyline
90
8
70
1
43
0.0
10
-250.17500000000001
20
92.224999999999994
10
-250.17500000000007
20
79.224999999999994
42
-0.4142135623730222
10
-250.67500000000001
20
78.724999999999994
10
-263.67500000000001
20
78.724999999999994
42
-0.41421356237313667
10
-264.17500000000007
20
79.224999999999994
10
-264.17500000000007
20
92.224999999999994
42
-0.41421356237313667
10
-263.67500000000001
20
92.725000000000009
10
-250.67500000000001
20
92.725000000000023
42
-0.41421356237310542
0
LWPOLYLINE
5
219
100
AcDbEntity
8
0
100
AcDbPolyline
90
8
70
1
43
0.0
10
-345.92500000000001
20
78.724999999999994
42
0.41421356237310542
10
-345.42500000000007
20
79.224999999999994
10
-345.42500000000007
20
92.224999999999994
42
0.4142135623730222
10
-345.92500000000001
20
92.724999999999966
10
-358.92500000000007
20
92.725000000000009
42
0.41421356237313667
10
-359.42500000000007
20
92.224999999999994
10
-359.42500000000001
20
79.224999999999994
42
0.4142135623730222
10
-358.92500000000007
20
78.725000000000023
0
CIRCLE
5
220
100
AcDbEntity
8
0
100
AcDbCircle
10
-342.89999999999998
20
100.2499999999995
30
0
40
1.5999999999999659
210
0
220
-0
230
1
0
CIRCLE
5
221
100
AcDbEntity
8
0
100
AcDbCircle
10
-214.3125
20
100.25000000000003
30
0
40
1.6000000000000014
210
0
220
-0
230
1
0
CIRCLE
5
222
100
AcDbEntity
8
0
100
AcDbCircle
10
-314.32500000019411
20
-24.054999999999879
30
0
40
1.6000000000000014
210
0
220
-0
230
1
0
CIRCLE
5
223
100
AcDbEntity
8
0
100
AcDbCircle
10
-366.95000000019411
20
38.100000000000001
30
0
40
1.5999999999999659
210
0
220
-0
230
1
0
CIRCLE
5
224
100
AcDbEntity
8
0
100
AcDbCircle
10
-304.80000000000007
20
18.300000000000001
30
0
40
1.25
210
0
220
-0
230
1
0
ARC
5
225
100
AcDbEntity
8
0
100
AcDbCircle
10
-267.43981169493503
20
-18.554999999999989
30
0
40
2.5000000000000497
210
0
220
0
230
1
100
AcDbArc
50
179.99691746671408
51
270
0
LINE
5
226
100
AcDbEntity
8
0
100
AcDbLine
10
-308.32500000019411
20
-21.054999999999893
30
0
11
-280.44018830467439
21
-21.054999999999996
31
0
0
ARC
5
227
100
AcDbEntity
8
0
100
AcDbCircle
10
-280.44018830467439
20
-18.555
30
0
40
2.4999999999999956
210
0
220
0
230
1
100
AcDbArc
50
-90
51
0.0030825334041557281
0
CIRCLE
5
228
100
AcDbEntity
8
0
100
AcDbCircle
10
-204.81566079443692
20
56.399999999999999
30
0
40
1.25
210
0
220
-0
230
1
0
CIRCLE
5
229
100
AcDbEntity
8
0
100
AcDbCircle
10
-323.85000000000002
20
75.449999999999989
30
0
40
1.25
210
0
220
-0
230
1
0
CIRCLE
5
230
100
AcDbEntity
8
0
100
AcDbCircle
10
-209.55000000000001
20
18.300000000000001
30
0
40
1.25
210
0
220
-0
230
1
0
ENDSEC
0
SECTION
2
OBJECTS
0
DICTIONARY
5
C
100
AcDbDictionary
3
ACAD_GROUP
350
D
3
ACAD_MLINESTYLE
350
17
0
DICTIONARY
5
D
100
AcDbDictionary
0
DICTIONARY
5
1A
330
C
100
AcDbDictionary
0
DICTIONARY
5
17
100
AcDbDictionary
0
ENDSEC
0
EOF
